{"glyphs":{"0":{"ha":436,"x_min":1,"x_max":429,"o":"m 428 324 q 413 207 429 258 q 374 116 397 156 q 324 49 351 76 q 275 7 297 22 q 244 -23 254 -8 q 232 -47 233 -37 q 238 -59 231 -56 q 258 -56 244 -62 q 240 -64 250 -64 q 221 -58 229 -64 q 208 -42 213 -53 q 204 -17 203 -31 q 167 -1 193 -14 q 110 36 140 11 q 53 102 81 61 q 14 203 26 143 q 12 321 1 263 q 45 428 22 379 q 98 513 68 476 q 154 564 128 549 q 210 615 206 594 q 193 631 215 635 q 228 624 215 640 q 232 590 242 608 q 286 565 253 583 q 351 515 319 547 q 405 436 382 483 q 428 324 428 389 m 218 101 q 227 64 214 82 q 262 44 240 46 q 308 63 283 42 q 350 146 332 85 q 363 257 368 206 q 338 350 357 308 q 292 422 319 392 q 235 472 264 453 q 203 447 219 453 q 176 445 188 442 q 157 458 164 449 q 154 479 150 468 q 158 463 151 469 q 173 454 164 456 q 193 459 182 453 q 213 481 204 465 q 210 510 219 497 q 185 528 201 524 q 147 523 168 532 q 108 483 125 514 q 74 376 79 432 q 81 270 68 321 q 123 176 93 219 q 194 106 153 132 q 221 140 203 132 q 254 143 239 147 q 277 126 269 139 q 274 101 285 114 q 274 123 281 114 q 257 134 268 132 q 234 129 246 136 q 218 101 222 122 z "},"1":{"ha":236,"x_min":7,"x_max":272,"o":"m 272 72 q 228 51 249 69 q 194 14 207 33 q 181 -18 182 -6 q 194 -22 179 -31 q 175 -35 186 -31 q 152 -38 164 -40 q 128 -26 140 -36 q 101 7 115 -15 q 75 41 86 29 q 54 58 64 53 q 35 65 43 64 q 57 79 47 68 q 72 104 65 88 q 79 149 79 121 l 79 443 q 42 453 58 443 q 16 476 25 463 q 8 504 7 490 q 21 529 8 518 q 13 508 13 521 q 19 486 13 496 q 42 474 26 476 q 79 486 57 472 q 112 520 101 499 q 122 560 122 542 q 111 590 122 579 q 78 593 100 600 q 149 588 115 615 q 183 486 183 561 l 183 88 q 204 53 194 75 q 228 67 215 61 q 250 74 239 72 q 272 72 261 76 z "},"2":{"ha":431,"x_min":-14,"x_max":449,"o":"m 181 590 q 200 618 200 606 q 192 633 200 631 q 210 617 207 633 q 206 593 213 601 q 286 544 256 563 q 337 515 317 526 q 369 496 357 503 q 393 481 381 489 q 414 475 406 474 q 427 481 422 476 q 432 494 432 486 q 426 506 432 501 q 442 480 436 500 q 443 429 449 460 q 417 360 438 399 q 356 281 397 322 q 274 216 318 243 q 187 164 231 189 q 104 110 143 139 q 36 43 65 82 q 88 72 58 58 q 152 93 118 85 q 222 106 186 101 q 290 110 257 111 q 293 84 283 96 q 321 67 303 72 q 360 63 339 61 q 397 78 382 64 q 421 112 413 92 q 428 151 429 132 q 414 185 426 171 q 375 204 401 200 q 419 189 401 206 q 442 147 436 172 q 438 92 447 121 q 403 38 429 63 q 364 -4 375 13 q 351 -31 353 -21 q 355 -44 350 -42 q 365 -44 360 -47 q 348 -44 357 -51 q 346 -25 339 -36 q 194 21 260 13 q 83 22 128 29 q 18 -5 39 14 q 1 -42 -3 -24 q -4 -19 -4 -32 q -2 23 -7 -3 q 24 84 3 49 q 90 167 46 119 q 211 275 135 214 q 272 333 249 306 q 305 385 294 361 q 316 431 315 410 q 311 468 317 451 q 258 538 299 507 q 206 497 231 517 q 159 463 183 481 q 117 431 135 444 q 93 403 100 417 q 87 378 86 389 q 94 360 88 367 q 110 354 101 354 q 85 357 93 349 q 74 380 76 365 q 69 410 71 394 q 65 435 68 425 q 53 454 63 444 q 31 469 43 464 q 6 471 18 474 q -12 451 -7 468 q -8 468 -14 461 q 6 479 -3 475 q 23 485 14 483 q 39 485 32 486 q 128 550 94 525 q 181 590 161 575 z "},"3":{"ha":432,"x_min":-31,"x_max":429,"o":"m 179 -25 q 163 -35 168 -29 q 158 -45 158 -40 q 160 -53 158 -50 q 167 -54 163 -56 q 157 -51 161 -56 q 151 -41 153 -47 q 153 -27 150 -35 q 165 -14 157 -19 q 138 8 153 -4 q 105 33 124 19 q 63 67 86 47 q 22 93 39 85 q -5 101 6 101 q -20 97 -15 101 q -25 86 -25 92 q 40 129 -31 117 q 68 142 58 132 q 80 164 78 153 q 77 184 82 175 q 61 193 72 193 q 87 184 79 199 q 94 158 94 169 l 201 75 q 208 95 201 88 q 223 106 214 103 q 240 109 232 110 q 253 103 249 108 q 235 106 244 108 q 221 96 226 104 q 215 75 215 88 q 221 46 214 63 q 247 24 228 31 q 283 29 265 18 q 312 71 301 40 q 313 158 322 101 q 278 245 303 215 q 224 288 253 275 q 169 300 196 300 q 133 299 143 300 q 112 283 113 294 q 118 271 111 271 q 101 282 106 269 q 108 311 97 294 q 114 343 119 329 q 97 350 108 357 q 121 349 108 357 q 133 329 133 340 q 190 339 164 329 q 237 367 214 347 q 274 425 260 388 q 290 485 286 463 q 288 520 293 507 q 273 539 283 533 q 249 547 263 544 q 193 507 218 525 q 149 474 171 490 q 118 451 128 458 q 103 435 108 444 q 99 418 99 426 q 102 404 99 410 q 113 400 106 399 q 78 460 82 392 q 68 486 76 476 q 49 499 60 496 q 30 498 39 501 q 19 486 21 494 q 28 504 17 499 q 51 508 40 510 q 119 558 94 540 q 158 586 143 575 q 175 607 174 596 q 169 617 176 618 q 182 608 179 617 q 183 599 183 604 q 253 568 219 583 q 308 544 281 556 q 351 525 336 532 q 394 522 381 511 q 399 540 408 532 q 408 510 407 538 q 396 446 408 482 q 353 373 383 410 q 271 315 324 336 q 362 267 325 299 q 414 200 399 236 q 420 127 429 164 q 372 64 411 90 q 303 21 333 36 q 248 -3 272 6 q 207 -17 224 -12 q 179 -25 190 -21 z "},"4":{"ha":499,"x_min":7,"x_max":493,"o":"m 50 267 q 69 292 58 278 q 95 327 79 306 q 136 382 111 349 q 200 467 161 415 q 258 548 238 518 q 288 593 279 578 q 294 613 296 608 q 288 615 293 617 q 303 614 294 619 q 315 596 313 608 q 361 563 342 586 q 381 486 381 539 l 381 263 q 433 277 418 268 q 433 297 447 286 q 442 292 440 297 q 442 278 444 286 q 432 263 439 271 q 414 249 425 254 q 464 219 446 239 q 488 178 482 199 q 488 141 493 157 q 468 124 482 125 q 479 138 478 129 q 472 154 481 146 q 443 169 464 163 q 389 175 422 175 l 381 175 l 381 88 q 392 72 386 81 q 401 53 397 63 q 425 67 413 61 q 447 74 436 72 q 469 72 458 76 q 425 51 446 69 q 392 14 404 33 q 378 -18 379 -6 q 392 -22 376 -31 q 372 -35 383 -31 q 349 -38 361 -40 q 324 -26 338 -36 q 297 7 311 -15 q 272 41 283 29 q 250 58 260 53 q 231 65 239 64 q 253 79 243 68 q 269 104 261 88 q 276 149 276 121 l 276 175 l 146 175 q 103 169 119 175 q 82 158 88 164 q 81 145 76 151 q 99 138 85 139 q 67 150 74 131 q 58 210 61 169 q 40 259 57 250 q 7 253 22 268 q 32 269 14 269 q 50 267 40 269 m 276 457 q 273 483 276 474 q 265 497 269 492 q 254 506 260 503 l 68 256 l 276 256 l 276 457 z "},"5":{"ha":429,"x_min":6,"x_max":426,"o":"m 388 90 q 334 35 365 57 q 274 1 303 14 q 203 -22 239 -14 q 203 -38 206 -28 q 189 -46 200 -49 q 197 -38 194 -44 q 188 -25 199 -32 q 169 -12 183 -21 q 135 8 154 -3 q 94 32 115 19 q 57 54 74 44 q 30 64 40 64 q 15 59 19 64 q 13 47 11 54 q 21 36 14 40 q 10 40 15 35 q 7 54 6 44 q 17 77 8 64 q 44 106 25 90 q 72 135 64 122 q 79 158 79 149 q 74 172 79 168 q 64 175 69 176 q 85 173 74 182 q 92 143 97 164 l 215 71 q 238 89 222 81 q 268 83 254 97 q 249 87 258 92 q 233 72 239 82 q 231 48 228 61 q 249 26 233 35 q 283 22 264 18 q 317 44 301 26 q 341 93 332 61 q 347 171 350 125 q 319 248 344 215 q 264 300 293 281 q 188 339 229 324 q 104 284 133 307 q 66 245 75 261 q 63 222 57 229 q 83 213 68 214 q 60 217 68 210 q 51 245 53 224 q 55 307 50 267 q 72 410 60 347 q 92 513 85 472 q 99 578 99 554 q 96 608 100 601 q 81 611 92 615 q 111 613 99 622 q 131 592 124 604 l 315 592 q 369 597 353 592 q 390 608 386 601 q 390 619 394 614 q 381 626 386 625 q 399 597 401 626 q 368 529 397 568 q 350 495 353 510 q 350 471 347 481 q 360 458 353 461 q 374 460 368 456 q 349 460 364 451 q 326 488 333 468 l 117 488 q 99 414 106 449 q 88 351 92 379 q 81 292 82 319 q 104 307 89 296 q 140 331 118 315 q 199 371 163 347 q 250 410 233 394 q 272 433 267 425 q 272 445 276 442 q 261 447 267 449 q 285 442 276 454 q 288 414 293 429 q 376 352 346 393 q 417 265 407 311 q 418 171 426 218 q 388 90 410 124 z "},"6":{"ha":433,"x_min":7,"x_max":431,"o":"m 210 -21 q 133 18 169 -4 q 67 74 96 40 q 23 155 39 108 q 8 265 7 201 q 33 381 10 329 q 88 470 57 432 q 148 535 118 508 q 192 574 178 561 q 210 598 206 588 q 212 616 214 608 q 204 626 210 624 q 193 626 199 629 q 219 622 208 635 q 233 597 231 610 q 276 576 254 588 q 319 556 296 567 q 363 536 342 546 q 394 528 383 526 q 407 538 404 531 q 406 552 410 544 q 396 560 403 560 q 412 552 407 560 q 414 534 417 544 q 400 510 411 524 q 369 488 389 497 q 338 463 349 478 q 326 435 328 449 q 328 414 324 422 q 343 408 332 406 q 319 412 331 401 q 311 450 308 422 l 233 486 q 226 474 232 479 q 215 466 222 469 q 199 465 208 463 q 215 474 208 467 q 222 490 221 481 q 219 508 222 499 q 206 522 215 517 q 177 517 197 528 q 138 474 157 506 q 106 390 118 443 q 97 260 93 338 q 167 306 135 283 q 221 342 194 325 q 258 368 247 360 q 280 394 282 383 q 265 404 278 406 q 297 400 274 407 q 347 377 321 393 q 394 335 372 361 q 424 272 417 308 q 420 197 431 236 q 388 122 410 158 q 335 56 365 86 q 274 7 306 25 q 228 -25 242 -12 q 212 -46 214 -37 q 215 -57 210 -54 q 225 -58 221 -60 q 215 -60 221 -61 q 205 -56 208 -60 q 202 -43 201 -51 q 210 -21 203 -35 m 101 236 q 136 160 111 196 q 199 99 158 129 q 308 58 239 69 q 351 153 346 107 q 350 194 354 172 q 331 236 346 215 q 289 277 317 257 q 217 314 261 297 l 101 236 z "},"7":{"ha":403,"x_min":6,"x_max":440,"o":"m 354 486 q 306 424 328 461 q 268 346 285 388 q 327 340 300 351 q 361 289 354 328 q 317 325 347 321 q 253 306 286 329 q 226 215 238 260 q 208 131 215 169 q 199 66 201 93 q 197 31 196 39 q 217 17 208 24 q 228 0 224 10 q 225 -21 232 -10 q 202 4 228 -1 q 126 -18 176 10 q 56 -41 76 -46 q 36 -10 36 -36 q 44 -26 39 -19 q 56 -33 50 -33 q 67 -22 63 -32 q 74 15 72 -11 q 89 103 75 47 q 147 243 103 160 q 106 253 126 244 q 72 275 86 261 q 52 307 58 289 q 53 346 46 325 q 65 313 51 325 q 99 299 78 301 q 144 300 119 296 q 190 315 169 304 q 249 398 217 354 q 325 490 282 442 l 96 490 q 42 483 60 490 q 21 465 25 475 q 20 447 17 456 q 29 438 24 439 q 10 449 15 439 q 8 476 6 460 q 20 513 11 493 q 44 553 29 533 q 62 587 58 572 q 62 611 65 601 q 51 624 58 621 q 39 622 44 626 q 63 622 49 631 q 85 594 78 614 l 354 594 q 404 599 389 594 q 424 610 419 604 q 424 620 428 615 q 414 626 419 625 q 432 621 424 626 q 438 599 440 615 q 416 556 435 583 q 354 486 397 528 z "},"8":{"ha":426,"x_min":3,"x_max":419,"o":"m 418 181 q 400 111 417 142 q 360 58 383 81 q 310 19 336 35 q 264 -7 283 3 q 222 -45 225 -26 q 239 -58 218 -64 q 224 -64 231 -65 q 213 -57 217 -62 q 208 -44 208 -51 q 213 -31 207 -37 q 172 -23 201 -31 q 108 1 142 -15 q 46 46 75 18 q 10 117 17 74 q 15 190 3 158 q 47 242 28 221 q 100 282 69 267 q 34 338 50 304 q 24 410 18 372 q 54 483 31 447 q 107 544 78 519 q 147 588 136 569 q 160 617 158 606 q 154 631 161 628 q 140 631 147 635 q 165 631 149 642 q 181 597 181 621 q 240 589 208 594 q 300 571 271 583 q 353 538 329 558 q 392 483 378 517 q 394 422 406 450 q 363 374 382 393 q 306 331 339 349 q 364 294 339 317 q 403 247 386 275 q 418 181 419 219 m 90 421 q 119 388 100 399 q 165 372 139 378 q 220 360 190 365 q 279 340 250 354 q 310 362 297 349 q 329 390 324 375 q 333 422 335 406 q 317 454 331 439 q 284 479 303 469 q 249 494 265 489 q 208 503 229 500 q 200 483 211 493 q 174 479 189 474 q 191 488 186 479 q 192 508 196 497 q 178 530 189 519 q 147 540 167 540 q 113 530 128 540 q 90 503 99 519 q 81 465 82 486 q 90 421 81 443 m 281 42 q 319 53 303 42 q 346 85 336 65 q 356 129 356 104 q 347 179 357 154 q 313 217 336 206 q 260 236 290 229 q 196 250 231 243 q 128 274 161 257 q 69 215 85 254 q 85 140 53 176 q 122 112 100 122 q 163 94 143 101 q 210 85 186 88 q 219 107 207 96 q 250 111 232 118 q 229 101 235 113 q 228 77 224 90 q 245 53 232 64 q 281 42 258 42 z "},"9":{"ha":433,"x_min":3,"x_max":426,"o":"m 160 561 q 205 592 192 579 q 220 614 218 606 q 217 625 222 622 q 207 626 211 628 q 227 624 217 632 q 224 589 238 615 q 301 550 264 572 q 365 494 338 528 q 410 413 393 460 q 425 303 426 367 q 400 188 424 239 q 346 97 376 136 q 285 33 315 58 q 242 -6 256 7 q 222 -30 226 -19 q 220 -48 218 -40 q 228 -58 222 -56 q 239 -57 233 -60 q 213 -54 224 -67 q 200 -28 203 -42 q 156 -7 178 -18 q 114 12 136 1 q 71 32 92 22 q 40 40 50 42 q 26 31 29 38 q 27 16 24 24 q 38 8 31 8 q 19 35 14 10 q 64 81 24 60 q 95 105 85 90 q 108 133 106 119 q 105 154 110 146 q 90 160 100 163 q 114 156 103 167 q 122 118 125 146 l 200 82 q 207 94 201 89 q 217 102 211 99 q 233 103 222 106 q 218 94 224 101 q 211 78 213 88 q 214 60 210 69 q 226 46 218 51 q 255 51 235 40 q 294 94 275 63 q 326 178 314 125 q 335 308 339 231 q 267 263 299 283 q 212 226 239 244 q 174 201 185 208 q 152 174 150 185 q 167 164 154 163 q 135 168 158 161 q 87 192 113 175 q 39 234 61 208 q 10 296 17 260 q 13 371 3 332 q 45 446 24 410 q 97 512 67 482 q 160 561 126 542 m 332 332 q 297 408 322 372 q 234 468 275 439 q 125 510 193 497 q 81 417 86 463 q 82 376 78 397 q 101 333 86 354 q 143 291 115 311 q 215 254 171 271 l 332 332 z "},"\u0000":{"ha":0,"x_min":0,"x_max":0,"o":""},"\r":{"ha":139,"x_min":0,"x_max":0,"o":""}," ":{"ha":139,"x_min":0,"x_max":0,"o":""},"Â":{"ha":824,"x_min":-64,"x_max":886,"o":"m 553 890 q 572 911 568 900 q 569 933 575 922 q 551 951 564 943 q 521 963 538 958 q 574 933 563 961 q 572 868 586 906 q 524 792 558 831 q 440 733 490 754 q 331 751 383 753 q 235 730 279 749 q 158 681 192 711 q 102 613 124 650 q 72 538 81 576 q 69 465 63 499 q 92 413 76 431 q 128 387 108 394 q 170 382 149 379 q 208 394 192 385 q 233 417 225 403 q 236 444 242 431 q 228 399 246 421 q 183 370 211 378 q 121 374 154 363 q 64 426 88 385 q 34 519 40 468 q 38 620 28 569 q 74 716 49 671 q 139 792 99 761 q 199 847 178 821 q 228 893 221 874 q 232 924 235 913 q 221 935 229 935 q 253 924 243 940 q 260 897 263 908 q 353 892 307 897 q 438 883 399 888 q 507 879 476 879 q 553 890 538 879 m -6 -239 q -51 -181 -39 -215 q -56 -114 -64 -147 q -21 -51 -47 -81 q 49 -10 6 -22 l 182 207 q 124 222 149 210 q 85 251 99 233 q 69 289 71 268 q 81 331 68 310 q 84 285 71 308 q 124 255 97 263 q 185 262 150 247 q 257 329 221 276 l 340 465 q 362 537 364 504 q 342 592 360 569 q 297 624 325 614 q 242 630 269 635 q 194 602 215 625 q 167 535 172 579 q 176 595 163 567 q 213 646 189 624 q 267 681 236 668 q 332 696 299 694 q 396 685 365 697 q 450 646 426 674 l 457 656 q 519 741 485 703 q 578 813 553 779 q 613 880 604 847 q 596 950 621 913 q 633 913 614 939 q 666 856 651 886 q 689 795 681 825 q 696 749 697 765 q 725 790 706 775 q 764 809 744 806 q 801 806 783 813 q 824 781 818 799 q 792 794 811 794 q 757 774 774 793 q 728 717 740 756 q 717 617 717 678 l 717 -119 q 736 -217 717 -183 q 783 -253 756 -250 q 838 -231 810 -257 q 886 -151 867 -206 q 866 -218 883 -187 q 824 -267 849 -249 q 768 -292 799 -286 q 708 -284 738 -297 q 656 -237 679 -271 q 619 -144 632 -204 q 599 -166 613 -158 q 570 -174 585 -174 q 544 -165 556 -174 q 528 -136 532 -156 q 544 -154 532 -147 q 568 -157 556 -161 q 590 -135 581 -153 q 600 -78 600 -117 l 600 329 q 571 282 590 304 q 532 223 544 251 q 517 175 519 194 q 524 147 515 156 q 547 150 532 139 q 532 139 540 140 q 515 144 524 138 q 500 166 507 150 q 492 208 493 182 l 217 208 l 88 -1 q 164 -7 125 1 q 281 -24 240 -22 q 338 -22 322 -26 q 353 -10 354 -18 q 344 1 351 -3 q 359 -14 356 -3 q 356 -40 363 -25 q 333 -72 350 -56 q 290 -101 317 -89 q 253 -144 264 -114 q 244 -203 242 -174 q 263 -253 247 -232 q 307 -272 279 -275 q 275 -272 292 -276 q 243 -253 258 -267 q 216 -220 228 -240 q 201 -172 204 -200 q 63 -117 119 -125 q -21 -124 7 -108 q -46 -172 -49 -139 q -6 -239 -43 -204 m 288 325 l 393 325 q 503 335 463 325 q 565 360 544 346 q 585 391 585 375 q 577 419 586 407 q 551 438 568 432 q 515 439 533 444 q 567 440 546 450 q 600 407 589 429 l 600 514 q 596 631 600 585 q 586 704 592 676 q 572 754 581 736 q 553 739 565 751 q 526 708 542 728 q 489 653 511 689 l 288 325 m 328 978 l 283 978 l 401 1149 l 425 1149 l 540 978 l 494 978 l 411 1096 l 328 978 z "},"Ä":{"ha":824,"x_min":-64,"x_max":886,"o":"m 553 890 q 572 911 568 900 q 569 933 575 922 q 551 951 564 943 q 521 963 538 958 q 574 933 563 961 q 572 868 586 906 q 524 792 558 831 q 440 733 490 754 q 331 751 383 753 q 235 730 279 749 q 158 681 192 711 q 102 613 124 650 q 72 538 81 576 q 69 465 63 499 q 92 413 76 431 q 128 387 108 394 q 170 382 149 379 q 208 394 192 385 q 233 417 225 403 q 236 444 242 431 q 228 399 246 421 q 183 370 211 378 q 121 374 154 363 q 64 426 88 385 q 34 519 40 468 q 38 620 28 569 q 74 716 49 671 q 139 792 99 761 q 199 847 178 821 q 228 893 221 874 q 232 924 235 913 q 221 935 229 935 q 253 924 243 940 q 260 897 263 908 q 353 892 307 897 q 438 883 399 888 q 507 879 476 879 q 553 890 538 879 m -6 -239 q -51 -181 -39 -215 q -56 -114 -64 -147 q -21 -51 -47 -81 q 49 -10 6 -22 l 182 207 q 124 222 149 210 q 85 251 99 233 q 69 289 71 268 q 81 331 68 310 q 84 285 71 308 q 124 255 97 263 q 185 262 150 247 q 257 329 221 276 l 340 465 q 362 537 364 504 q 342 592 360 569 q 297 624 325 614 q 242 630 269 635 q 194 602 215 625 q 167 535 172 579 q 176 595 163 567 q 213 646 189 624 q 267 681 236 668 q 332 696 299 694 q 396 685 365 697 q 450 646 426 674 l 457 656 q 519 741 485 703 q 578 813 553 779 q 613 880 604 847 q 596 950 621 913 q 633 913 614 939 q 666 856 651 886 q 689 795 681 825 q 696 749 697 765 q 725 790 706 775 q 764 809 744 806 q 801 806 783 813 q 824 781 818 799 q 792 794 811 794 q 757 774 774 793 q 728 717 740 756 q 717 617 717 678 l 717 -119 q 736 -217 717 -183 q 783 -253 756 -250 q 838 -231 810 -257 q 886 -151 867 -206 q 866 -218 883 -187 q 824 -267 849 -249 q 768 -292 799 -286 q 708 -284 738 -297 q 656 -237 679 -271 q 619 -144 632 -204 q 599 -166 613 -158 q 570 -174 585 -174 q 544 -165 556 -174 q 528 -136 532 -156 q 544 -154 532 -147 q 568 -157 556 -161 q 590 -135 581 -153 q 600 -78 600 -117 l 600 329 q 571 282 590 304 q 532 223 544 251 q 517 175 519 194 q 524 147 515 156 q 547 150 532 139 q 532 139 540 140 q 515 144 524 138 q 500 166 507 150 q 492 208 493 182 l 217 208 l 88 -1 q 164 -7 125 1 q 281 -24 240 -22 q 338 -22 322 -26 q 353 -10 354 -18 q 344 1 351 -3 q 359 -14 356 -3 q 356 -40 363 -25 q 333 -72 350 -56 q 290 -101 317 -89 q 253 -144 264 -114 q 244 -203 242 -174 q 263 -253 247 -232 q 307 -272 279 -275 q 275 -272 292 -276 q 243 -253 258 -267 q 216 -220 228 -240 q 201 -172 204 -200 q 63 -117 119 -125 q -21 -124 7 -108 q -46 -172 -49 -139 q -6 -239 -43 -204 m 288 325 l 393 325 q 503 335 463 325 q 565 360 544 346 q 585 391 585 375 q 577 419 586 407 q 551 438 568 432 q 515 439 533 444 q 567 440 546 450 q 600 407 589 429 l 600 514 q 596 631 600 585 q 586 704 592 676 q 572 754 581 736 q 553 739 565 751 q 526 708 542 728 q 489 653 511 689 l 288 325 m 332 976 l 264 1043 l 332 1111 l 399 1043 l 332 976 m 492 976 l 424 1043 l 492 1111 l 558 1043 l 492 976 z "},"À":{"ha":824,"x_min":-64,"x_max":886,"o":"m 553 890 q 572 911 568 900 q 569 933 575 922 q 551 951 564 943 q 521 963 538 958 q 574 933 563 961 q 572 868 586 906 q 524 792 558 831 q 440 733 490 754 q 331 751 383 753 q 235 730 279 749 q 158 681 192 711 q 102 613 124 650 q 72 538 81 576 q 69 465 63 499 q 92 413 76 431 q 128 387 108 394 q 170 382 149 379 q 208 394 192 385 q 233 417 225 403 q 236 444 242 431 q 228 399 246 421 q 183 370 211 378 q 121 374 154 363 q 64 426 88 385 q 34 519 40 468 q 38 620 28 569 q 74 716 49 671 q 139 792 99 761 q 199 847 178 821 q 228 893 221 874 q 232 924 235 913 q 221 935 229 935 q 253 924 243 940 q 260 897 263 908 q 353 892 307 897 q 438 883 399 888 q 507 879 476 879 q 553 890 538 879 m -6 -239 q -51 -181 -39 -215 q -56 -114 -64 -147 q -21 -51 -47 -81 q 49 -10 6 -22 l 182 207 q 124 222 149 210 q 85 251 99 233 q 69 289 71 268 q 81 331 68 310 q 84 285 71 308 q 124 255 97 263 q 185 262 150 247 q 257 329 221 276 l 340 465 q 362 537 364 504 q 342 592 360 569 q 297 624 325 614 q 242 630 269 635 q 194 602 215 625 q 167 535 172 579 q 176 595 163 567 q 213 646 189 624 q 267 681 236 668 q 332 696 299 694 q 396 685 365 697 q 450 646 426 674 l 457 656 q 519 741 485 703 q 578 813 553 779 q 613 880 604 847 q 596 950 621 913 q 633 913 614 939 q 666 856 651 886 q 689 795 681 825 q 696 749 697 765 q 725 790 706 775 q 764 809 744 806 q 801 806 783 813 q 824 781 818 799 q 792 794 811 794 q 757 774 774 793 q 728 717 740 756 q 717 617 717 678 l 717 -119 q 736 -217 717 -183 q 783 -253 756 -250 q 838 -231 810 -257 q 886 -151 867 -206 q 866 -218 883 -187 q 824 -267 849 -249 q 768 -292 799 -286 q 708 -284 738 -297 q 656 -237 679 -271 q 619 -144 632 -204 q 599 -166 613 -158 q 570 -174 585 -174 q 544 -165 556 -174 q 528 -136 532 -156 q 544 -154 532 -147 q 568 -157 556 -161 q 590 -135 581 -153 q 600 -78 600 -117 l 600 329 q 571 282 590 304 q 532 223 544 251 q 517 175 519 194 q 524 147 515 156 q 547 150 532 139 q 532 139 540 140 q 515 144 524 138 q 500 166 507 150 q 492 208 493 182 l 217 208 l 88 -1 q 164 -7 125 1 q 281 -24 240 -22 q 338 -22 322 -26 q 353 -10 354 -18 q 344 1 351 -3 q 359 -14 356 -3 q 356 -40 363 -25 q 333 -72 350 -56 q 290 -101 317 -89 q 253 -144 264 -114 q 244 -203 242 -174 q 263 -253 247 -232 q 307 -272 279 -275 q 275 -272 292 -276 q 243 -253 258 -267 q 216 -220 228 -240 q 201 -172 204 -200 q 63 -117 119 -125 q -21 -124 7 -108 q -46 -172 -49 -139 q -6 -239 -43 -204 m 288 325 l 393 325 q 503 335 463 325 q 565 360 544 346 q 585 391 585 375 q 577 419 586 407 q 551 438 568 432 q 515 439 533 444 q 567 440 546 450 q 600 407 589 429 l 600 514 q 596 631 600 585 q 586 704 592 676 q 572 754 581 736 q 553 739 565 751 q 526 708 542 728 q 489 653 511 689 l 288 325 m 357 1114 l 394 1136 l 467 986 l 451 978 l 357 1114 z "},"Å":{"ha":824,"x_min":-64,"x_max":886,"o":"m 553 890 q 572 911 568 900 q 569 933 575 922 q 551 951 564 943 q 521 963 538 958 q 574 933 563 961 q 572 868 586 906 q 524 792 558 831 q 440 733 490 754 q 331 751 383 753 q 235 730 279 749 q 158 681 192 711 q 102 613 124 650 q 72 538 81 576 q 69 465 63 499 q 92 413 76 431 q 128 387 108 394 q 170 382 149 379 q 208 394 192 385 q 233 417 225 403 q 236 444 242 431 q 228 399 246 421 q 183 370 211 378 q 121 374 154 363 q 64 426 88 385 q 34 519 40 468 q 38 620 28 569 q 74 716 49 671 q 139 792 99 761 q 199 847 178 821 q 228 893 221 874 q 232 924 235 913 q 221 935 229 935 q 253 924 243 940 q 260 897 263 908 q 353 892 307 897 q 438 883 399 888 q 507 879 476 879 q 553 890 538 879 m -6 -239 q -51 -181 -39 -215 q -56 -114 -64 -147 q -21 -51 -47 -81 q 49 -10 6 -22 l 182 207 q 124 222 149 210 q 85 251 99 233 q 69 289 71 268 q 81 331 68 310 q 84 285 71 308 q 124 255 97 263 q 185 262 150 247 q 257 329 221 276 l 340 465 q 362 537 364 504 q 342 592 360 569 q 297 624 325 614 q 242 630 269 635 q 194 602 215 625 q 167 535 172 579 q 176 595 163 567 q 213 646 189 624 q 267 681 236 668 q 332 696 299 694 q 396 685 365 697 q 450 646 426 674 l 457 656 q 519 741 485 703 q 578 813 553 779 q 613 880 604 847 q 596 950 621 913 q 633 913 614 939 q 666 856 651 886 q 689 795 681 825 q 696 749 697 765 q 725 790 706 775 q 764 809 744 806 q 801 806 783 813 q 824 781 818 799 q 792 794 811 794 q 757 774 774 793 q 728 717 740 756 q 717 617 717 678 l 717 -119 q 736 -217 717 -183 q 783 -253 756 -250 q 838 -231 810 -257 q 886 -151 867 -206 q 866 -218 883 -187 q 824 -267 849 -249 q 768 -292 799 -286 q 708 -284 738 -297 q 656 -237 679 -271 q 619 -144 632 -204 q 599 -166 613 -158 q 570 -174 585 -174 q 544 -165 556 -174 q 528 -136 532 -156 q 544 -154 532 -147 q 568 -157 556 -161 q 590 -135 581 -153 q 600 -78 600 -117 l 600 329 q 571 282 590 304 q 532 223 544 251 q 517 175 519 194 q 524 147 515 156 q 547 150 532 139 q 532 139 540 140 q 515 144 524 138 q 500 166 507 150 q 492 208 493 182 l 217 208 l 88 -1 q 164 -7 125 1 q 281 -24 240 -22 q 338 -22 322 -26 q 353 -10 354 -18 q 344 1 351 -3 q 359 -14 356 -3 q 356 -40 363 -25 q 333 -72 350 -56 q 290 -101 317 -89 q 253 -144 264 -114 q 244 -203 242 -174 q 263 -253 247 -232 q 307 -272 279 -275 q 275 -272 292 -276 q 243 -253 258 -267 q 216 -220 228 -240 q 201 -172 204 -200 q 63 -117 119 -125 q -21 -124 7 -108 q -46 -172 -49 -139 q -6 -239 -43 -204 m 288 325 l 393 325 q 503 335 463 325 q 565 360 544 346 q 585 391 585 375 q 577 419 586 407 q 551 438 568 432 q 515 439 533 444 q 567 440 546 450 q 600 407 589 429 l 600 514 q 596 631 600 585 q 586 704 592 676 q 572 754 581 736 q 553 739 565 751 q 526 708 542 728 q 489 653 511 689 l 288 325 m 413 971 q 351 996 376 971 q 326 1056 326 1021 q 351 1117 326 1092 q 413 1142 376 1142 q 472 1117 447 1142 q 497 1056 497 1092 q 472 996 497 1021 q 413 971 447 971 m 413 1108 q 375 1093 390 1108 q 360 1056 360 1078 q 375 1019 360 1035 q 413 1004 390 1004 q 449 1019 433 1004 q 464 1056 464 1035 q 449 1093 464 1078 q 413 1108 433 1108 z "},"Ã":{"ha":824,"x_min":-64,"x_max":886,"o":"m 553 890 q 572 911 568 900 q 569 933 575 922 q 551 951 564 943 q 521 963 538 958 q 574 933 563 961 q 572 868 586 906 q 524 792 558 831 q 440 733 490 754 q 331 751 383 753 q 235 730 279 749 q 158 681 192 711 q 102 613 124 650 q 72 538 81 576 q 69 465 63 499 q 92 413 76 431 q 128 387 108 394 q 170 382 149 379 q 208 394 192 385 q 233 417 225 403 q 236 444 242 431 q 228 399 246 421 q 183 370 211 378 q 121 374 154 363 q 64 426 88 385 q 34 519 40 468 q 38 620 28 569 q 74 716 49 671 q 139 792 99 761 q 199 847 178 821 q 228 893 221 874 q 232 924 235 913 q 221 935 229 935 q 253 924 243 940 q 260 897 263 908 q 353 892 307 897 q 438 883 399 888 q 507 879 476 879 q 553 890 538 879 m -6 -239 q -51 -181 -39 -215 q -56 -114 -64 -147 q -21 -51 -47 -81 q 49 -10 6 -22 l 182 207 q 124 222 149 210 q 85 251 99 233 q 69 289 71 268 q 81 331 68 310 q 84 285 71 308 q 124 255 97 263 q 185 262 150 247 q 257 329 221 276 l 340 465 q 362 537 364 504 q 342 592 360 569 q 297 624 325 614 q 242 630 269 635 q 194 602 215 625 q 167 535 172 579 q 176 595 163 567 q 213 646 189 624 q 267 681 236 668 q 332 696 299 694 q 396 685 365 697 q 450 646 426 674 l 457 656 q 519 741 485 703 q 578 813 553 779 q 613 880 604 847 q 596 950 621 913 q 633 913 614 939 q 666 856 651 886 q 689 795 681 825 q 696 749 697 765 q 725 790 706 775 q 764 809 744 806 q 801 806 783 813 q 824 781 818 799 q 792 794 811 794 q 757 774 774 793 q 728 717 740 756 q 717 617 717 678 l 717 -119 q 736 -217 717 -183 q 783 -253 756 -250 q 838 -231 810 -257 q 886 -151 867 -206 q 866 -218 883 -187 q 824 -267 849 -249 q 768 -292 799 -286 q 708 -284 738 -297 q 656 -237 679 -271 q 619 -144 632 -204 q 599 -166 613 -158 q 570 -174 585 -174 q 544 -165 556 -174 q 528 -136 532 -156 q 544 -154 532 -147 q 568 -157 556 -161 q 590 -135 581 -153 q 600 -78 600 -117 l 600 329 q 571 282 590 304 q 532 223 544 251 q 517 175 519 194 q 524 147 515 156 q 547 150 532 139 q 532 139 540 140 q 515 144 524 138 q 500 166 507 150 q 492 208 493 182 l 217 208 l 88 -1 q 164 -7 125 1 q 281 -24 240 -22 q 338 -22 322 -26 q 353 -10 354 -18 q 344 1 351 -3 q 359 -14 356 -3 q 356 -40 363 -25 q 333 -72 350 -56 q 290 -101 317 -89 q 253 -144 264 -114 q 244 -203 242 -174 q 263 -253 247 -232 q 307 -272 279 -275 q 275 -272 292 -276 q 243 -253 258 -267 q 216 -220 228 -240 q 201 -172 204 -200 q 63 -117 119 -125 q -21 -124 7 -108 q -46 -172 -49 -139 q -6 -239 -43 -204 m 288 325 l 393 325 q 503 335 463 325 q 565 360 544 346 q 585 391 585 375 q 577 419 586 407 q 551 438 568 432 q 515 439 533 444 q 567 440 546 450 q 600 407 589 429 l 600 514 q 596 631 600 585 q 586 704 592 676 q 572 754 581 736 q 553 739 565 751 q 526 708 542 728 q 489 653 511 689 l 288 325 m 347 1015 q 314 1006 324 1018 q 301 971 304 994 q 330 1040 293 1024 q 422 1026 367 1057 q 466 1011 449 1011 q 492 1019 483 1011 q 501 1040 501 1028 q 496 1060 501 1053 q 512 1039 510 1053 q 508 1011 514 1025 q 488 988 501 997 q 456 981 474 979 q 395 999 419 985 q 347 1015 371 1013 z "},"B":{"ha":1008,"x_min":17,"x_max":990,"o":"m 119 792 q 179 847 158 821 q 208 893 200 874 q 212 924 215 913 q 200 935 208 935 q 233 924 224 940 q 239 897 242 908 q 332 892 286 897 q 417 883 378 888 q 487 879 457 879 q 532 890 517 879 q 551 911 547 900 q 549 933 554 922 q 531 951 543 943 q 501 963 518 958 q 554 933 543 961 q 552 868 565 906 q 504 792 539 831 q 419 733 469 754 q 258 760 333 764 q 131 729 183 756 q 51 658 78 703 q 36 563 25 614 q 73 492 46 511 q 127 476 100 474 q 172 497 154 479 q 183 536 190 514 q 180 494 193 511 q 143 473 167 478 q 92 475 119 468 q 47 506 65 482 q 23 565 29 529 q 25 642 17 601 q 56 722 33 682 q 119 792 79 761 m 429 614 q 457 683 429 653 q 518 743 485 713 q 577 811 551 774 q 599 904 603 849 q 779 856 711 904 q 875 735 847 808 q 907 692 889 704 q 939 683 925 681 q 961 697 953 685 q 965 728 969 710 q 969 697 972 713 q 954 670 965 682 q 926 652 943 658 q 893 647 910 646 q 892 611 894 629 q 888 574 890 593 q 847 489 878 519 q 775 435 815 458 l 940 325 q 921 310 929 321 q 908 282 914 300 q 903 232 903 264 l 903 126 q 915 66 903 86 q 941 42 926 46 q 968 51 956 39 q 983 92 981 64 q 978 52 990 75 q 938 2 967 29 q 865 -54 910 -25 q 760 -111 819 -83 q 667 -174 700 -140 q 625 -237 635 -208 q 626 -282 615 -265 q 661 -292 636 -299 q 633 -299 647 -300 q 606 -287 618 -297 q 588 -262 594 -278 q 586 -226 582 -247 q 428 -121 504 -151 q 290 -90 351 -90 q 184 -114 228 -90 q 124 -171 140 -137 q 120 -241 107 -204 q 186 -303 133 -278 q 117 -261 143 -293 q 85 -187 92 -229 q 94 -100 79 -144 q 149 -21 108 -56 q 91 13 117 -11 q 54 71 65 36 q 53 155 39 122 q 92 201 68 188 q 142 212 117 215 q 174 189 167 208 q 140 206 163 204 q 98 193 118 207 q 68 151 78 179 q 72 79 58 122 q 112 12 85 35 q 165 -1 139 -11 q 212 59 192 10 q 232 207 232 108 l 232 238 q 215 314 232 285 q 173 358 197 343 q 121 372 149 372 q 72 357 93 371 q 41 317 51 343 q 42 253 31 290 q 34 323 24 286 q 74 388 44 360 q 144 430 103 415 q 232 433 186 444 l 232 532 q 235 560 232 547 q 242 586 238 574 q 215 601 226 590 q 197 625 203 613 q 191 649 190 638 q 201 668 192 661 q 196 647 193 660 q 211 628 199 635 q 244 626 224 622 q 292 653 264 629 q 372 696 329 683 q 438 704 415 708 q 406 687 422 700 q 378 649 390 674 q 357 586 365 624 q 349 496 349 549 l 349 207 q 338 109 349 150 q 307 40 326 68 q 343 43 326 43 q 375 42 360 43 q 414 101 399 61 q 429 207 429 140 l 429 614 m 546 207 q 514 97 546 140 q 439 31 482 54 q 524 -4 488 18 q 586 -47 561 -26 q 636 -99 615 -72 q 710 -50 676 -76 q 761 6 738 -26 q 785 78 785 38 l 785 247 q 773 329 785 299 q 744 374 761 360 q 705 386 726 388 q 664 374 683 385 q 622 339 640 358 q 590 293 603 319 q 575 209 565 243 q 608 162 585 175 q 658 157 632 149 q 694 200 685 165 q 678 161 694 178 q 638 142 661 144 q 592 153 615 139 q 558 210 569 168 q 562 288 547 250 q 604 359 576 325 q 668 426 632 393 q 735 490 704 458 q 765 543 756 511 q 774 610 775 575 q 761 681 772 646 q 728 745 750 717 q 676 790 707 774 q 604 804 644 806 q 575 757 588 785 q 555 697 564 733 q 546 614 546 661 l 546 207 z "},"C":{"ha":871,"x_min":-75,"x_max":950,"o":"m -57 244 q -66 313 -75 278 q -30 376 -57 349 q 38 419 -3 404 q 122 428 78 435 q 166 540 136 492 q 232 625 196 589 q 211 645 219 632 q 199 672 203 658 q 199 699 196 686 q 213 717 203 711 q 205 697 203 710 q 219 674 207 683 q 253 665 232 665 q 303 683 275 665 q 386 724 351 713 q 282 614 322 681 q 251 548 265 585 q 231 464 238 511 q 229 361 225 417 q 253 239 233 306 q 295 142 268 185 q 357 68 322 100 q 375 113 368 83 q 382 188 382 142 l 382 535 q 374 582 382 567 q 357 604 367 597 q 332 610 346 611 q 397 663 363 640 q 467 705 432 685 q 535 748 501 725 q 596 803 568 771 l 599 807 l 599 806 q 625 842 614 822 q 617 877 613 863 q 632 900 621 892 q 656 910 643 908 q 676 904 669 911 q 656 901 667 908 q 647 876 646 893 q 667 836 649 860 q 736 786 686 813 q 830 763 786 758 q 901 788 874 767 q 933 839 928 808 q 911 896 938 869 q 940 866 929 889 q 944 814 950 843 q 913 753 939 785 q 832 700 886 722 q 762 647 778 676 q 751 595 746 618 q 774 561 756 572 q 807 563 792 550 q 784 551 797 551 q 758 560 771 550 q 735 588 744 569 q 721 635 725 607 q 640 674 668 654 q 599 706 611 693 l 599 -25 q 695 -19 649 -28 q 778 7 742 -11 q 840 51 815 25 q 869 108 864 76 q 858 51 871 78 q 822 -1 844 24 q 768 -51 799 -26 q 704 -97 738 -75 q 666 -137 682 -112 q 642 -187 650 -161 q 635 -237 635 -212 q 645 -278 635 -262 q 676 -300 656 -294 q 731 -292 697 -306 q 681 -312 707 -308 q 635 -305 656 -317 q 601 -266 614 -293 q 590 -193 588 -239 q 381 -108 478 -167 q 217 38 283 -50 q 165 1 194 13 q 109 -6 136 -10 q 62 17 82 -1 q 38 68 42 35 q 64 31 43 46 q 105 24 85 15 q 136 73 125 32 q 132 206 147 114 q 126 226 129 219 q 99 288 118 263 q 56 328 79 314 q 7 344 32 342 q -36 338 -18 347 q -61 305 -54 328 q -57 244 -68 282 m 471 169 q 444 92 471 122 q 385 47 418 61 q 474 0 426 17 q 569 -24 521 -17 l 569 636 q 558 692 569 671 q 534 713 547 714 q 510 685 521 713 q 499 596 499 658 l 499 256 q 506 194 499 215 q 522 165 513 172 q 540 163 531 158 q 553 179 549 168 q 541 155 551 163 q 517 147 531 147 q 491 153 504 147 q 471 169 478 158 m 115 522 q 45 558 63 526 q 36 633 28 590 q 72 719 44 675 q 140 794 100 764 q 201 850 179 824 q 229 896 222 876 q 233 926 236 915 q 222 938 231 938 q 254 927 244 943 q 261 900 264 911 q 354 894 308 900 q 439 885 400 889 q 508 881 478 881 q 553 892 538 881 q 570 934 583 913 q 522 965 557 956 q 576 936 564 964 q 574 871 588 908 q 525 795 560 833 q 440 736 490 757 q 251 783 325 786 q 138 751 178 781 q 80 692 103 726 q 51 623 57 657 q 60 560 46 589 q 115 522 75 532 z "},"Æ":{"ha":1408,"x_min":-93,"x_max":1406,"o":"m 171 -251 q 34 -195 90 -204 q -50 -202 -22 -186 q -75 -251 -78 -218 q -35 -318 -72 -283 q -81 -260 -68 -294 q -85 -192 -93 -226 q -51 -130 -78 -158 q 19 -89 -25 -101 l 151 128 q 94 142 118 131 q 55 172 69 154 q 39 210 40 189 q 50 251 38 231 q 53 206 40 229 q 93 176 67 183 q 155 183 119 168 q 226 250 190 197 l 310 386 q 331 458 333 425 q 312 513 329 490 q 267 545 294 535 q 212 551 239 556 q 163 523 185 546 q 136 457 142 500 q 161 544 131 504 q 238 603 192 583 q 335 616 283 622 q 421 567 386 610 l 426 578 q 489 663 454 625 q 549 734 524 700 q 582 801 574 768 q 565 872 590 835 q 602 834 583 861 q 635 776 621 807 q 658 716 650 746 q 665 669 667 686 q 694 711 675 696 q 734 730 714 726 q 772 726 754 733 q 794 701 789 719 q 766 715 782 714 q 735 703 750 717 q 707 662 719 690 q 690 589 694 633 q 720 588 703 585 q 758 604 738 590 q 842 644 807 633 q 774 585 806 621 q 721 505 746 553 q 686 386 696 457 l 686 267 q 708 161 693 214 q 751 63 724 106 q 813 -11 778 21 q 831 33 824 4 q 838 108 838 63 l 838 456 q 830 503 838 488 q 813 525 822 518 q 788 531 801 532 q 853 583 818 561 q 922 626 888 606 q 990 669 957 646 q 1051 724 1024 692 l 1082 763 q 1074 799 1069 783 q 1088 822 1078 814 q 1112 831 1099 831 q 1132 825 1125 832 q 1112 822 1122 829 q 1103 799 1101 815 q 1123 758 1104 782 q 1192 707 1142 735 q 1285 683 1242 679 q 1356 708 1329 688 q 1388 760 1383 729 q 1367 817 1393 790 q 1395 787 1385 810 q 1400 735 1406 764 q 1369 674 1394 706 q 1289 621 1343 643 q 1218 568 1235 597 q 1206 516 1201 539 q 1229 482 1211 493 q 1264 483 1247 471 q 1240 472 1253 472 q 1214 481 1226 471 q 1191 509 1201 490 q 1178 556 1181 528 q 1096 594 1125 575 q 1054 626 1067 614 l 1054 389 l 1169 389 q 1264 405 1232 389 q 1305 440 1296 421 q 1305 477 1314 460 q 1276 497 1296 494 q 1322 437 1325 492 q 1254 304 1319 382 q 1212 228 1222 267 q 1206 164 1201 190 q 1226 128 1210 138 q 1263 136 1242 118 q 1238 119 1254 122 q 1208 130 1221 117 q 1188 177 1194 143 q 1193 271 1182 211 l 1054 271 l 1054 -104 q 1151 -99 1104 -107 q 1234 -72 1197 -90 q 1295 -28 1271 -54 q 1325 29 1319 -3 q 1313 -28 1326 -1 q 1277 -81 1300 -56 q 1224 -130 1254 -106 q 1160 -176 1193 -154 q 1122 -216 1138 -192 q 1098 -266 1106 -240 q 1090 -316 1090 -292 q 1101 -357 1090 -340 q 1132 -379 1111 -374 q 1186 -371 1153 -385 q 1137 -391 1163 -387 q 1090 -383 1111 -394 q 1057 -345 1069 -372 q 1047 -272 1044 -318 q 869 -206 953 -251 q 722 -97 786 -161 q 617 51 657 -32 q 569 231 576 133 l 569 247 q 558 226 564 236 q 542 204 551 215 q 501 145 514 174 q 488 97 489 117 q 494 68 486 76 q 517 71 501 60 q 501 60 510 61 q 485 65 493 58 q 469 87 476 71 q 461 129 463 103 l 186 129 l 58 -81 q 94 -80 75 -79 q 135 -85 113 -81 q 251 -103 211 -100 q 308 -101 292 -106 q 323 -89 325 -97 q 314 -76 321 -81 q 330 -92 326 -81 q 327 -119 333 -104 q 304 -151 321 -135 q 261 -181 288 -167 q 222 -223 233 -193 q 214 -282 211 -253 q 233 -333 217 -311 q 276 -351 249 -354 q 244 -351 261 -356 q 213 -333 228 -346 q 185 -299 197 -319 q 171 -251 174 -279 m 926 90 q 900 13 926 43 q 840 -32 874 -18 q 929 -79 882 -62 q 1025 -101 976 -96 l 1025 557 q 1014 613 1025 592 q 990 634 1003 635 q 965 606 976 633 q 954 517 954 579 l 954 176 q 961 115 954 136 q 977 88 968 94 q 995 85 986 81 q 1010 100 1004 89 q 997 76 1007 83 q 973 68 986 68 q 947 74 960 68 q 926 90 933 79 m 258 246 l 364 246 q 474 256 433 246 q 535 281 515 267 q 556 312 554 296 q 547 340 557 328 q 520 359 538 353 q 485 360 503 365 q 537 361 515 371 q 569 328 558 351 l 569 435 q 565 551 569 506 q 556 625 561 597 q 542 675 550 657 q 522 660 533 671 q 497 630 511 649 q 460 575 482 611 l 258 246 m 410 654 q 301 672 353 674 q 206 651 249 669 q 128 601 163 632 q 72 534 94 571 q 41 458 50 497 q 39 386 32 419 q 63 333 46 351 q 99 308 79 315 q 141 303 119 300 q 178 315 163 306 q 203 338 194 324 q 207 365 211 351 q 199 320 215 342 q 153 292 182 299 q 90 296 124 285 q 33 347 57 307 q 3 440 10 389 q 8 541 -3 490 q 44 637 18 592 q 110 713 69 682 q 169 769 149 743 q 198 815 190 796 q 202 845 206 835 q 190 856 199 856 q 223 845 214 861 q 229 818 232 829 q 322 813 276 818 q 408 804 368 808 q 477 800 447 800 q 522 811 507 800 q 541 832 538 821 q 539 853 544 843 q 521 872 533 864 q 492 883 508 879 q 544 854 533 882 q 542 789 556 826 q 494 713 529 751 q 410 654 460 675 z "},"Ç":{"ha":871,"x_min":-75,"x_max":950,"o":"m -57 244 q -66 313 -75 278 q -30 376 -57 349 q 38 419 -3 404 q 122 428 78 435 q 166 540 136 492 q 232 625 196 589 q 211 645 219 632 q 199 672 203 658 q 199 699 196 686 q 213 717 203 711 q 205 697 203 710 q 219 674 207 683 q 253 665 232 665 q 303 683 275 665 q 386 724 351 713 q 282 614 322 681 q 251 548 265 585 q 231 464 238 511 q 229 361 225 417 q 253 239 233 306 q 295 142 268 185 q 357 68 322 100 q 375 113 368 83 q 382 188 382 142 l 382 535 q 374 582 382 567 q 357 604 367 597 q 332 610 346 611 q 397 663 363 640 q 467 705 432 685 q 535 748 501 725 q 596 803 568 771 l 599 807 l 599 806 q 625 842 614 822 q 617 877 613 863 q 632 900 621 892 q 656 910 643 908 q 676 904 669 911 q 656 901 667 908 q 647 876 646 893 q 667 836 649 860 q 736 786 686 813 q 830 763 786 758 q 901 788 874 767 q 933 839 928 808 q 911 896 938 869 q 940 866 929 889 q 944 814 950 843 q 913 753 939 785 q 832 700 886 722 q 762 647 778 676 q 751 595 746 618 q 774 561 756 572 q 807 563 792 550 q 784 551 797 551 q 758 560 771 550 q 735 588 744 569 q 721 635 725 607 q 640 674 668 654 q 599 706 611 693 l 599 -25 q 695 -19 649 -28 q 778 7 742 -11 q 840 51 815 25 q 869 108 864 76 q 858 51 871 78 q 822 -1 844 24 q 768 -51 799 -26 q 704 -97 738 -75 q 666 -137 682 -112 q 642 -187 650 -161 q 635 -237 635 -212 q 645 -278 635 -262 q 676 -300 656 -294 q 731 -292 697 -306 q 681 -312 707 -308 q 635 -305 656 -317 q 601 -266 614 -293 q 590 -193 588 -239 q 381 -108 478 -167 q 217 38 283 -50 q 165 1 194 13 q 109 -6 136 -10 q 62 17 82 -1 q 38 68 42 35 q 64 31 43 46 q 105 24 85 15 q 136 73 125 32 q 132 206 147 114 q 126 226 129 219 q 99 288 118 263 q 56 328 79 314 q 7 344 32 342 q -36 338 -18 347 q -61 305 -54 328 q -57 244 -68 282 m 471 169 q 444 92 471 122 q 385 47 418 61 q 474 0 426 17 q 569 -24 521 -17 l 569 636 q 558 692 569 671 q 534 713 547 714 q 510 685 521 713 q 499 596 499 658 l 499 256 q 506 194 499 215 q 522 165 513 172 q 540 163 531 158 q 553 179 549 168 q 541 155 551 163 q 517 147 531 147 q 491 153 504 147 q 471 169 478 158 m 115 522 q 45 558 63 526 q 36 633 28 590 q 72 719 44 675 q 140 794 100 764 q 201 850 179 824 q 229 896 222 876 q 233 926 236 915 q 222 938 231 938 q 254 927 244 943 q 261 900 264 911 q 354 894 308 900 q 439 885 400 889 q 508 881 478 881 q 553 892 538 881 q 570 934 583 913 q 522 965 557 956 q 576 936 564 964 q 574 871 588 908 q 525 795 560 833 q 440 736 490 757 q 251 783 325 786 q 138 751 178 781 q 80 692 103 726 q 51 623 57 657 q 60 560 46 589 q 115 522 75 532 m 431 -85 q 429 -92 429 -85 q 429 -108 429 -99 l 429 -132 q 460 -164 447 -146 q 474 -201 469 -179 q 465 -251 478 -224 q 426 -290 453 -279 q 373 -295 400 -300 q 325 -272 346 -290 q 303 -224 304 -253 q 328 -261 308 -249 q 370 -274 349 -274 q 410 -261 392 -274 q 431 -224 428 -249 q 427 -183 433 -199 q 411 -157 421 -167 q 386 -140 400 -146 l 388 -85 l 410 -85 q 424 -85 418 -85 q 431 -85 431 -86 z "},"D":{"ha":994,"x_min":10,"x_max":983,"o":"m 422 614 q 435 662 422 640 q 468 703 449 683 q 510 744 488 724 q 552 787 533 764 q 583 838 571 810 q 592 904 594 867 q 708 891 658 904 q 793 856 758 878 q 849 806 828 835 q 882 746 871 776 q 906 713 892 721 q 931 706 919 704 q 951 717 943 708 q 957 732 958 725 q 956 710 960 721 q 942 692 951 700 q 921 679 933 685 q 894 674 908 674 l 894 664 l 894 126 q 906 66 894 86 q 933 42 918 46 q 961 51 949 39 q 976 92 974 64 q 972 52 983 75 q 931 2 960 29 q 858 -54 903 -25 q 753 -111 813 -83 q 660 -174 693 -140 q 618 -237 628 -208 q 619 -282 608 -265 q 654 -292 629 -299 q 626 -299 640 -300 q 599 -287 611 -297 q 581 -262 588 -278 q 579 -226 575 -247 q 421 -121 497 -151 q 283 -90 344 -90 q 177 -114 221 -90 q 117 -171 133 -137 q 113 -241 100 -204 q 179 -303 126 -278 q 110 -261 136 -293 q 78 -187 85 -229 q 87 -100 72 -144 q 142 -21 101 -56 q 84 13 110 -11 q 47 71 58 36 q 46 155 32 122 q 85 201 60 188 q 135 212 110 215 q 167 189 160 208 q 133 206 156 204 q 91 193 111 207 q 61 151 71 179 q 64 79 51 122 q 104 12 78 35 q 158 -1 131 -11 q 205 59 185 10 q 225 207 225 108 l 225 238 q 208 314 225 285 q 165 358 190 343 q 113 372 140 372 q 65 357 86 371 q 33 317 43 343 q 35 253 24 290 q 27 323 17 286 q 66 388 38 360 q 137 430 94 415 q 225 433 179 444 l 225 532 q 228 560 225 547 q 235 586 231 574 q 208 601 219 590 q 190 625 196 613 q 184 649 183 638 q 193 668 185 661 q 189 647 186 660 q 204 628 192 635 q 237 626 217 622 q 285 653 257 629 q 365 696 322 683 q 431 704 408 708 q 399 687 415 700 q 371 649 383 674 q 350 586 358 624 q 342 496 342 549 l 342 207 q 331 109 342 150 q 300 40 319 68 q 336 43 319 43 q 368 42 353 43 q 406 101 390 61 q 422 207 422 140 l 422 614 m 539 207 q 507 97 539 140 q 432 31 475 54 q 517 -4 481 18 q 579 -47 554 -26 q 629 -99 608 -72 q 703 -50 669 -76 q 754 6 731 -26 q 778 78 778 38 l 778 601 q 760 711 778 671 q 716 772 743 751 q 658 799 689 793 q 597 804 626 804 q 568 757 581 785 q 548 697 557 733 q 539 614 539 661 l 539 207 m 111 792 q 172 847 151 821 q 201 893 193 874 q 205 924 208 913 q 193 935 201 935 q 225 924 215 940 q 232 897 235 908 q 325 892 279 897 q 410 883 371 888 q 480 879 450 879 q 525 890 510 879 q 544 911 540 900 q 542 933 547 922 q 524 951 536 943 q 494 963 511 958 q 547 933 536 961 q 545 868 558 906 q 497 792 532 831 q 413 733 463 754 q 251 760 326 764 q 124 729 176 756 q 44 658 71 703 q 29 563 18 614 q 66 492 39 511 q 120 476 93 474 q 165 497 147 479 q 176 536 183 514 q 173 494 186 511 q 136 473 160 478 q 85 475 113 468 q 40 506 58 482 q 16 565 22 529 q 18 642 10 601 q 49 722 26 682 q 111 792 71 761 z "},"E":{"ha":907,"x_min":-83,"x_max":942,"o":"m -65 244 q -74 313 -83 278 q -38 376 -65 349 q 29 419 -11 404 q 114 428 69 435 q 158 540 128 492 q 224 625 188 589 q 203 645 211 632 q 192 672 194 658 q 192 699 189 686 q 206 717 196 711 q 197 697 194 710 q 213 674 200 683 q 247 665 225 665 q 296 683 268 665 q 341 708 319 699 q 378 724 363 718 q 274 614 314 681 q 243 548 257 585 q 223 464 229 511 q 221 361 217 417 q 244 239 225 306 q 287 142 260 185 q 350 68 314 100 q 368 113 361 83 q 375 188 375 142 l 375 535 q 367 582 375 567 q 349 604 358 597 q 324 610 338 611 q 390 663 356 640 q 460 705 425 685 q 527 748 494 725 q 589 803 560 771 l 590 807 l 590 806 q 604 822 597 814 q 618 842 611 831 q 610 877 606 863 q 625 900 614 892 q 649 910 636 908 q 669 904 663 911 q 648 901 658 908 q 639 876 638 893 q 660 836 640 860 q 729 786 679 813 q 822 763 779 758 q 892 788 865 767 q 925 839 919 808 q 903 896 931 869 q 931 866 921 889 q 936 814 942 843 q 905 753 931 785 q 825 700 879 722 q 754 647 771 676 q 742 595 738 618 q 765 561 747 572 q 800 563 783 550 q 776 551 790 551 q 750 560 763 550 q 727 588 738 569 q 714 635 717 607 q 632 674 661 654 q 590 706 603 693 l 590 467 l 706 467 q 800 483 768 467 q 841 518 832 499 q 842 555 850 538 q 814 575 833 572 q 850 557 839 572 q 859 516 861 542 q 840 456 857 490 q 792 383 824 422 q 749 308 760 346 q 743 243 739 269 q 763 207 747 217 q 799 215 778 197 q 774 198 790 201 q 744 208 758 194 q 725 256 731 222 q 731 350 719 289 l 590 350 l 590 -25 q 688 -19 640 -28 q 772 7 735 -11 q 833 51 808 25 q 863 108 857 76 q 851 51 864 78 q 815 -1 838 24 q 761 -51 792 -26 q 697 -97 731 -75 q 645 -162 664 -121 q 627 -238 626 -203 q 651 -292 628 -274 q 724 -292 674 -311 q 674 -312 700 -308 q 626 -305 647 -317 q 593 -266 606 -293 q 583 -193 581 -239 q 373 -108 469 -167 q 210 38 276 -50 q 158 1 188 13 q 102 -6 129 -10 q 54 17 75 -1 q 29 68 33 35 q 44 42 33 54 q 69 24 56 29 q 97 24 83 19 q 121 49 111 29 q 133 107 131 69 q 125 206 135 144 q 119 226 122 213 q 72 310 108 281 q -1 344 35 340 q -59 324 -36 349 q -65 244 -82 300 m 463 169 q 436 92 463 122 q 376 47 410 61 q 465 0 418 17 q 561 -24 513 -17 l 561 636 q 550 692 561 671 q 526 713 539 714 q 503 685 514 713 q 492 596 492 658 l 492 256 q 498 194 492 215 q 513 165 504 172 q 531 163 522 158 q 546 179 540 168 q 533 155 543 163 q 509 147 522 147 q 483 153 496 147 q 463 169 469 158 m 133 794 q 193 850 172 824 q 222 896 214 876 q 226 926 229 915 q 214 938 222 938 q 246 927 236 943 q 253 900 256 911 q 346 894 300 900 q 431 885 392 889 q 501 881 471 881 q 546 892 531 881 q 565 913 561 901 q 563 934 568 924 q 544 953 557 944 q 515 965 532 961 q 568 936 557 964 q 566 871 579 908 q 518 795 553 833 q 433 736 483 757 q 244 783 318 786 q 129 751 169 781 q 72 692 94 726 q 43 623 49 657 q 52 560 38 589 q 107 522 67 532 q 38 558 56 526 q 28 633 21 590 q 65 719 36 675 q 133 794 93 764 z "},"É":{"ha":907,"x_min":-83,"x_max":942,"o":"m -65 244 q -74 313 -83 278 q -38 376 -65 349 q 29 419 -11 404 q 114 428 69 435 q 158 540 128 492 q 224 625 188 589 q 203 645 211 632 q 192 672 194 658 q 192 699 189 686 q 206 717 196 711 q 197 697 194 710 q 213 674 200 683 q 247 665 225 665 q 296 683 268 665 q 341 708 319 699 q 378 724 363 718 q 274 614 314 681 q 243 548 257 585 q 223 464 229 511 q 221 361 217 417 q 244 239 225 306 q 287 142 260 185 q 350 68 314 100 q 368 113 361 83 q 375 188 375 142 l 375 535 q 367 582 375 567 q 349 604 358 597 q 324 610 338 611 q 390 663 356 640 q 460 705 425 685 q 527 748 494 725 q 589 803 560 771 l 590 807 l 590 806 q 604 822 597 814 q 618 842 611 831 q 610 877 606 863 q 625 900 614 892 q 649 910 636 908 q 669 904 663 911 q 648 901 658 908 q 639 876 638 893 q 660 836 640 860 q 729 786 679 813 q 822 763 779 758 q 892 788 865 767 q 925 839 919 808 q 903 896 931 869 q 931 866 921 889 q 936 814 942 843 q 905 753 931 785 q 825 700 879 722 q 754 647 771 676 q 742 595 738 618 q 765 561 747 572 q 800 563 783 550 q 776 551 790 551 q 750 560 763 550 q 727 588 738 569 q 714 635 717 607 q 632 674 661 654 q 590 706 603 693 l 590 467 l 706 467 q 800 483 768 467 q 841 518 832 499 q 842 555 850 538 q 814 575 833 572 q 850 557 839 572 q 859 516 861 542 q 840 456 857 490 q 792 383 824 422 q 749 308 760 346 q 743 243 739 269 q 763 207 747 217 q 799 215 778 197 q 774 198 790 201 q 744 208 758 194 q 725 256 731 222 q 731 350 719 289 l 590 350 l 590 -25 q 688 -19 640 -28 q 772 7 735 -11 q 833 51 808 25 q 863 108 857 76 q 851 51 864 78 q 815 -1 838 24 q 761 -51 792 -26 q 697 -97 731 -75 q 645 -162 664 -121 q 627 -238 626 -203 q 651 -292 628 -274 q 724 -292 674 -311 q 674 -312 700 -308 q 626 -305 647 -317 q 593 -266 606 -293 q 583 -193 581 -239 q 373 -108 469 -167 q 210 38 276 -50 q 158 1 188 13 q 102 -6 129 -10 q 54 17 75 -1 q 29 68 33 35 q 44 42 33 54 q 69 24 56 29 q 97 24 83 19 q 121 49 111 29 q 133 107 131 69 q 125 206 135 144 q 119 226 122 213 q 72 310 108 281 q -1 344 35 340 q -59 324 -36 349 q -65 244 -82 300 m 463 169 q 436 92 463 122 q 376 47 410 61 q 465 0 418 17 q 561 -24 513 -17 l 561 636 q 550 692 561 671 q 526 713 539 714 q 503 685 514 713 q 492 596 492 658 l 492 256 q 498 194 492 215 q 513 165 504 172 q 531 163 522 158 q 546 179 540 168 q 533 155 543 163 q 509 147 522 147 q 483 153 496 147 q 463 169 469 158 m 133 794 q 193 850 172 824 q 222 896 214 876 q 226 926 229 915 q 214 938 222 938 q 246 927 236 943 q 253 900 256 911 q 346 894 300 900 q 431 885 392 889 q 501 881 471 881 q 546 892 531 881 q 565 913 561 901 q 563 934 568 924 q 544 953 557 944 q 515 965 532 961 q 568 936 557 964 q 566 871 579 908 q 518 795 553 833 q 433 736 483 757 q 244 783 318 786 q 129 751 169 781 q 72 692 94 726 q 43 623 49 657 q 52 560 38 589 q 107 522 67 532 q 38 558 56 526 q 28 633 21 590 q 65 719 36 675 q 133 794 93 764 m 414 978 l 399 986 l 471 1136 l 508 1114 l 414 978 z "},"Ê":{"ha":907,"x_min":-83,"x_max":942,"o":"m -65 244 q -74 313 -83 278 q -38 376 -65 349 q 29 419 -11 404 q 114 428 69 435 q 158 540 128 492 q 224 625 188 589 q 203 645 211 632 q 192 672 194 658 q 192 699 189 686 q 206 717 196 711 q 197 697 194 710 q 213 674 200 683 q 247 665 225 665 q 296 683 268 665 q 341 708 319 699 q 378 724 363 718 q 274 614 314 681 q 243 548 257 585 q 223 464 229 511 q 221 361 217 417 q 244 239 225 306 q 287 142 260 185 q 350 68 314 100 q 368 113 361 83 q 375 188 375 142 l 375 535 q 367 582 375 567 q 349 604 358 597 q 324 610 338 611 q 390 663 356 640 q 460 705 425 685 q 527 748 494 725 q 589 803 560 771 l 590 807 l 590 806 q 604 822 597 814 q 618 842 611 831 q 610 877 606 863 q 625 900 614 892 q 649 910 636 908 q 669 904 663 911 q 648 901 658 908 q 639 876 638 893 q 660 836 640 860 q 729 786 679 813 q 822 763 779 758 q 892 788 865 767 q 925 839 919 808 q 903 896 931 869 q 931 866 921 889 q 936 814 942 843 q 905 753 931 785 q 825 700 879 722 q 754 647 771 676 q 742 595 738 618 q 765 561 747 572 q 800 563 783 550 q 776 551 790 551 q 750 560 763 550 q 727 588 738 569 q 714 635 717 607 q 632 674 661 654 q 590 706 603 693 l 590 467 l 706 467 q 800 483 768 467 q 841 518 832 499 q 842 555 850 538 q 814 575 833 572 q 850 557 839 572 q 859 516 861 542 q 840 456 857 490 q 792 383 824 422 q 749 308 760 346 q 743 243 739 269 q 763 207 747 217 q 799 215 778 197 q 774 198 790 201 q 744 208 758 194 q 725 256 731 222 q 731 350 719 289 l 590 350 l 590 -25 q 688 -19 640 -28 q 772 7 735 -11 q 833 51 808 25 q 863 108 857 76 q 851 51 864 78 q 815 -1 838 24 q 761 -51 792 -26 q 697 -97 731 -75 q 645 -162 664 -121 q 627 -238 626 -203 q 651 -292 628 -274 q 724 -292 674 -311 q 674 -312 700 -308 q 626 -305 647 -317 q 593 -266 606 -293 q 583 -193 581 -239 q 373 -108 469 -167 q 210 38 276 -50 q 158 1 188 13 q 102 -6 129 -10 q 54 17 75 -1 q 29 68 33 35 q 44 42 33 54 q 69 24 56 29 q 97 24 83 19 q 121 49 111 29 q 133 107 131 69 q 125 206 135 144 q 119 226 122 213 q 72 310 108 281 q -1 344 35 340 q -59 324 -36 349 q -65 244 -82 300 m 463 169 q 436 92 463 122 q 376 47 410 61 q 465 0 418 17 q 561 -24 513 -17 l 561 636 q 550 692 561 671 q 526 713 539 714 q 503 685 514 713 q 492 596 492 658 l 492 256 q 498 194 492 215 q 513 165 504 172 q 531 163 522 158 q 546 179 540 168 q 533 155 543 163 q 509 147 522 147 q 483 153 496 147 q 463 169 469 158 m 133 794 q 193 850 172 824 q 222 896 214 876 q 226 926 229 915 q 214 938 222 938 q 246 927 236 943 q 253 900 256 911 q 346 894 300 900 q 431 885 392 889 q 501 881 471 881 q 546 892 531 881 q 565 913 561 901 q 563 934 568 924 q 544 953 557 944 q 515 965 532 961 q 568 936 557 964 q 566 871 579 908 q 518 795 553 833 q 433 736 483 757 q 244 783 318 786 q 129 751 169 781 q 72 692 94 726 q 43 623 49 657 q 52 560 38 589 q 107 522 67 532 q 38 558 56 526 q 28 633 21 590 q 65 719 36 675 q 133 794 93 764 m 369 978 l 325 978 l 443 1149 l 467 1149 l 582 978 l 536 978 l 453 1096 l 369 978 z "},"Ë":{"ha":907,"x_min":-83,"x_max":942,"o":"m -65 244 q -74 313 -83 278 q -38 376 -65 349 q 29 419 -11 404 q 114 428 69 435 q 158 540 128 492 q 224 625 188 589 q 203 645 211 632 q 192 672 194 658 q 192 699 189 686 q 206 717 196 711 q 197 697 194 710 q 213 674 200 683 q 247 665 225 665 q 296 683 268 665 q 341 708 319 699 q 378 724 363 718 q 274 614 314 681 q 243 548 257 585 q 223 464 229 511 q 221 361 217 417 q 244 239 225 306 q 287 142 260 185 q 350 68 314 100 q 368 113 361 83 q 375 188 375 142 l 375 535 q 367 582 375 567 q 349 604 358 597 q 324 610 338 611 q 390 663 356 640 q 460 705 425 685 q 527 748 494 725 q 589 803 560 771 l 590 807 l 590 806 q 604 822 597 814 q 618 842 611 831 q 610 877 606 863 q 625 900 614 892 q 649 910 636 908 q 669 904 663 911 q 648 901 658 908 q 639 876 638 893 q 660 836 640 860 q 729 786 679 813 q 822 763 779 758 q 892 788 865 767 q 925 839 919 808 q 903 896 931 869 q 931 866 921 889 q 936 814 942 843 q 905 753 931 785 q 825 700 879 722 q 754 647 771 676 q 742 595 738 618 q 765 561 747 572 q 800 563 783 550 q 776 551 790 551 q 750 560 763 550 q 727 588 738 569 q 714 635 717 607 q 632 674 661 654 q 590 706 603 693 l 590 467 l 706 467 q 800 483 768 467 q 841 518 832 499 q 842 555 850 538 q 814 575 833 572 q 850 557 839 572 q 859 516 861 542 q 840 456 857 490 q 792 383 824 422 q 749 308 760 346 q 743 243 739 269 q 763 207 747 217 q 799 215 778 197 q 774 198 790 201 q 744 208 758 194 q 725 256 731 222 q 731 350 719 289 l 590 350 l 590 -25 q 688 -19 640 -28 q 772 7 735 -11 q 833 51 808 25 q 863 108 857 76 q 851 51 864 78 q 815 -1 838 24 q 761 -51 792 -26 q 697 -97 731 -75 q 645 -162 664 -121 q 627 -238 626 -203 q 651 -292 628 -274 q 724 -292 674 -311 q 674 -312 700 -308 q 626 -305 647 -317 q 593 -266 606 -293 q 583 -193 581 -239 q 373 -108 469 -167 q 210 38 276 -50 q 158 1 188 13 q 102 -6 129 -10 q 54 17 75 -1 q 29 68 33 35 q 44 42 33 54 q 69 24 56 29 q 97 24 83 19 q 121 49 111 29 q 133 107 131 69 q 125 206 135 144 q 119 226 122 213 q 72 310 108 281 q -1 344 35 340 q -59 324 -36 349 q -65 244 -82 300 m 463 169 q 436 92 463 122 q 376 47 410 61 q 465 0 418 17 q 561 -24 513 -17 l 561 636 q 550 692 561 671 q 526 713 539 714 q 503 685 514 713 q 492 596 492 658 l 492 256 q 498 194 492 215 q 513 165 504 172 q 531 163 522 158 q 546 179 540 168 q 533 155 543 163 q 509 147 522 147 q 483 153 496 147 q 463 169 469 158 m 133 794 q 193 850 172 824 q 222 896 214 876 q 226 926 229 915 q 214 938 222 938 q 246 927 236 943 q 253 900 256 911 q 346 894 300 900 q 431 885 392 889 q 501 881 471 881 q 546 892 531 881 q 565 913 561 901 q 563 934 568 924 q 544 953 557 944 q 515 965 532 961 q 568 936 557 964 q 566 871 579 908 q 518 795 553 833 q 433 736 483 757 q 244 783 318 786 q 129 751 169 781 q 72 692 94 726 q 43 623 49 657 q 52 560 38 589 q 107 522 67 532 q 38 558 56 526 q 28 633 21 590 q 65 719 36 675 q 133 794 93 764 m 374 976 l 306 1043 l 374 1111 l 440 1043 l 374 976 m 533 976 l 465 1043 l 533 1111 l 600 1043 l 533 976 z "},"È":{"ha":907,"x_min":-83,"x_max":942,"o":"m -65 244 q -74 313 -83 278 q -38 376 -65 349 q 29 419 -11 404 q 114 428 69 435 q 158 540 128 492 q 224 625 188 589 q 203 645 211 632 q 192 672 194 658 q 192 699 189 686 q 206 717 196 711 q 197 697 194 710 q 213 674 200 683 q 247 665 225 665 q 296 683 268 665 q 341 708 319 699 q 378 724 363 718 q 274 614 314 681 q 243 548 257 585 q 223 464 229 511 q 221 361 217 417 q 244 239 225 306 q 287 142 260 185 q 350 68 314 100 q 368 113 361 83 q 375 188 375 142 l 375 535 q 367 582 375 567 q 349 604 358 597 q 324 610 338 611 q 390 663 356 640 q 460 705 425 685 q 527 748 494 725 q 589 803 560 771 l 590 807 l 590 806 q 604 822 597 814 q 618 842 611 831 q 610 877 606 863 q 625 900 614 892 q 649 910 636 908 q 669 904 663 911 q 648 901 658 908 q 639 876 638 893 q 660 836 640 860 q 729 786 679 813 q 822 763 779 758 q 892 788 865 767 q 925 839 919 808 q 903 896 931 869 q 931 866 921 889 q 936 814 942 843 q 905 753 931 785 q 825 700 879 722 q 754 647 771 676 q 742 595 738 618 q 765 561 747 572 q 800 563 783 550 q 776 551 790 551 q 750 560 763 550 q 727 588 738 569 q 714 635 717 607 q 632 674 661 654 q 590 706 603 693 l 590 467 l 706 467 q 800 483 768 467 q 841 518 832 499 q 842 555 850 538 q 814 575 833 572 q 850 557 839 572 q 859 516 861 542 q 840 456 857 490 q 792 383 824 422 q 749 308 760 346 q 743 243 739 269 q 763 207 747 217 q 799 215 778 197 q 774 198 790 201 q 744 208 758 194 q 725 256 731 222 q 731 350 719 289 l 590 350 l 590 -25 q 688 -19 640 -28 q 772 7 735 -11 q 833 51 808 25 q 863 108 857 76 q 851 51 864 78 q 815 -1 838 24 q 761 -51 792 -26 q 697 -97 731 -75 q 645 -162 664 -121 q 627 -238 626 -203 q 651 -292 628 -274 q 724 -292 674 -311 q 674 -312 700 -308 q 626 -305 647 -317 q 593 -266 606 -293 q 583 -193 581 -239 q 373 -108 469 -167 q 210 38 276 -50 q 158 1 188 13 q 102 -6 129 -10 q 54 17 75 -1 q 29 68 33 35 q 44 42 33 54 q 69 24 56 29 q 97 24 83 19 q 121 49 111 29 q 133 107 131 69 q 125 206 135 144 q 119 226 122 213 q 72 310 108 281 q -1 344 35 340 q -59 324 -36 349 q -65 244 -82 300 m 463 169 q 436 92 463 122 q 376 47 410 61 q 465 0 418 17 q 561 -24 513 -17 l 561 636 q 550 692 561 671 q 526 713 539 714 q 503 685 514 713 q 492 596 492 658 l 492 256 q 498 194 492 215 q 513 165 504 172 q 531 163 522 158 q 546 179 540 168 q 533 155 543 163 q 509 147 522 147 q 483 153 496 147 q 463 169 469 158 m 133 794 q 193 850 172 824 q 222 896 214 876 q 226 926 229 915 q 214 938 222 938 q 246 927 236 943 q 253 900 256 911 q 346 894 300 900 q 431 885 392 889 q 501 881 471 881 q 546 892 531 881 q 565 913 561 901 q 563 934 568 924 q 544 953 557 944 q 515 965 532 961 q 568 936 557 964 q 566 871 579 908 q 518 795 553 833 q 433 736 483 757 q 244 783 318 786 q 129 751 169 781 q 72 692 94 726 q 43 623 49 657 q 52 560 38 589 q 107 522 67 532 q 38 558 56 526 q 28 633 21 590 q 65 719 36 675 q 133 794 93 764 m 399 1114 l 436 1136 l 508 986 l 493 978 l 399 1114 z "},"Ð":{"ha":994,"x_min":10,"x_max":983,"o":"m 422 614 q 435 662 422 640 q 468 703 449 683 q 510 744 488 724 q 552 787 533 764 q 583 838 571 810 q 592 904 594 867 q 708 891 658 904 q 793 856 758 878 q 849 806 828 835 q 882 746 871 776 q 906 713 892 721 q 931 706 919 704 q 951 717 943 708 q 957 732 958 725 q 956 710 960 721 q 942 692 951 700 q 921 679 933 685 q 894 674 908 674 l 894 664 l 894 126 q 906 66 894 86 q 933 42 918 46 q 961 51 949 39 q 976 92 974 64 q 972 52 983 75 q 931 2 960 29 q 858 -54 903 -25 q 753 -111 813 -83 q 660 -174 693 -140 q 618 -237 628 -208 q 619 -282 608 -265 q 654 -292 629 -299 q 626 -299 640 -300 q 599 -287 611 -297 q 581 -262 588 -278 q 579 -226 575 -247 q 421 -121 497 -151 q 283 -90 344 -90 q 177 -114 221 -90 q 117 -171 133 -137 q 113 -241 100 -204 q 179 -303 126 -278 q 110 -261 136 -293 q 78 -187 85 -229 q 87 -100 72 -144 q 142 -21 101 -56 q 84 13 110 -11 q 47 71 58 36 q 46 155 32 122 q 85 201 60 188 q 135 212 110 215 q 167 189 160 208 q 133 206 156 204 q 91 193 111 207 q 61 151 71 179 q 64 79 51 122 q 104 12 78 35 q 158 -1 131 -11 q 205 59 185 10 q 225 207 225 108 l 225 238 q 208 314 225 285 q 165 358 190 343 q 113 372 140 372 q 65 357 86 371 q 33 317 43 343 q 35 253 24 290 q 27 323 17 286 q 66 388 38 360 q 137 430 94 415 q 225 433 179 444 l 225 532 q 228 560 225 547 q 235 586 231 574 q 208 601 219 590 q 190 625 196 613 q 184 649 183 638 q 193 668 185 661 q 189 647 186 660 q 204 628 192 635 q 237 626 217 622 q 285 653 257 629 q 365 696 322 683 q 431 704 408 708 q 399 687 415 700 q 371 649 383 674 q 350 586 358 624 q 342 496 342 549 l 342 207 q 331 109 342 150 q 300 40 319 68 q 336 43 319 43 q 368 42 353 43 q 406 101 390 61 q 422 207 422 140 l 422 614 m 539 207 q 507 97 539 140 q 432 31 475 54 q 517 -4 481 18 q 579 -47 554 -26 q 629 -99 608 -72 q 703 -50 669 -76 q 754 6 731 -26 q 778 78 778 38 l 778 601 q 760 711 778 671 q 716 772 743 751 q 658 799 689 793 q 597 804 626 804 q 568 757 581 785 q 548 697 557 733 q 539 614 539 661 l 539 207 m 111 792 q 172 847 151 821 q 201 893 193 874 q 205 924 208 913 q 193 935 201 935 q 225 924 215 940 q 232 897 235 908 q 325 892 279 897 q 410 883 371 888 q 480 879 450 879 q 525 890 510 879 q 544 911 540 900 q 542 933 547 922 q 524 951 536 943 q 494 963 511 958 q 547 933 536 961 q 545 868 558 906 q 497 792 532 831 q 413 733 463 754 q 251 760 326 764 q 124 729 176 756 q 44 658 71 703 q 29 563 18 614 q 66 492 39 511 q 120 476 93 474 q 165 497 147 479 q 176 536 183 514 q 173 494 186 511 q 136 473 160 478 q 85 475 113 468 q 40 506 58 482 q 16 565 22 529 q 18 642 10 601 q 49 722 26 682 q 111 792 71 761 m 703 406 q 708 401 706 406 q 708 391 711 396 q 694 382 704 386 q 661 378 683 378 l 317 378 q 299 396 310 393 q 282 392 289 399 q 293 392 288 396 q 301 381 299 389 q 303 363 304 374 q 296 343 303 353 q 284 319 289 332 q 277 295 279 307 q 278 276 275 283 q 290 267 281 268 q 285 272 288 267 q 285 281 282 276 q 298 290 288 286 q 332 294 308 294 l 676 294 q 693 276 683 279 q 710 281 703 274 q 699 279 704 276 q 690 290 693 282 q 689 309 688 299 q 697 329 690 319 q 709 352 704 339 q 716 376 714 365 q 715 396 718 388 q 703 406 713 404 z "},"€":{"ha":474,"x_min":-42,"x_max":493,"o":"m 318 22 q 214 50 260 26 q 138 113 174 69 q 92 235 101 156 l 15 235 q -17 231 -7 235 q -31 221 -28 226 q -32 211 -35 215 q -26 207 -29 207 q -39 215 -36 207 q -40 235 -42 224 q -33 259 -37 246 q -21 282 -28 272 q -12 303 -14 292 q -14 322 -11 314 q -22 333 -17 329 q -33 332 -28 336 q -16 335 -26 339 q 0 317 -6 332 l 89 317 l 89 378 l 15 378 q -17 374 -7 378 q -31 365 -28 369 q -32 355 -35 360 q -26 350 -29 350 q -39 359 -36 351 q -40 378 -42 367 q -33 403 -37 390 q -21 426 -28 415 q -12 447 -14 436 q -14 465 -11 457 q -22 476 -17 472 q -33 475 -28 479 q -16 479 -26 482 q 0 461 -6 476 l 89 461 l 89 525 q 58 541 69 529 q 43 567 47 553 q 42 594 39 581 q 53 617 44 608 q 48 591 47 604 q 58 569 49 578 q 84 557 67 560 q 129 563 101 554 q 181 584 157 569 q 225 614 206 599 q 267 651 247 631 q 286 608 269 631 q 324 569 303 586 q 369 543 346 553 q 408 538 393 533 q 324 501 363 503 q 256 510 285 499 q 193 550 221 522 l 193 461 l 344 461 q 378 465 367 461 q 392 474 389 469 q 392 484 394 479 q 388 489 390 489 q 399 479 396 488 q 399 460 401 471 q 392 435 397 449 q 381 413 388 422 q 373 392 374 403 q 375 374 372 382 q 383 363 378 365 q 394 364 388 360 q 377 360 388 357 q 361 378 367 363 l 193 378 l 193 317 l 344 317 q 378 321 367 317 q 392 331 389 325 q 392 340 394 336 q 388 344 390 344 q 399 336 396 344 q 399 316 401 328 q 392 292 397 304 q 381 269 388 279 q 373 248 374 258 q 375 230 372 238 q 383 219 378 222 q 394 219 388 215 q 377 216 388 213 q 361 235 367 219 l 197 235 q 236 163 207 181 q 301 149 265 144 q 374 176 338 154 q 436 226 411 199 q 467 280 463 257 q 463 316 471 303 q 440 330 454 329 q 415 318 425 331 q 438 339 424 335 q 465 335 451 343 q 485 311 478 328 q 488 271 493 294 q 437 192 476 222 q 344 128 397 161 q 294 82 304 101 q 290 49 285 63 q 318 22 296 33 z "},"F":{"ha":814,"x_min":-18,"x_max":956,"o":"m 146 794 q 206 850 185 824 q 235 896 228 876 q 239 926 242 915 q 228 938 236 938 q 260 927 250 943 q 267 900 269 911 q 360 894 314 900 q 444 885 406 889 q 514 881 483 881 q 560 892 544 881 q 578 913 575 901 q 576 934 582 924 q 558 953 571 944 q 528 965 544 961 q 581 936 569 964 q 579 871 593 908 q 531 795 565 833 q 447 736 497 757 q 257 783 331 786 q 143 751 183 781 q 85 692 108 726 q 57 623 63 657 q 66 560 51 589 q 121 522 81 532 q 51 558 68 526 q 42 633 33 590 q 78 719 50 675 q 146 794 106 764 m 0 253 q -8 323 -18 286 q 32 388 3 360 q 103 430 61 415 q 190 433 144 444 l 190 532 q 201 586 190 560 q 173 601 185 590 q 155 625 161 613 q 149 649 149 638 q 160 668 150 661 q 154 647 151 660 q 169 628 157 635 q 203 626 182 622 q 251 653 224 629 q 290 678 269 668 q 331 695 311 689 q 369 703 351 701 q 397 704 386 706 q 366 687 382 700 q 338 649 350 674 q 317 586 325 624 q 308 496 308 549 l 308 207 q 297 110 308 151 q 267 42 286 69 q 299 42 283 43 q 331 39 315 42 q 371 97 354 57 q 388 207 388 138 l 388 535 q 380 582 388 567 q 363 604 372 597 q 338 610 351 611 q 412 669 372 644 q 490 717 451 693 q 565 769 529 740 q 631 842 601 797 q 622 877 618 863 q 638 900 626 892 q 662 910 649 908 q 682 904 675 911 q 662 901 672 908 q 653 876 651 893 q 673 836 654 860 q 742 786 692 813 q 835 763 792 758 q 906 788 879 767 q 938 839 933 808 q 917 896 943 869 q 945 866 935 889 q 950 814 956 843 q 918 753 944 785 q 838 700 892 722 q 767 647 783 676 q 756 595 751 618 q 779 561 761 572 q 813 563 797 550 q 790 551 803 551 q 763 560 776 550 q 740 588 750 569 q 726 635 731 607 q 656 668 685 650 q 611 701 628 686 q 579 738 590 719 q 560 731 572 733 q 535 716 547 728 q 513 677 522 704 q 504 596 504 650 l 504 410 l 600 410 q 694 426 663 410 q 735 461 726 442 q 735 498 744 481 q 707 518 726 515 q 743 500 732 515 q 752 458 754 485 q 733 398 750 432 q 685 326 717 364 q 642 251 653 289 q 636 186 632 213 q 656 150 640 160 q 693 158 672 140 q 668 141 685 144 q 638 151 651 138 q 619 199 625 165 q 624 293 613 232 l 504 293 l 504 207 q 467 90 504 136 q 385 24 431 44 q 462 -18 429 7 q 514 -64 494 -43 l 517 -67 q 540 -78 529 -79 q 558 -67 551 -76 q 568 -42 565 -57 q 567 -15 571 -28 q 575 -51 578 -32 q 562 -94 572 -71 q 538 -147 551 -118 q 517 -212 525 -176 q 519 -274 511 -249 q 565 -292 526 -299 q 539 -299 553 -300 q 515 -287 525 -297 q 499 -262 504 -278 q 497 -226 493 -247 q 354 -121 424 -151 q 229 -90 285 -90 q 134 -114 174 -90 q 79 -171 94 -137 q 76 -241 64 -204 q 135 -303 88 -278 q 72 -260 96 -293 q 44 -186 49 -228 q 53 -99 39 -144 q 103 -19 67 -54 q 47 15 71 -8 q 13 71 24 38 q 12 155 -3 122 q 51 201 26 188 q 101 212 76 215 q 132 189 126 208 q 99 206 121 204 q 56 193 76 207 q 26 151 36 179 q 31 79 17 122 q 70 12 43 35 q 124 -1 97 -11 q 170 59 150 10 q 190 207 190 108 l 190 238 q 173 314 190 285 q 131 358 156 343 q 79 372 107 372 q 31 357 51 371 q -1 317 10 343 q 0 253 -11 290 z "},"G":{"ha":1046,"x_min":-81,"x_max":1049,"o":"m 947 83 q 963 -43 947 -4 q 998 -88 979 -82 q 1033 -78 1017 -94 q 1049 -40 1049 -62 q 1024 -93 1049 -76 q 963 -103 999 -110 q 892 -68 928 -97 q 833 18 856 -39 q 775 -42 810 -14 q 700 -97 740 -69 q 648 -162 667 -121 q 630 -238 629 -203 q 653 -292 631 -274 q 726 -292 676 -311 q 676 -312 703 -308 q 629 -305 650 -317 q 596 -266 608 -293 q 586 -193 583 -239 q 376 -108 472 -167 q 213 38 279 -50 q 161 1 190 13 q 105 -6 132 -10 q 57 17 78 -1 q 32 68 36 35 q 47 42 36 54 q 72 24 58 29 q 100 24 86 19 q 124 49 114 29 q 135 107 133 69 q 128 206 138 144 q 122 226 125 213 q 74 310 111 281 q 2 344 38 340 q -56 324 -33 349 q -62 244 -79 300 q -72 313 -81 278 q -35 376 -62 349 q 32 419 -8 404 q 117 428 72 435 q 160 540 131 492 q 226 625 190 589 q 206 645 214 632 q 194 672 197 658 q 195 699 192 686 q 208 717 199 711 q 200 697 197 710 q 215 674 203 683 q 249 665 228 665 q 297 683 269 665 q 343 708 321 699 q 381 724 365 718 q 276 614 317 681 q 246 548 260 585 q 226 464 232 511 q 224 361 219 417 q 247 239 228 306 q 290 142 263 185 q 353 68 317 100 q 371 113 364 83 q 378 188 378 142 l 378 535 q 369 582 378 567 q 351 604 361 597 q 326 610 340 611 q 393 663 358 640 q 463 705 428 685 q 530 748 497 725 q 592 803 563 771 l 593 807 l 593 806 q 607 822 600 814 q 621 842 614 831 q 613 877 608 863 q 627 900 617 892 q 651 910 638 908 q 671 904 664 911 q 651 901 661 908 q 642 876 640 893 q 663 836 643 860 q 732 786 682 813 q 825 763 782 758 q 895 788 868 767 q 928 839 922 808 q 906 896 933 869 q 934 866 924 889 q 939 814 944 843 q 908 753 933 785 q 828 700 882 722 q 757 647 774 676 q 745 595 740 618 q 768 561 750 572 q 803 563 786 550 q 779 551 793 551 q 753 560 765 550 q 730 588 740 569 q 717 635 719 607 q 635 674 664 654 q 593 706 606 693 l 593 -25 q 730 -10 667 -29 q 829 44 793 8 l 829 343 q 818 392 829 376 q 794 410 807 407 q 771 406 782 413 q 760 389 760 400 q 766 222 771 290 q 747 113 761 154 q 713 53 733 72 q 673 33 693 35 q 637 43 653 31 q 614 76 621 56 q 648 42 625 49 q 692 54 671 36 q 725 115 713 72 q 729 228 738 157 q 705 340 721 299 q 672 404 689 382 q 632 439 653 429 l 988 439 q 967 413 975 429 q 953 374 960 397 q 947 315 947 351 l 947 83 m 564 636 q 553 692 564 671 q 529 713 542 714 q 506 685 517 713 q 494 596 494 658 l 494 256 q 501 194 494 215 q 516 165 507 172 q 534 163 525 158 q 549 179 543 168 q 535 155 546 163 q 512 147 525 147 q 485 153 499 147 q 465 169 472 158 q 439 92 465 122 q 379 47 413 61 q 468 0 421 17 q 564 -24 515 -17 l 564 636 m 136 794 q 196 850 175 824 q 224 896 217 876 q 228 926 232 915 q 217 938 225 938 q 249 927 239 943 q 256 900 258 911 q 349 894 303 900 q 433 885 394 889 q 503 881 472 881 q 549 892 533 881 q 567 913 564 901 q 565 934 571 924 q 547 953 560 944 q 518 965 535 961 q 571 936 560 964 q 569 871 582 908 q 521 795 556 833 q 436 736 486 757 q 247 783 321 786 q 132 751 172 781 q 74 692 97 726 q 46 623 51 657 q 55 560 40 589 q 110 522 69 532 q 41 558 58 526 q 31 633 24 590 q 67 719 39 675 q 136 794 96 764 z "},"H":{"ha":944,"x_min":-24,"x_max":1032,"o":"m 674 -136 q 690 -154 678 -147 q 714 -157 701 -161 q 736 -135 726 -153 q 746 -78 746 -117 l 746 379 q 738 369 742 374 q 729 358 735 364 q 690 299 703 328 q 676 251 678 271 q 682 222 674 231 q 706 225 690 214 q 690 215 699 217 q 674 219 682 213 q 658 242 665 226 q 650 283 651 258 l 506 283 l 506 207 q 469 90 506 136 q 386 24 432 44 q 463 -18 431 7 q 515 -64 496 -43 l 518 -67 q 542 -78 531 -79 q 560 -67 553 -76 q 569 -42 567 -57 q 568 -15 572 -28 q 576 -51 579 -32 q 563 -94 574 -71 q 540 -147 553 -118 q 518 -212 526 -176 q 520 -274 513 -249 q 567 -292 528 -299 q 540 -299 554 -300 q 516 -287 526 -297 q 500 -262 506 -278 q 499 -226 494 -247 q 356 -121 425 -151 q 231 -90 286 -90 q 135 -114 175 -90 q 81 -171 96 -137 q 77 -241 65 -204 q 136 -303 89 -278 q 74 -260 97 -293 q 44 -186 50 -228 q 53 -99 39 -144 q 104 -19 68 -54 q 49 15 72 -8 q 14 71 25 38 q 13 155 -1 122 q 53 201 28 188 q 103 212 78 215 q 133 189 128 208 q 100 206 122 204 q 58 193 78 207 q 29 151 39 179 q 32 79 19 122 q 72 12 44 35 q 125 -1 99 -11 q 172 59 151 10 q 192 207 192 108 l 192 238 q 174 314 192 285 q 133 358 157 343 q 81 372 108 372 q 32 357 53 371 q 1 317 11 343 q 1 253 -10 290 q -6 323 -17 286 q 33 388 4 360 q 104 430 63 415 q 192 433 146 444 l 192 532 q 203 586 192 560 q 174 601 186 590 q 156 625 163 613 q 151 649 150 638 q 161 668 151 661 q 156 647 153 660 q 171 628 158 635 q 204 626 183 622 q 253 653 225 629 q 292 678 271 668 q 332 695 313 689 q 369 703 351 701 q 397 704 386 706 q 367 687 382 700 q 339 649 351 674 q 318 586 326 624 q 310 496 310 549 l 310 207 q 299 110 310 151 q 268 42 288 69 q 332 39 300 43 q 372 97 356 57 q 389 207 389 138 l 389 614 q 402 662 389 640 q 435 703 415 683 q 478 744 456 724 q 520 787 501 764 q 551 838 539 810 q 560 904 563 867 q 568 831 575 861 q 547 772 561 801 q 519 706 533 742 q 506 614 506 669 l 506 401 l 553 401 q 663 411 622 401 q 724 435 704 421 q 744 467 743 450 q 736 496 746 483 q 709 514 726 508 q 674 514 692 519 q 715 518 697 522 q 746 501 733 514 l 746 639 q 735 759 746 713 q 708 831 724 806 q 672 864 692 857 q 636 866 653 871 q 608 849 619 861 q 596 822 597 836 q 626 872 596 858 q 695 876 656 886 q 774 830 735 865 q 831 732 813 794 q 858 766 840 756 q 892 776 875 776 q 925 767 910 776 q 944 744 940 758 q 916 765 931 761 q 890 758 901 768 q 870 722 878 747 q 863 657 863 697 l 863 -119 q 882 -217 863 -183 q 928 -253 901 -250 q 984 -231 956 -257 q 1032 -151 1013 -206 q 1012 -218 1029 -187 q 969 -267 994 -249 q 913 -292 943 -286 q 853 -284 882 -297 q 801 -237 825 -271 q 764 -144 776 -204 q 744 -166 757 -158 q 716 -174 731 -174 q 690 -165 701 -174 q 674 -136 678 -156 m 79 792 q 139 847 118 821 q 167 893 160 874 q 172 924 175 913 q 160 935 168 935 q 192 924 183 940 q 199 897 201 908 q 292 892 246 897 q 377 883 338 888 q 447 879 417 879 q 492 890 476 879 q 510 911 507 900 q 508 933 514 922 q 490 951 503 943 q 461 963 478 958 q 514 933 503 961 q 512 868 525 906 q 464 792 499 831 q 379 733 429 754 q 218 760 293 764 q 90 729 143 756 q 11 658 38 703 q -4 563 -15 614 q 33 492 6 511 q 88 476 61 474 q 133 497 115 479 q 143 536 151 514 q 140 494 153 511 q 103 473 126 478 q 52 475 79 468 q 7 506 25 482 q -17 565 -11 529 q -15 642 -24 601 q 16 722 -7 682 q 79 792 39 761 z "},"I":{"ha":569,"x_min":-28,"x_max":575,"o":"m 75 792 q 135 847 114 821 q 163 893 156 874 q 168 924 171 913 q 157 935 165 935 q 188 924 179 940 q 194 897 197 908 q 288 892 242 897 q 373 883 333 888 q 442 879 413 879 q 488 890 472 879 q 505 933 518 911 q 457 963 492 954 q 510 933 499 961 q 508 868 521 906 q 460 792 494 831 q 375 733 425 754 q 214 760 289 764 q 86 729 139 756 q 7 658 33 703 q -8 563 -19 614 q 29 492 1 511 q 84 476 57 474 q 129 497 111 479 q 140 536 147 514 q 135 494 149 511 q 99 473 122 478 q 48 475 75 468 q 3 506 21 482 q -22 565 -15 529 q -19 642 -28 601 q 12 722 -11 682 q 75 792 35 761 m 385 614 q 398 662 385 640 q 431 703 411 683 q 474 744 451 724 q 516 787 497 764 q 547 838 535 810 q 556 904 558 867 q 565 831 571 861 q 544 772 558 801 q 517 706 531 742 q 503 614 503 669 l 503 207 q 465 90 503 136 q 382 24 428 44 q 459 -18 426 7 q 511 -64 492 -43 q 515 -67 514 -67 q 538 -78 528 -79 q 556 -67 549 -76 q 565 -42 563 -57 q 564 -15 568 -28 q 572 -51 575 -32 q 559 -94 569 -71 q 535 -147 549 -118 q 514 -212 522 -176 q 516 -274 508 -249 q 563 -292 524 -299 q 536 -299 550 -300 q 512 -287 522 -297 q 496 -262 501 -278 q 494 -226 490 -247 q 351 -121 421 -151 q 226 -90 282 -90 q 131 -114 171 -90 q 76 -171 92 -137 q 73 -241 61 -204 q 132 -303 85 -278 q 69 -260 93 -293 q 41 -186 46 -228 q 50 -99 36 -144 q 100 -19 64 -54 q 44 15 68 -8 q 10 71 21 38 q 9 155 -6 122 q 49 201 24 188 q 99 212 74 215 q 129 189 124 208 q 96 206 118 204 q 54 193 74 207 q 25 151 35 179 q 28 79 15 122 q 67 12 40 35 q 122 -1 94 -11 q 169 59 149 10 q 189 207 189 108 l 189 238 q 172 314 189 285 q 129 358 154 343 q 76 372 104 372 q 28 357 49 371 q -3 317 7 343 q -3 253 -14 290 q -10 323 -21 286 q 29 388 0 360 q 101 430 58 415 q 189 433 143 444 l 189 532 q 199 586 189 563 q 171 601 183 590 q 152 625 158 613 q 147 649 146 638 q 157 668 147 661 q 151 647 149 660 q 167 628 154 635 q 200 626 179 622 q 249 653 221 629 q 288 678 267 668 q 328 695 308 689 q 366 703 349 701 q 394 704 383 706 q 363 687 379 700 q 335 649 347 674 q 314 586 322 624 q 306 496 306 549 l 306 207 q 294 110 306 151 q 264 42 283 69 q 328 39 296 43 q 368 97 351 57 q 385 207 385 138 l 385 614 z "},"Í":{"ha":569,"x_min":-28,"x_max":575,"o":"m 75 792 q 135 847 114 821 q 163 893 156 874 q 168 924 171 913 q 157 935 165 935 q 188 924 179 940 q 194 897 197 908 q 288 892 242 897 q 373 883 333 888 q 442 879 413 879 q 488 890 472 879 q 505 933 518 911 q 457 963 492 954 q 510 933 499 961 q 508 868 521 906 q 460 792 494 831 q 375 733 425 754 q 214 760 289 764 q 86 729 139 756 q 7 658 33 703 q -8 563 -19 614 q 29 492 1 511 q 84 476 57 474 q 129 497 111 479 q 140 536 147 514 q 135 494 149 511 q 99 473 122 478 q 48 475 75 468 q 3 506 21 482 q -22 565 -15 529 q -19 642 -28 601 q 12 722 -11 682 q 75 792 35 761 m 385 614 q 398 662 385 640 q 431 703 411 683 q 474 744 451 724 q 516 787 497 764 q 547 838 535 810 q 556 904 558 867 q 565 831 571 861 q 544 772 558 801 q 517 706 531 742 q 503 614 503 669 l 503 207 q 465 90 503 136 q 382 24 428 44 q 459 -18 426 7 q 511 -64 492 -43 q 515 -67 514 -67 q 538 -78 528 -79 q 556 -67 549 -76 q 565 -42 563 -57 q 564 -15 568 -28 q 572 -51 575 -32 q 559 -94 569 -71 q 535 -147 549 -118 q 514 -212 522 -176 q 516 -274 508 -249 q 563 -292 524 -299 q 536 -299 550 -300 q 512 -287 522 -297 q 496 -262 501 -278 q 494 -226 490 -247 q 351 -121 421 -151 q 226 -90 282 -90 q 131 -114 171 -90 q 76 -171 92 -137 q 73 -241 61 -204 q 132 -303 85 -278 q 69 -260 93 -293 q 41 -186 46 -228 q 50 -99 36 -144 q 100 -19 64 -54 q 44 15 68 -8 q 10 71 21 38 q 9 155 -6 122 q 49 201 24 188 q 99 212 74 215 q 129 189 124 208 q 96 206 118 204 q 54 193 74 207 q 25 151 35 179 q 28 79 15 122 q 67 12 40 35 q 122 -1 94 -11 q 169 59 149 10 q 189 207 189 108 l 189 238 q 172 314 189 285 q 129 358 154 343 q 76 372 104 372 q 28 357 49 371 q -3 317 7 343 q -3 253 -14 290 q -10 323 -21 286 q 29 388 0 360 q 101 430 58 415 q 189 433 143 444 l 189 532 q 199 586 189 563 q 171 601 183 590 q 152 625 158 613 q 147 649 146 638 q 157 668 147 661 q 151 647 149 660 q 167 628 154 635 q 200 626 179 622 q 249 653 221 629 q 288 678 267 668 q 328 695 308 689 q 366 703 349 701 q 394 704 383 706 q 363 687 379 700 q 335 649 347 674 q 314 586 322 624 q 306 496 306 549 l 306 207 q 294 110 306 151 q 264 42 283 69 q 328 39 296 43 q 368 97 351 57 q 385 207 385 138 l 385 614 m 244 978 l 229 986 l 301 1136 l 339 1114 l 244 978 z "},"Î":{"ha":569,"x_min":-28,"x_max":575,"o":"m 75 792 q 135 847 114 821 q 163 893 156 874 q 168 924 171 913 q 157 935 165 935 q 188 924 179 940 q 194 897 197 908 q 288 892 242 897 q 373 883 333 888 q 442 879 413 879 q 488 890 472 879 q 505 933 518 911 q 457 963 492 954 q 510 933 499 961 q 508 868 521 906 q 460 792 494 831 q 375 733 425 754 q 214 760 289 764 q 86 729 139 756 q 7 658 33 703 q -8 563 -19 614 q 29 492 1 511 q 84 476 57 474 q 129 497 111 479 q 140 536 147 514 q 135 494 149 511 q 99 473 122 478 q 48 475 75 468 q 3 506 21 482 q -22 565 -15 529 q -19 642 -28 601 q 12 722 -11 682 q 75 792 35 761 m 385 614 q 398 662 385 640 q 431 703 411 683 q 474 744 451 724 q 516 787 497 764 q 547 838 535 810 q 556 904 558 867 q 565 831 571 861 q 544 772 558 801 q 517 706 531 742 q 503 614 503 669 l 503 207 q 465 90 503 136 q 382 24 428 44 q 459 -18 426 7 q 511 -64 492 -43 q 515 -67 514 -67 q 538 -78 528 -79 q 556 -67 549 -76 q 565 -42 563 -57 q 564 -15 568 -28 q 572 -51 575 -32 q 559 -94 569 -71 q 535 -147 549 -118 q 514 -212 522 -176 q 516 -274 508 -249 q 563 -292 524 -299 q 536 -299 550 -300 q 512 -287 522 -297 q 496 -262 501 -278 q 494 -226 490 -247 q 351 -121 421 -151 q 226 -90 282 -90 q 131 -114 171 -90 q 76 -171 92 -137 q 73 -241 61 -204 q 132 -303 85 -278 q 69 -260 93 -293 q 41 -186 46 -228 q 50 -99 36 -144 q 100 -19 64 -54 q 44 15 68 -8 q 10 71 21 38 q 9 155 -6 122 q 49 201 24 188 q 99 212 74 215 q 129 189 124 208 q 96 206 118 204 q 54 193 74 207 q 25 151 35 179 q 28 79 15 122 q 67 12 40 35 q 122 -1 94 -11 q 169 59 149 10 q 189 207 189 108 l 189 238 q 172 314 189 285 q 129 358 154 343 q 76 372 104 372 q 28 357 49 371 q -3 317 7 343 q -3 253 -14 290 q -10 323 -21 286 q 29 388 0 360 q 101 430 58 415 q 189 433 143 444 l 189 532 q 199 586 189 563 q 171 601 183 590 q 152 625 158 613 q 147 649 146 638 q 157 668 147 661 q 151 647 149 660 q 167 628 154 635 q 200 626 179 622 q 249 653 221 629 q 288 678 267 668 q 328 695 308 689 q 366 703 349 701 q 394 704 383 706 q 363 687 379 700 q 335 649 347 674 q 314 586 322 624 q 306 496 306 549 l 306 207 q 294 110 306 151 q 264 42 283 69 q 328 39 296 43 q 368 97 351 57 q 385 207 385 138 l 385 614 m 200 978 l 156 978 l 274 1149 l 297 1149 l 413 978 l 367 978 l 283 1096 l 200 978 z "},"Ï":{"ha":569,"x_min":-28,"x_max":575,"o":"m 75 792 q 135 847 114 821 q 163 893 156 874 q 168 924 171 913 q 157 935 165 935 q 188 924 179 940 q 194 897 197 908 q 288 892 242 897 q 373 883 333 888 q 442 879 413 879 q 488 890 472 879 q 505 933 518 911 q 457 963 492 954 q 510 933 499 961 q 508 868 521 906 q 460 792 494 831 q 375 733 425 754 q 214 760 289 764 q 86 729 139 756 q 7 658 33 703 q -8 563 -19 614 q 29 492 1 511 q 84 476 57 474 q 129 497 111 479 q 140 536 147 514 q 135 494 149 511 q 99 473 122 478 q 48 475 75 468 q 3 506 21 482 q -22 565 -15 529 q -19 642 -28 601 q 12 722 -11 682 q 75 792 35 761 m 385 614 q 398 662 385 640 q 431 703 411 683 q 474 744 451 724 q 516 787 497 764 q 547 838 535 810 q 556 904 558 867 q 565 831 571 861 q 544 772 558 801 q 517 706 531 742 q 503 614 503 669 l 503 207 q 465 90 503 136 q 382 24 428 44 q 459 -18 426 7 q 511 -64 492 -43 q 515 -67 514 -67 q 538 -78 528 -79 q 556 -67 549 -76 q 565 -42 563 -57 q 564 -15 568 -28 q 572 -51 575 -32 q 559 -94 569 -71 q 535 -147 549 -118 q 514 -212 522 -176 q 516 -274 508 -249 q 563 -292 524 -299 q 536 -299 550 -300 q 512 -287 522 -297 q 496 -262 501 -278 q 494 -226 490 -247 q 351 -121 421 -151 q 226 -90 282 -90 q 131 -114 171 -90 q 76 -171 92 -137 q 73 -241 61 -204 q 132 -303 85 -278 q 69 -260 93 -293 q 41 -186 46 -228 q 50 -99 36 -144 q 100 -19 64 -54 q 44 15 68 -8 q 10 71 21 38 q 9 155 -6 122 q 49 201 24 188 q 99 212 74 215 q 129 189 124 208 q 96 206 118 204 q 54 193 74 207 q 25 151 35 179 q 28 79 15 122 q 67 12 40 35 q 122 -1 94 -11 q 169 59 149 10 q 189 207 189 108 l 189 238 q 172 314 189 285 q 129 358 154 343 q 76 372 104 372 q 28 357 49 371 q -3 317 7 343 q -3 253 -14 290 q -10 323 -21 286 q 29 388 0 360 q 101 430 58 415 q 189 433 143 444 l 189 532 q 199 586 189 563 q 171 601 183 590 q 152 625 158 613 q 147 649 146 638 q 157 668 147 661 q 151 647 149 660 q 167 628 154 635 q 200 626 179 622 q 249 653 221 629 q 288 678 267 668 q 328 695 308 689 q 366 703 349 701 q 394 704 383 706 q 363 687 379 700 q 335 649 347 674 q 314 586 322 624 q 306 496 306 549 l 306 207 q 294 110 306 151 q 264 42 283 69 q 328 39 296 43 q 368 97 351 57 q 385 207 385 138 l 385 614 m 206 976 l 138 1043 l 206 1111 l 272 1043 l 206 976 m 365 976 l 297 1043 l 365 1111 l 432 1043 l 365 976 z "},"Ì":{"ha":569,"x_min":-28,"x_max":575,"o":"m 75 792 q 135 847 114 821 q 163 893 156 874 q 168 924 171 913 q 157 935 165 935 q 188 924 179 940 q 194 897 197 908 q 288 892 242 897 q 373 883 333 888 q 442 879 413 879 q 488 890 472 879 q 505 933 518 911 q 457 963 492 954 q 510 933 499 961 q 508 868 521 906 q 460 792 494 831 q 375 733 425 754 q 214 760 289 764 q 86 729 139 756 q 7 658 33 703 q -8 563 -19 614 q 29 492 1 511 q 84 476 57 474 q 129 497 111 479 q 140 536 147 514 q 135 494 149 511 q 99 473 122 478 q 48 475 75 468 q 3 506 21 482 q -22 565 -15 529 q -19 642 -28 601 q 12 722 -11 682 q 75 792 35 761 m 385 614 q 398 662 385 640 q 431 703 411 683 q 474 744 451 724 q 516 787 497 764 q 547 838 535 810 q 556 904 558 867 q 565 831 571 861 q 544 772 558 801 q 517 706 531 742 q 503 614 503 669 l 503 207 q 465 90 503 136 q 382 24 428 44 q 459 -18 426 7 q 511 -64 492 -43 q 515 -67 514 -67 q 538 -78 528 -79 q 556 -67 549 -76 q 565 -42 563 -57 q 564 -15 568 -28 q 572 -51 575 -32 q 559 -94 569 -71 q 535 -147 549 -118 q 514 -212 522 -176 q 516 -274 508 -249 q 563 -292 524 -299 q 536 -299 550 -300 q 512 -287 522 -297 q 496 -262 501 -278 q 494 -226 490 -247 q 351 -121 421 -151 q 226 -90 282 -90 q 131 -114 171 -90 q 76 -171 92 -137 q 73 -241 61 -204 q 132 -303 85 -278 q 69 -260 93 -293 q 41 -186 46 -228 q 50 -99 36 -144 q 100 -19 64 -54 q 44 15 68 -8 q 10 71 21 38 q 9 155 -6 122 q 49 201 24 188 q 99 212 74 215 q 129 189 124 208 q 96 206 118 204 q 54 193 74 207 q 25 151 35 179 q 28 79 15 122 q 67 12 40 35 q 122 -1 94 -11 q 169 59 149 10 q 189 207 189 108 l 189 238 q 172 314 189 285 q 129 358 154 343 q 76 372 104 372 q 28 357 49 371 q -3 317 7 343 q -3 253 -14 290 q -10 323 -21 286 q 29 388 0 360 q 101 430 58 415 q 189 433 143 444 l 189 532 q 199 586 189 563 q 171 601 183 590 q 152 625 158 613 q 147 649 146 638 q 157 668 147 661 q 151 647 149 660 q 167 628 154 635 q 200 626 179 622 q 249 653 221 629 q 288 678 267 668 q 328 695 308 689 q 366 703 349 701 q 394 704 383 706 q 363 687 379 700 q 335 649 347 674 q 314 586 322 624 q 306 496 306 549 l 306 207 q 294 110 306 151 q 264 42 283 69 q 328 39 296 43 q 368 97 351 57 q 385 207 385 138 l 385 614 m 229 1114 l 267 1136 l 339 986 l 324 978 l 229 1114 z "},"J":{"ha":701,"x_min":-115,"x_max":672,"o":"m 100 792 q 160 847 139 821 q 188 893 181 874 q 193 924 196 913 q 182 935 190 935 q 213 924 204 940 q 219 897 222 908 q 325 892 267 897 q 437 883 383 888 q 532 879 490 879 q 589 890 574 879 q 606 933 619 911 q 558 963 593 954 q 611 933 600 961 q 609 868 622 906 q 561 792 596 831 q 476 733 526 754 q 303 760 390 764 q 149 729 217 756 q 44 658 82 703 q 17 563 6 614 q 54 492 26 511 q 109 476 82 474 q 154 497 136 479 q 165 536 172 514 q 160 494 174 511 q 124 473 147 478 q 73 475 100 468 q 28 506 46 482 q 3 565 10 529 q 6 642 -3 601 q 37 722 14 682 q 100 792 60 761 m -54 -308 q -103 -263 -90 -299 q -103 -185 -115 -228 q -56 -101 -92 -142 q 39 -42 -21 -61 q 101 -31 69 -32 q 163 -35 132 -29 q 111 36 125 -6 q 110 120 96 88 q 150 167 125 153 q 200 178 175 182 q 231 156 225 175 q 197 171 219 169 q 156 158 175 172 q 126 116 136 144 q 129 44 117 88 q 169 -23 142 0 q 223 -35 196 -46 q 270 24 250 -25 q 290 172 290 74 l 290 238 q 273 314 290 285 q 231 358 256 343 q 178 372 206 372 q 129 357 150 371 q 98 317 108 343 q 99 253 88 290 q 91 323 81 286 q 131 388 101 360 q 202 430 160 415 q 290 433 244 444 l 290 532 q 300 586 290 563 q 272 601 285 590 q 253 625 260 613 q 248 649 247 638 q 258 668 249 661 q 253 647 250 660 q 268 628 256 635 q 301 626 281 622 q 350 653 322 629 q 389 678 368 668 q 430 695 410 689 q 467 703 450 701 q 496 704 485 706 q 465 687 481 700 q 436 649 449 674 q 415 586 424 624 q 407 496 407 549 l 407 172 q 394 72 407 114 q 362 1 382 29 q 315 -42 342 -28 q 261 -60 289 -57 q 313 -82 289 -71 q 354 -103 336 -93 q 390 -125 374 -114 q 438 -79 417 -117 q 471 20 456 -47 q 486 207 486 88 l 486 614 q 499 662 486 640 q 533 703 513 683 q 576 744 553 724 q 617 787 599 764 q 648 838 636 810 q 657 904 660 867 q 665 831 672 861 q 644 772 658 801 q 617 706 631 742 q 603 614 603 669 l 603 207 q 590 97 603 147 q 555 5 576 47 q 506 -72 533 -37 q 451 -132 479 -106 q 300 -235 385 -194 q 292 -264 292 -250 q 298 -285 292 -275 q 325 -299 304 -296 q 290 -293 303 -301 q 270 -270 276 -285 q 263 -240 264 -256 q 265 -211 263 -224 q 114 -144 179 -161 q 3 -131 49 -126 q -68 -158 -43 -136 q -100 -207 -93 -179 q -95 -262 -107 -235 q -54 -308 -83 -290 z "},"K":{"ha":968,"x_min":-7,"x_max":1049,"o":"m 96 792 q 156 847 135 821 q 184 893 176 874 q 188 924 192 913 q 176 935 185 935 q 209 924 200 940 q 215 897 218 908 q 308 892 263 897 q 394 883 354 888 q 463 879 433 879 q 508 890 493 879 q 527 911 524 900 q 525 933 531 922 q 507 951 519 943 q 478 963 494 958 q 531 933 519 961 q 528 868 542 906 q 481 792 515 831 q 396 733 446 754 q 235 760 310 764 q 107 729 160 756 q 28 658 54 703 q 13 563 1 614 q 49 492 22 511 q 103 476 76 474 q 149 497 131 479 q 160 536 168 514 q 156 494 169 511 q 119 473 143 478 q 69 475 96 468 q 24 506 42 482 q -1 565 6 529 q 1 642 -7 601 q 33 722 10 682 q 96 792 56 761 m 406 614 q 433 683 406 653 q 494 743 461 713 q 553 811 528 774 q 575 904 579 849 q 584 831 590 861 q 564 772 578 801 q 536 706 550 742 q 522 614 522 669 l 522 442 l 726 646 l 758 679 q 701 719 721 699 q 667 733 679 744 q 676 681 654 721 q 657 732 657 699 q 672 797 657 765 q 713 853 686 829 q 776 876 740 876 q 757 844 756 868 q 775 792 758 821 q 822 738 792 764 q 892 700 853 713 q 956 706 931 688 q 990 753 982 725 q 989 806 999 781 q 947 833 979 832 q 988 816 972 833 q 1003 773 1003 799 q 989 719 1004 747 q 938 672 974 692 q 860 654 899 653 q 788 667 821 656 l 626 504 l 921 404 q 900 389 908 403 q 885 351 892 378 q 879 276 879 325 l 879 -119 q 899 -217 879 -183 q 945 -253 918 -250 q 1001 -231 972 -257 q 1049 -151 1029 -206 q 1028 -218 1046 -187 q 985 -267 1011 -249 q 929 -292 960 -286 q 869 -284 899 -297 q 817 -237 840 -271 q 781 -144 793 -204 q 760 -166 774 -158 q 733 -174 747 -174 q 706 -165 718 -174 q 690 -136 694 -156 q 706 -154 694 -147 q 731 -157 718 -161 q 753 -135 743 -153 q 763 -78 763 -117 l 763 167 q 753 288 763 231 q 726 385 744 344 q 679 444 707 425 q 614 450 651 463 q 556 408 576 438 q 531 343 536 378 q 536 278 526 308 q 569 236 546 249 q 610 231 592 224 q 638 253 628 238 q 651 289 649 268 q 644 325 653 310 q 660 290 658 313 q 652 247 661 267 q 622 215 643 226 q 572 214 601 203 q 544 231 556 221 q 522 257 532 242 l 522 207 q 485 90 522 136 q 403 24 449 44 q 480 -18 447 7 q 532 -64 513 -43 l 535 -67 q 558 -78 547 -79 q 576 -67 569 -76 q 585 -42 583 -57 q 583 -15 588 -28 q 592 -51 596 -32 q 579 -94 589 -71 q 556 -147 569 -118 q 535 -212 543 -176 q 537 -274 529 -249 q 583 -292 544 -299 q 557 -299 571 -300 q 533 -287 543 -297 q 517 -262 522 -278 q 515 -226 511 -247 q 372 -121 442 -151 q 247 -90 303 -90 q 152 -114 192 -90 q 97 -171 113 -137 q 94 -241 82 -204 q 153 -303 106 -278 q 90 -260 114 -293 q 61 -186 67 -228 q 70 -99 56 -144 q 121 -19 85 -54 q 65 15 89 -8 q 31 71 42 38 q 30 155 15 122 q 69 201 44 188 q 119 212 94 215 q 150 189 144 208 q 117 206 139 204 q 74 193 94 207 q 44 151 54 179 q 49 79 35 122 q 88 12 61 35 q 142 -1 115 -11 q 188 59 168 10 q 208 207 208 108 l 208 238 q 191 314 208 285 q 149 358 174 343 q 97 372 125 372 q 49 357 69 371 q 17 317 28 343 q 18 253 7 290 q 10 323 0 286 q 50 388 21 360 q 121 430 79 415 q 208 433 163 444 l 208 532 q 219 586 208 560 q 191 601 203 590 q 173 625 179 613 q 167 649 167 638 q 178 668 168 661 q 172 647 169 660 q 188 628 175 635 q 221 626 200 622 q 269 653 242 629 q 308 678 288 668 q 349 695 329 689 q 387 703 369 701 q 415 704 404 706 q 384 687 400 700 q 356 649 368 674 q 335 586 343 624 q 326 496 326 549 l 326 207 q 315 110 326 151 q 285 42 304 69 q 317 42 301 43 q 349 39 333 42 q 389 97 372 57 q 406 207 406 138 l 406 614 z "},"L":{"ha":810,"x_min":-11,"x_max":867,"o":"m 401 614 q 415 662 401 640 q 448 703 428 683 q 491 744 468 724 q 533 787 514 764 q 563 838 551 810 q 572 904 575 867 q 581 831 588 861 q 561 772 575 801 q 533 706 547 742 q 519 614 519 669 l 519 207 q 495 110 519 150 q 435 44 471 69 q 478 35 457 42 q 518 22 499 29 q 542 -34 517 -6 q 608 -75 568 -62 q 696 -75 647 -87 q 790 -10 744 -62 q 830 62 821 25 q 833 131 839 99 q 810 187 828 163 q 768 223 792 211 q 717 230 744 235 q 667 199 690 225 q 716 235 685 226 q 778 233 747 244 q 834 185 810 221 q 863 90 858 150 q 840 -19 867 31 q 776 -108 814 -69 q 699 -172 739 -146 q 639 -211 660 -199 q 608 -240 618 -224 q 597 -269 597 -256 q 606 -289 597 -282 q 635 -292 615 -296 q 603 -301 617 -303 q 580 -288 589 -299 q 569 -262 571 -278 q 572 -231 567 -246 q 467 -137 522 -172 q 356 -89 411 -103 q 251 -79 301 -75 q 160 -100 200 -83 q 99 -144 118 -117 q 79 -199 79 -171 q 99 -256 79 -228 q 158 -303 119 -283 q 101 -272 126 -294 q 66 -217 81 -253 q 61 -121 51 -182 q 119 -19 69 -61 q 63 13 88 -10 q 26 71 38 36 q 26 155 11 122 q 65 201 40 188 q 115 212 90 215 q 146 189 140 208 q 113 206 135 204 q 71 193 90 207 q 42 151 51 179 q 44 79 32 122 q 84 12 57 35 q 138 -1 111 -11 q 185 59 165 10 q 206 207 206 108 l 206 238 q 188 314 206 285 q 146 358 171 343 q 93 372 121 372 q 44 357 65 371 q 13 317 24 343 q 14 253 3 290 q 6 323 -4 286 q 46 388 17 360 q 117 430 75 415 q 206 433 160 444 l 206 532 q 215 586 206 563 q 188 601 200 590 q 170 625 176 613 q 165 649 164 638 q 174 668 165 661 q 168 647 165 660 q 183 628 171 635 q 217 626 196 622 q 265 653 238 629 q 304 678 283 668 q 345 695 325 689 q 383 703 365 701 q 411 704 400 706 q 380 687 396 700 q 351 649 364 674 q 331 586 339 624 q 322 496 322 549 l 322 207 q 312 115 322 154 q 285 47 301 75 q 358 51 319 51 q 390 111 378 74 q 401 207 401 149 l 401 614 m 92 792 q 151 847 131 821 q 180 893 172 874 q 185 924 188 913 q 174 935 182 935 q 205 924 196 940 q 211 897 214 908 q 304 892 258 897 q 390 883 350 888 q 459 879 429 879 q 504 890 489 879 q 522 933 535 911 q 474 963 508 954 q 527 933 515 961 q 525 868 539 906 q 476 792 511 831 q 392 733 442 754 q 231 760 306 764 q 104 729 157 756 q 25 658 51 703 q 8 563 -1 614 q 46 492 18 511 q 101 476 74 474 q 146 497 128 479 q 157 536 164 514 q 152 494 165 511 q 115 473 139 478 q 65 475 92 468 q 19 506 38 482 q -5 565 1 529 q -3 642 -11 601 q 28 722 6 682 q 92 792 51 761 z "},"Ł":{"ha":810,"x_min":-11,"x_max":867,"o":"m 401 614 q 415 662 401 640 q 448 703 428 683 q 491 744 468 724 q 533 787 514 764 q 563 838 551 810 q 572 904 575 867 q 581 831 588 861 q 561 772 575 801 q 533 706 547 742 q 519 614 519 669 l 519 207 q 495 110 519 150 q 435 44 471 69 q 478 35 457 42 q 518 22 499 29 q 542 -34 517 -6 q 608 -75 568 -62 q 696 -75 647 -87 q 790 -10 744 -62 q 830 62 821 25 q 833 131 839 99 q 810 187 828 163 q 768 223 792 211 q 717 230 744 235 q 667 199 690 225 q 716 235 685 226 q 778 233 747 244 q 834 185 810 221 q 863 90 858 150 q 840 -19 867 31 q 776 -108 814 -69 q 699 -172 739 -146 q 639 -211 660 -199 q 608 -240 618 -224 q 597 -269 597 -256 q 606 -289 597 -282 q 635 -292 615 -296 q 603 -301 617 -303 q 580 -288 589 -299 q 569 -262 571 -278 q 572 -231 567 -246 q 467 -137 522 -172 q 356 -89 411 -103 q 251 -79 301 -75 q 160 -100 200 -83 q 99 -144 118 -117 q 79 -199 79 -171 q 99 -256 79 -228 q 158 -303 119 -283 q 101 -272 126 -294 q 66 -217 81 -253 q 61 -121 51 -182 q 119 -19 69 -61 q 63 13 88 -10 q 26 71 38 36 q 26 155 11 122 q 65 201 40 188 q 115 212 90 215 q 146 189 140 208 q 113 206 135 204 q 71 193 90 207 q 42 151 51 179 q 44 79 32 122 q 84 12 57 35 q 138 -1 111 -11 q 185 59 165 10 q 206 207 206 108 l 206 238 q 188 314 206 285 q 146 358 171 343 q 93 372 121 372 q 44 357 65 371 q 13 317 24 343 q 14 253 3 290 q 6 323 -4 286 q 46 388 17 360 q 117 430 75 415 q 206 433 160 444 l 206 532 q 215 586 206 563 q 188 601 200 590 q 170 625 176 613 q 165 649 164 638 q 174 668 165 661 q 168 647 165 660 q 183 628 171 635 q 217 626 196 622 q 265 653 238 629 q 304 678 283 668 q 345 695 325 689 q 383 703 365 701 q 411 704 400 706 q 380 687 396 700 q 351 649 364 674 q 331 586 339 624 q 322 496 322 549 l 322 207 q 312 115 322 154 q 285 47 301 75 q 358 51 319 51 q 390 111 378 74 q 401 207 401 149 l 401 614 m 92 792 q 151 847 131 821 q 180 893 172 874 q 185 924 188 913 q 174 935 182 935 q 205 924 196 940 q 211 897 214 908 q 304 892 258 897 q 390 883 350 888 q 459 879 429 879 q 504 890 489 879 q 522 933 535 911 q 474 963 508 954 q 527 933 515 961 q 525 868 539 906 q 476 792 511 831 q 392 733 442 754 q 231 760 306 764 q 104 729 157 756 q 25 658 51 703 q 8 563 -1 614 q 46 492 18 511 q 101 476 74 474 q 146 497 128 479 q 157 536 164 514 q 152 494 165 511 q 115 473 139 478 q 65 475 92 468 q 19 506 38 482 q -5 565 1 529 q -3 642 -11 601 q 28 722 6 682 q 92 792 51 761 m 611 406 q 624 396 621 404 q 624 376 626 388 q 617 352 622 365 q 606 329 613 339 q 597 309 599 319 q 599 290 596 299 q 607 279 601 282 q 618 281 613 276 q 601 276 611 274 q 585 294 592 279 l 240 294 q 206 290 217 294 q 193 281 196 286 q 193 272 190 276 q 199 267 196 267 q 186 276 189 268 q 185 295 183 283 q 192 319 188 307 q 204 343 197 332 q 212 363 211 353 q 210 381 213 374 q 201 392 207 389 q 190 392 196 396 q 208 396 197 399 q 225 378 218 393 l 569 378 q 602 382 592 378 q 616 391 613 386 q 617 401 619 396 q 611 406 614 406 z "},"M":{"ha":1124,"x_min":-19,"x_max":1196,"o":"m 393 614 q 406 662 393 640 q 439 703 419 683 q 481 744 458 724 q 523 787 504 764 q 553 838 542 810 q 563 904 565 867 q 686 861 643 904 q 749 753 729 818 q 801 817 779 782 q 821 904 824 853 q 923 877 883 904 q 985 806 963 850 q 1017 708 1008 763 q 1026 599 1026 653 l 1026 -119 q 1046 -217 1026 -183 q 1092 -253 1065 -250 q 1148 -231 1119 -257 q 1196 -151 1176 -206 q 1176 -218 1193 -187 q 1133 -267 1158 -249 q 1078 -292 1108 -286 q 1018 -284 1047 -297 q 965 -237 989 -271 q 929 -144 942 -204 q 908 -166 922 -158 q 880 -174 894 -174 q 853 -165 865 -174 q 838 -136 842 -156 q 853 -154 842 -147 q 878 -157 865 -161 q 900 -135 890 -153 q 910 -78 910 -117 l 910 574 q 900 685 910 642 q 877 753 890 728 q 849 790 864 779 q 824 806 833 801 q 808 767 817 786 q 790 726 799 749 q 774 676 781 704 q 768 614 768 649 l 768 599 l 768 143 q 778 53 768 88 q 825 0 788 19 q 772 -40 793 -8 q 736 -108 750 -72 q 710 -200 721 -150 q 683 -108 699 -150 q 647 -40 669 -72 q 594 0 625 -8 q 642 53 632 19 q 651 143 651 88 l 651 574 q 642 685 651 642 q 619 753 632 728 q 590 790 606 779 q 565 806 575 801 q 549 767 558 786 q 531 726 540 749 q 516 676 522 704 q 510 614 510 649 l 510 207 q 473 90 510 136 q 389 24 436 44 q 467 -18 435 7 q 519 -64 500 -43 q 522 -67 519 -67 q 546 -78 535 -79 q 564 -67 557 -76 q 573 -42 571 -57 q 571 -15 575 -28 q 580 -51 583 -32 q 567 -94 576 -71 q 543 -147 557 -118 q 521 -212 529 -176 q 524 -274 515 -249 q 569 -292 532 -299 q 543 -299 557 -300 q 519 -287 529 -297 q 503 -262 508 -278 q 501 -226 497 -247 q 358 -121 428 -151 q 233 -90 289 -90 q 138 -114 178 -90 q 83 -171 99 -137 q 80 -241 68 -204 q 139 -303 92 -278 q 76 -260 100 -293 q 48 -186 53 -228 q 57 -99 43 -144 q 107 -19 71 -54 q 51 15 75 -8 q 18 71 28 38 q 17 155 3 122 q 56 201 31 188 q 106 212 81 215 q 138 189 131 208 q 103 206 125 204 q 61 193 81 207 q 32 151 42 179 q 35 79 22 122 q 74 12 47 35 q 128 -1 101 -11 q 176 59 156 10 q 196 207 196 108 l 196 238 q 178 314 196 285 q 136 358 161 343 q 84 372 111 372 q 35 357 57 371 q 4 317 14 343 q 6 253 -6 290 q -3 323 -14 286 q 36 388 7 360 q 108 430 65 415 q 196 433 150 444 l 196 532 q 199 560 196 547 q 206 586 201 574 q 178 601 190 590 q 160 625 167 613 q 155 649 154 638 q 164 668 156 661 q 160 647 157 660 q 175 628 163 635 q 208 626 188 622 q 256 653 228 629 q 335 696 293 683 q 401 704 378 708 q 370 687 386 700 q 342 649 354 674 q 321 586 329 624 q 313 496 313 549 l 313 207 q 302 110 313 151 q 272 42 292 69 q 335 39 303 43 q 376 97 358 57 q 393 207 393 138 l 393 614 m 82 792 q 142 847 121 821 q 171 893 164 874 q 175 924 178 913 q 164 935 172 935 q 196 924 186 940 q 203 897 206 908 q 296 892 250 897 q 381 883 342 888 q 450 879 419 879 q 496 890 481 879 q 515 911 511 900 q 513 933 518 922 q 494 951 507 943 q 464 963 481 958 q 517 933 506 961 q 515 868 529 906 q 467 792 501 831 q 383 733 433 754 q 222 760 297 764 q 94 729 147 756 q 15 658 42 703 q -1 563 -11 614 q 36 492 8 511 q 91 476 64 474 q 136 497 118 479 q 147 536 154 514 q 143 494 157 511 q 106 473 129 478 q 56 475 83 468 q 11 506 29 482 q -13 565 -7 529 q -11 642 -19 601 q 19 722 -3 682 q 82 792 42 761 z "},"N":{"ha":961,"x_min":-7,"x_max":1049,"o":"m 406 614 q 419 662 406 640 q 452 703 432 683 q 495 744 472 724 q 537 787 518 764 q 567 838 556 810 q 576 904 579 867 q 585 840 589 867 q 571 786 582 813 q 549 676 551 739 q 562 546 547 614 q 607 408 576 478 q 683 279 638 339 q 726 222 707 249 q 763 169 746 194 l 763 639 q 751 759 763 713 q 724 831 740 806 q 689 864 708 857 q 653 866 669 871 q 625 849 636 861 q 613 822 614 836 q 642 872 613 858 q 712 876 672 886 q 790 830 751 865 q 847 732 829 794 q 873 766 856 756 q 908 776 890 776 q 942 767 926 776 q 961 744 957 758 q 933 765 947 761 q 906 758 918 768 q 887 722 894 747 q 879 657 879 697 l 879 -119 q 899 -217 879 -183 q 945 -253 918 -250 q 1001 -231 972 -257 q 1049 -151 1029 -206 q 1028 -218 1046 -187 q 985 -267 1011 -249 q 929 -292 960 -286 q 870 -284 899 -297 q 817 -237 842 -271 q 781 -144 793 -204 q 760 -166 774 -158 q 733 -174 747 -174 q 706 -165 718 -174 q 690 -136 694 -156 q 719 -158 697 -156 q 744 -132 733 -157 q 750 -61 754 -107 q 722 49 746 -15 q 644 194 699 114 q 522 413 565 310 l 522 207 q 485 90 522 136 q 403 24 449 44 q 480 -18 447 7 q 532 -64 513 -43 l 535 -67 q 558 -78 547 -79 q 576 -67 569 -76 q 586 -42 583 -57 q 585 -15 589 -28 q 593 -51 596 -32 q 580 -94 590 -71 q 556 -147 569 -118 q 535 -212 543 -176 q 537 -274 529 -249 q 583 -292 544 -299 q 557 -299 571 -300 q 533 -287 543 -297 q 517 -262 522 -278 q 515 -226 511 -247 q 372 -121 442 -151 q 247 -90 303 -90 q 152 -114 192 -90 q 97 -171 113 -137 q 94 -241 82 -204 q 153 -303 106 -278 q 90 -260 114 -293 q 61 -186 67 -228 q 70 -99 56 -144 q 121 -19 85 -54 q 65 15 89 -8 q 31 71 42 38 q 30 155 15 122 q 69 201 44 188 q 119 212 94 215 q 150 189 144 208 q 117 206 139 204 q 75 193 94 207 q 46 151 56 179 q 49 79 36 122 q 88 12 61 35 q 142 -1 115 -11 q 190 59 169 10 q 210 207 210 108 l 210 238 q 192 314 210 285 q 150 358 175 343 q 97 372 125 372 q 49 357 69 371 q 17 317 28 343 q 18 253 7 290 q 10 323 0 286 q 50 388 21 360 q 122 430 79 415 q 210 433 164 444 l 210 532 q 219 586 210 563 q 192 601 204 590 q 173 625 179 613 q 167 649 167 638 q 178 668 168 661 q 172 647 169 660 q 188 628 175 635 q 221 626 200 622 q 269 653 242 629 q 308 678 288 668 q 349 695 329 689 q 387 703 369 701 q 415 704 404 706 q 384 687 400 700 q 356 649 368 674 q 335 586 343 624 q 326 496 326 549 l 326 207 q 315 110 326 151 q 285 42 304 69 q 349 39 317 43 q 389 97 372 57 q 406 207 406 138 l 406 614 m 160 536 q 156 494 169 511 q 119 473 143 478 q 69 475 96 468 q 24 506 42 482 q -1 565 6 529 q 1 642 -7 601 q 33 722 10 682 q 96 792 56 761 q 156 847 135 821 q 184 893 176 874 q 188 924 192 913 q 176 935 185 935 q 209 924 200 940 q 215 897 218 908 q 308 892 263 897 q 394 883 354 888 q 463 879 433 879 q 508 890 493 879 q 527 911 524 900 q 525 933 531 922 q 507 951 519 943 q 478 963 494 958 q 531 933 519 961 q 528 868 542 906 q 481 792 515 831 q 396 733 446 754 q 235 760 310 764 q 107 729 160 756 q 28 658 54 703 q 13 563 1 614 q 49 492 22 511 q 103 476 76 474 q 149 497 131 479 q 160 536 168 514 z "},"A":{"ha":824,"x_min":-64,"x_max":886,"o":"m 553 890 q 572 911 568 900 q 569 933 575 922 q 551 951 564 943 q 521 963 538 958 q 574 933 563 961 q 572 868 586 906 q 524 792 558 831 q 440 733 490 754 q 331 751 383 753 q 235 730 279 749 q 158 681 192 711 q 102 613 124 650 q 72 538 81 576 q 69 465 63 499 q 92 413 76 431 q 128 387 108 394 q 170 382 149 379 q 208 394 192 385 q 233 417 225 403 q 236 444 242 431 q 228 399 246 421 q 183 370 211 378 q 121 374 154 363 q 64 426 88 385 q 34 519 40 468 q 38 620 28 569 q 74 716 49 671 q 139 792 99 761 q 199 847 178 821 q 228 893 221 874 q 232 924 235 913 q 221 935 229 935 q 253 924 243 940 q 260 897 263 908 q 353 892 307 897 q 438 883 399 888 q 507 879 476 879 q 553 890 538 879 m -6 -239 q -51 -181 -39 -215 q -56 -114 -64 -147 q -21 -51 -47 -81 q 49 -10 6 -22 l 182 207 q 124 222 149 210 q 85 251 99 233 q 69 289 71 268 q 81 331 68 310 q 84 285 71 308 q 124 255 97 263 q 185 262 150 247 q 257 329 221 276 l 340 465 q 362 537 364 504 q 342 592 360 569 q 297 624 325 614 q 242 630 269 635 q 194 602 215 625 q 167 535 172 579 q 176 595 163 567 q 213 646 189 624 q 267 681 236 668 q 332 696 299 694 q 396 685 365 697 q 450 646 426 674 l 457 656 q 519 741 485 703 q 578 813 553 779 q 613 880 604 847 q 596 950 621 913 q 633 913 614 939 q 666 856 651 886 q 689 795 681 825 q 696 749 697 765 q 725 790 706 775 q 764 809 744 806 q 801 806 783 813 q 824 781 818 799 q 792 794 811 794 q 757 774 774 793 q 728 717 740 756 q 717 617 717 678 l 717 -119 q 736 -217 717 -183 q 783 -253 756 -250 q 838 -231 810 -257 q 886 -151 867 -206 q 866 -218 883 -187 q 824 -267 849 -249 q 768 -292 799 -286 q 708 -284 738 -297 q 656 -237 679 -271 q 619 -144 632 -204 q 599 -166 613 -158 q 570 -174 585 -174 q 544 -165 556 -174 q 528 -136 532 -156 q 544 -154 532 -147 q 568 -157 556 -161 q 590 -135 581 -153 q 600 -78 600 -117 l 600 329 q 571 282 590 304 q 532 223 544 251 q 517 175 519 194 q 524 147 515 156 q 547 150 532 139 q 532 139 540 140 q 515 144 524 138 q 500 166 507 150 q 492 208 493 182 l 217 208 l 88 -1 q 164 -7 125 1 q 281 -24 240 -22 q 338 -22 322 -26 q 353 -10 354 -18 q 344 1 351 -3 q 359 -14 356 -3 q 356 -40 363 -25 q 333 -72 350 -56 q 290 -101 317 -89 q 253 -144 264 -114 q 244 -203 242 -174 q 263 -253 247 -232 q 307 -272 279 -275 q 275 -272 292 -276 q 243 -253 258 -267 q 216 -220 228 -240 q 201 -172 204 -200 q 63 -117 119 -125 q -21 -124 7 -108 q -46 -172 -49 -139 q -6 -239 -43 -204 m 288 325 l 393 325 q 503 335 463 325 q 565 360 544 346 q 585 391 585 375 q 577 419 586 407 q 551 438 568 432 q 515 439 533 444 q 567 440 546 450 q 600 407 589 429 l 600 514 q 596 631 600 585 q 586 704 592 676 q 572 754 581 736 q 553 739 565 751 q 526 708 542 728 q 489 653 511 689 l 288 325 z "},"Ñ":{"ha":961,"x_min":-7,"x_max":1049,"o":"m 406 614 q 419 662 406 640 q 452 703 432 683 q 495 744 472 724 q 537 787 518 764 q 567 838 556 810 q 576 904 579 867 q 585 840 589 867 q 571 786 582 813 q 549 676 551 739 q 562 546 547 614 q 607 408 576 478 q 683 279 638 339 q 726 222 707 249 q 763 169 746 194 l 763 639 q 751 759 763 713 q 724 831 740 806 q 689 864 708 857 q 653 866 669 871 q 625 849 636 861 q 613 822 614 836 q 642 872 613 858 q 712 876 672 886 q 790 830 751 865 q 847 732 829 794 q 873 766 856 756 q 908 776 890 776 q 942 767 926 776 q 961 744 957 758 q 933 765 947 761 q 906 758 918 768 q 887 722 894 747 q 879 657 879 697 l 879 -119 q 899 -217 879 -183 q 945 -253 918 -250 q 1001 -231 972 -257 q 1049 -151 1029 -206 q 1028 -218 1046 -187 q 985 -267 1011 -249 q 929 -292 960 -286 q 870 -284 899 -297 q 817 -237 842 -271 q 781 -144 793 -204 q 760 -166 774 -158 q 733 -174 747 -174 q 706 -165 718 -174 q 690 -136 694 -156 q 719 -158 697 -156 q 744 -132 733 -157 q 750 -61 754 -107 q 722 49 746 -15 q 644 194 699 114 q 522 413 565 310 l 522 207 q 485 90 522 136 q 403 24 449 44 q 480 -18 447 7 q 532 -64 513 -43 l 535 -67 q 558 -78 547 -79 q 576 -67 569 -76 q 586 -42 583 -57 q 585 -15 589 -28 q 593 -51 596 -32 q 580 -94 590 -71 q 556 -147 569 -118 q 535 -212 543 -176 q 537 -274 529 -249 q 583 -292 544 -299 q 557 -299 571 -300 q 533 -287 543 -297 q 517 -262 522 -278 q 515 -226 511 -247 q 372 -121 442 -151 q 247 -90 303 -90 q 152 -114 192 -90 q 97 -171 113 -137 q 94 -241 82 -204 q 153 -303 106 -278 q 90 -260 114 -293 q 61 -186 67 -228 q 70 -99 56 -144 q 121 -19 85 -54 q 65 15 89 -8 q 31 71 42 38 q 30 155 15 122 q 69 201 44 188 q 119 212 94 215 q 150 189 144 208 q 117 206 139 204 q 75 193 94 207 q 46 151 56 179 q 49 79 36 122 q 88 12 61 35 q 142 -1 115 -11 q 190 59 169 10 q 210 207 210 108 l 210 238 q 192 314 210 285 q 150 358 175 343 q 97 372 125 372 q 49 357 69 371 q 17 317 28 343 q 18 253 7 290 q 10 323 0 286 q 50 388 21 360 q 122 430 79 415 q 210 433 164 444 l 210 532 q 219 586 210 563 q 192 601 204 590 q 173 625 179 613 q 167 649 167 638 q 178 668 168 661 q 172 647 169 660 q 188 628 175 635 q 221 626 200 622 q 269 653 242 629 q 308 678 288 668 q 349 695 329 689 q 387 703 369 701 q 415 704 404 706 q 384 687 400 700 q 356 649 368 674 q 335 586 343 624 q 326 496 326 549 l 326 207 q 315 110 326 151 q 285 42 304 69 q 349 39 317 43 q 389 97 372 57 q 406 207 406 138 l 406 614 m 160 536 q 156 494 169 511 q 119 473 143 478 q 69 475 96 468 q 24 506 42 482 q -1 565 6 529 q 1 642 -7 601 q 33 722 10 682 q 96 792 56 761 q 156 847 135 821 q 184 893 176 874 q 188 924 192 913 q 176 935 185 935 q 209 924 200 940 q 215 897 218 908 q 308 892 263 897 q 394 883 354 888 q 463 879 433 879 q 508 890 493 879 q 527 911 524 900 q 525 933 531 922 q 507 951 519 943 q 478 963 494 958 q 531 933 519 961 q 528 868 542 906 q 481 792 515 831 q 396 733 446 754 q 235 760 310 764 q 107 729 160 756 q 28 658 54 703 q 13 563 1 614 q 49 492 22 511 q 103 476 76 474 q 149 497 131 479 q 160 536 168 514 m 415 1015 q 382 1006 392 1018 q 369 971 372 994 q 398 1040 361 1024 q 490 1026 435 1057 q 534 1011 517 1011 q 560 1019 551 1011 q 569 1040 569 1028 q 564 1060 569 1053 q 580 1039 578 1053 q 576 1011 582 1025 q 556 988 569 997 q 524 981 542 979 q 463 999 488 985 q 415 1015 439 1013 z "},"O":{"ha":1079,"x_min":-97,"x_max":1010,"o":"m 17 67 q 31 40 19 53 q 55 23 42 28 q 82 22 68 18 q 106 45 96 26 q 119 99 117 64 q 114 192 122 135 q 103 224 107 207 q 96 258 99 242 q 42 324 76 301 q -25 346 7 346 q -76 321 -57 346 q -79 244 -94 296 q -87 312 -97 276 q -51 375 -78 347 q 16 418 -24 403 q 100 426 56 433 q 179 607 129 529 q 146 627 158 613 q 129 659 133 642 q 129 692 125 676 q 147 717 133 708 q 139 697 136 710 q 154 674 142 683 q 188 665 167 665 q 236 682 208 664 q 377 784 300 751 q 533 807 454 817 q 399 761 465 804 q 286 646 333 718 q 219 478 239 574 q 222 274 199 382 q 267 158 238 208 q 336 69 296 107 q 354 114 347 85 q 361 188 361 143 l 361 511 q 353 576 361 556 q 335 604 344 597 q 310 608 324 613 q 343 638 324 622 q 444 704 378 665 q 502 739 479 722 q 542 772 525 756 q 574 804 560 788 q 604 840 588 821 q 600 879 594 864 q 616 902 606 894 q 639 910 626 910 q 656 904 651 910 q 641 906 649 907 q 629 898 633 904 q 625 880 625 892 q 636 850 625 868 q 685 815 646 831 q 774 773 724 800 q 878 701 825 746 q 971 582 932 657 q 1010 415 1010 507 q 979 233 1010 324 q 890 62 949 143 q 751 -74 831 -19 q 641 -175 672 -129 q 612 -251 610 -221 q 642 -294 614 -282 q 710 -292 671 -306 q 647 -316 676 -317 q 597 -299 618 -315 q 568 -253 576 -282 q 569 -193 560 -224 q 360 -115 457 -178 q 196 38 263 -53 q 144 1 174 13 q 88 -6 115 -10 q 41 15 61 -3 q 17 67 21 33 m 578 -36 q 717 -19 654 -43 q 785 46 769 8 q 792 113 800 83 q 756 155 783 142 q 699 147 729 168 q 731 167 708 161 q 776 171 753 174 q 822 156 800 168 q 857 124 844 144 q 880 230 875 174 q 879 340 885 286 q 858 439 874 393 q 821 514 843 485 q 759 583 789 554 q 699 632 729 611 q 639 669 669 653 q 578 704 608 686 l 578 -36 m 450 169 q 423 91 449 121 q 363 46 397 61 q 451 -6 404 14 q 547 -33 499 -26 l 547 636 q 536 699 547 679 q 513 715 525 719 q 489 682 500 711 q 478 596 478 653 l 478 256 q 484 194 478 215 q 499 165 490 172 q 517 163 508 158 q 532 179 526 168 q 519 155 529 163 q 495 147 508 147 q 469 153 482 147 q 450 169 457 158 z "},"Œ":{"ha":1746,"x_min":-89,"x_max":1743,"o":"m 1529 707 q 1623 683 1579 679 q 1694 708 1667 688 q 1726 760 1721 729 q 1704 817 1731 790 q 1733 787 1722 810 q 1737 735 1743 764 q 1705 674 1731 706 q 1625 621 1679 643 q 1554 568 1571 597 q 1542 516 1538 539 q 1565 482 1547 493 q 1600 483 1583 471 q 1577 472 1590 472 q 1551 481 1564 471 q 1528 509 1538 490 q 1514 556 1518 528 q 1433 594 1461 575 q 1392 626 1404 614 l 1392 389 l 1507 389 q 1601 405 1569 389 q 1642 440 1632 421 q 1642 477 1651 460 q 1614 497 1633 494 q 1660 437 1663 492 q 1592 304 1657 382 q 1549 228 1560 267 q 1543 164 1539 190 q 1563 128 1547 138 q 1599 136 1578 118 q 1574 119 1590 122 q 1545 130 1558 117 q 1526 177 1532 143 q 1531 271 1519 211 l 1392 271 l 1392 -104 q 1488 -99 1442 -107 q 1572 -72 1535 -90 q 1633 -28 1608 -54 q 1663 29 1657 -3 q 1651 -28 1664 -1 q 1615 -81 1638 -56 q 1561 -130 1592 -106 q 1497 -176 1531 -154 q 1459 -216 1475 -192 q 1435 -266 1443 -240 q 1427 -316 1426 -292 q 1438 -357 1428 -340 q 1469 -379 1449 -374 q 1524 -371 1490 -385 q 1474 -391 1500 -387 q 1428 -383 1449 -394 q 1394 -345 1407 -372 q 1383 -272 1381 -318 q 1122 -153 1238 -239 q 949 63 1006 -67 q 867 -57 914 -1 q 761 -153 819 -112 q 650 -254 682 -208 q 620 -331 618 -300 q 651 -373 622 -361 q 718 -371 679 -385 q 656 -395 685 -396 q 606 -377 626 -394 q 578 -331 586 -360 q 578 -272 569 -303 q 468 -244 521 -264 q 368 -194 415 -224 q 279 -125 321 -164 q 204 -42 238 -86 q 153 -78 182 -67 q 97 -85 124 -89 q 49 -62 69 -81 q 25 -11 29 -44 q 50 -48 29 -32 q 91 -56 71 -64 q 123 -11 111 -49 q 122 113 135 26 q 111 146 115 129 q 104 179 107 163 q 50 244 85 222 q -17 267 15 267 q -67 242 -49 267 q -71 165 -86 217 q -79 234 -89 199 q -42 297 -69 269 q 24 340 -15 325 q 108 349 64 356 q 188 529 138 450 q 154 549 167 533 q 138 581 142 564 q 138 615 133 599 q 156 638 142 631 q 148 617 146 631 q 163 595 150 604 q 196 586 175 586 q 244 603 217 586 q 385 705 308 672 q 542 728 463 738 q 408 682 474 725 q 294 567 342 639 q 227 399 247 494 q 231 196 207 304 q 276 78 246 129 q 346 -10 306 28 q 363 35 357 6 q 369 108 369 64 l 369 432 q 361 497 369 476 q 343 525 353 518 q 318 531 332 533 q 351 558 332 543 q 393 588 368 571 q 453 625 418 606 q 511 660 488 643 q 551 692 535 676 q 582 725 568 708 q 613 763 596 742 q 608 801 603 786 q 624 824 614 817 q 647 831 635 831 q 664 825 660 831 q 650 826 657 828 q 638 819 643 825 q 634 801 633 813 q 644 771 635 789 q 694 737 654 753 q 783 694 733 721 q 887 624 833 668 q 979 504 940 579 q 981 501 981 501 q 982 497 981 500 q 1003 524 993 511 q 1025 547 1014 536 q 1004 566 1013 553 q 992 593 996 579 q 992 619 989 607 q 1006 638 996 632 q 997 617 994 631 q 1013 595 1000 604 q 1047 586 1025 586 q 1096 604 1068 586 q 1179 644 1144 633 q 1074 535 1114 601 q 1043 469 1057 506 q 1023 385 1029 432 q 1021 283 1017 339 q 1044 161 1025 228 q 1087 63 1060 106 q 1150 -11 1114 21 q 1168 33 1161 4 q 1175 108 1175 63 l 1175 456 q 1167 503 1175 488 q 1149 525 1158 518 q 1124 531 1138 532 q 1190 583 1156 561 q 1260 626 1225 606 q 1327 669 1294 646 q 1389 724 1360 692 l 1392 728 l 1392 726 q 1405 744 1399 735 q 1418 763 1411 753 q 1410 799 1406 783 q 1425 822 1414 814 q 1449 831 1436 831 q 1469 825 1463 832 q 1449 822 1460 829 q 1440 799 1439 815 q 1460 758 1442 782 q 1529 707 1479 735 m 557 557 q 546 621 557 600 q 522 638 535 642 q 497 603 508 633 q 486 517 486 574 l 486 176 q 493 115 486 136 q 509 88 500 94 q 527 85 518 81 q 540 100 536 89 q 528 76 539 83 q 505 68 518 68 q 478 74 492 68 q 458 90 465 79 q 431 13 457 43 q 372 -32 406 -18 q 461 -84 414 -64 q 557 -111 508 -104 l 557 557 m 865 46 q 889 151 883 96 q 888 260 894 207 q 867 360 882 314 q 829 435 851 406 q 767 505 797 476 q 708 554 738 533 q 647 592 678 575 q 586 626 617 608 l 586 -115 q 658 -113 622 -118 q 725 -97 693 -108 q 793 -33 778 -69 q 800 33 808 4 q 765 76 792 63 q 708 68 739 89 q 740 88 718 82 q 785 92 761 94 q 832 78 810 89 q 865 46 854 67 m 1363 557 q 1351 613 1363 592 q 1327 634 1340 635 q 1303 606 1314 633 q 1292 517 1292 579 l 1292 176 q 1299 115 1292 136 q 1315 88 1306 94 q 1333 85 1324 81 q 1346 100 1342 89 q 1334 76 1344 83 q 1310 68 1324 68 q 1284 74 1297 68 q 1264 90 1271 79 q 1237 13 1263 43 q 1176 -32 1211 -18 q 1266 -79 1218 -62 q 1363 -101 1314 -96 l 1363 557 z "},"Ó":{"ha":1079,"x_min":-97,"x_max":1010,"o":"m 17 67 q 31 40 19 53 q 55 23 42 28 q 82 22 68 18 q 106 45 96 26 q 119 99 117 64 q 114 192 122 135 q 103 224 107 207 q 96 258 99 242 q 42 324 76 301 q -25 346 7 346 q -76 321 -57 346 q -79 244 -94 296 q -87 312 -97 276 q -51 375 -78 347 q 16 418 -24 403 q 100 426 56 433 q 179 607 129 529 q 146 627 158 613 q 129 659 133 642 q 129 692 125 676 q 147 717 133 708 q 139 697 136 710 q 154 674 142 683 q 188 665 167 665 q 236 682 208 664 q 377 784 300 751 q 533 807 454 817 q 399 761 465 804 q 286 646 333 718 q 219 478 239 574 q 222 274 199 382 q 267 158 238 208 q 336 69 296 107 q 354 114 347 85 q 361 188 361 143 l 361 511 q 353 576 361 556 q 335 604 344 597 q 310 608 324 613 q 343 638 324 622 q 444 704 378 665 q 502 739 479 722 q 542 772 525 756 q 574 804 560 788 q 604 840 588 821 q 600 879 594 864 q 616 902 606 894 q 639 910 626 910 q 656 904 651 910 q 641 906 649 907 q 629 898 633 904 q 625 880 625 892 q 636 850 625 868 q 685 815 646 831 q 774 773 724 800 q 878 701 825 746 q 971 582 932 657 q 1010 415 1010 507 q 979 233 1010 324 q 890 62 949 143 q 751 -74 831 -19 q 641 -175 672 -129 q 612 -251 610 -221 q 642 -294 614 -282 q 710 -292 671 -306 q 647 -316 676 -317 q 597 -299 618 -315 q 568 -253 576 -282 q 569 -193 560 -224 q 360 -115 457 -178 q 196 38 263 -53 q 144 1 174 13 q 88 -6 115 -10 q 41 15 61 -3 q 17 67 21 33 m 578 -36 q 717 -19 654 -43 q 785 46 769 8 q 792 113 800 83 q 756 155 783 142 q 699 147 729 168 q 731 167 708 161 q 776 171 753 174 q 822 156 800 168 q 857 124 844 144 q 880 230 875 174 q 879 340 885 286 q 858 439 874 393 q 821 514 843 485 q 759 583 789 554 q 699 632 729 611 q 639 669 669 653 q 578 704 608 686 l 578 -36 m 450 169 q 423 91 449 121 q 363 46 397 61 q 451 -6 404 14 q 547 -33 499 -26 l 547 636 q 536 699 547 679 q 513 715 525 719 q 489 682 500 711 q 478 596 478 653 l 478 256 q 484 194 478 215 q 499 165 490 172 q 517 163 508 158 q 532 179 526 168 q 519 155 529 163 q 495 147 508 147 q 469 153 482 147 q 450 169 457 158 m 500 978 l 485 986 l 557 1136 l 594 1114 l 500 978 z "},"Ô":{"ha":1079,"x_min":-97,"x_max":1010,"o":"m 17 67 q 31 40 19 53 q 55 23 42 28 q 82 22 68 18 q 106 45 96 26 q 119 99 117 64 q 114 192 122 135 q 103 224 107 207 q 96 258 99 242 q 42 324 76 301 q -25 346 7 346 q -76 321 -57 346 q -79 244 -94 296 q -87 312 -97 276 q -51 375 -78 347 q 16 418 -24 403 q 100 426 56 433 q 179 607 129 529 q 146 627 158 613 q 129 659 133 642 q 129 692 125 676 q 147 717 133 708 q 139 697 136 710 q 154 674 142 683 q 188 665 167 665 q 236 682 208 664 q 377 784 300 751 q 533 807 454 817 q 399 761 465 804 q 286 646 333 718 q 219 478 239 574 q 222 274 199 382 q 267 158 238 208 q 336 69 296 107 q 354 114 347 85 q 361 188 361 143 l 361 511 q 353 576 361 556 q 335 604 344 597 q 310 608 324 613 q 343 638 324 622 q 444 704 378 665 q 502 739 479 722 q 542 772 525 756 q 574 804 560 788 q 604 840 588 821 q 600 879 594 864 q 616 902 606 894 q 639 910 626 910 q 656 904 651 910 q 641 906 649 907 q 629 898 633 904 q 625 880 625 892 q 636 850 625 868 q 685 815 646 831 q 774 773 724 800 q 878 701 825 746 q 971 582 932 657 q 1010 415 1010 507 q 979 233 1010 324 q 890 62 949 143 q 751 -74 831 -19 q 641 -175 672 -129 q 612 -251 610 -221 q 642 -294 614 -282 q 710 -292 671 -306 q 647 -316 676 -317 q 597 -299 618 -315 q 568 -253 576 -282 q 569 -193 560 -224 q 360 -115 457 -178 q 196 38 263 -53 q 144 1 174 13 q 88 -6 115 -10 q 41 15 61 -3 q 17 67 21 33 m 578 -36 q 717 -19 654 -43 q 785 46 769 8 q 792 113 800 83 q 756 155 783 142 q 699 147 729 168 q 731 167 708 161 q 776 171 753 174 q 822 156 800 168 q 857 124 844 144 q 880 230 875 174 q 879 340 885 286 q 858 439 874 393 q 821 514 843 485 q 759 583 789 554 q 699 632 729 611 q 639 669 669 653 q 578 704 608 686 l 578 -36 m 450 169 q 423 91 449 121 q 363 46 397 61 q 451 -6 404 14 q 547 -33 499 -26 l 547 636 q 536 699 547 679 q 513 715 525 719 q 489 682 500 711 q 478 596 478 653 l 478 256 q 484 194 478 215 q 499 165 490 172 q 517 163 508 158 q 532 179 526 168 q 519 155 529 163 q 495 147 508 147 q 469 153 482 147 q 450 169 457 158 m 456 978 l 411 978 l 529 1149 l 553 1149 l 668 978 l 622 978 l 539 1096 l 456 978 z "},"Ö":{"ha":1079,"x_min":-97,"x_max":1010,"o":"m 17 67 q 31 40 19 53 q 55 23 42 28 q 82 22 68 18 q 106 45 96 26 q 119 99 117 64 q 114 192 122 135 q 103 224 107 207 q 96 258 99 242 q 42 324 76 301 q -25 346 7 346 q -76 321 -57 346 q -79 244 -94 296 q -87 312 -97 276 q -51 375 -78 347 q 16 418 -24 403 q 100 426 56 433 q 179 607 129 529 q 146 627 158 613 q 129 659 133 642 q 129 692 125 676 q 147 717 133 708 q 139 697 136 710 q 154 674 142 683 q 188 665 167 665 q 236 682 208 664 q 377 784 300 751 q 533 807 454 817 q 399 761 465 804 q 286 646 333 718 q 219 478 239 574 q 222 274 199 382 q 267 158 238 208 q 336 69 296 107 q 354 114 347 85 q 361 188 361 143 l 361 511 q 353 576 361 556 q 335 604 344 597 q 310 608 324 613 q 343 638 324 622 q 444 704 378 665 q 502 739 479 722 q 542 772 525 756 q 574 804 560 788 q 604 840 588 821 q 600 879 594 864 q 616 902 606 894 q 639 910 626 910 q 656 904 651 910 q 641 906 649 907 q 629 898 633 904 q 625 880 625 892 q 636 850 625 868 q 685 815 646 831 q 774 773 724 800 q 878 701 825 746 q 971 582 932 657 q 1010 415 1010 507 q 979 233 1010 324 q 890 62 949 143 q 751 -74 831 -19 q 641 -175 672 -129 q 612 -251 610 -221 q 642 -294 614 -282 q 710 -292 671 -306 q 647 -316 676 -317 q 597 -299 618 -315 q 568 -253 576 -282 q 569 -193 560 -224 q 360 -115 457 -178 q 196 38 263 -53 q 144 1 174 13 q 88 -6 115 -10 q 41 15 61 -3 q 17 67 21 33 m 578 -36 q 717 -19 654 -43 q 785 46 769 8 q 792 113 800 83 q 756 155 783 142 q 699 147 729 168 q 731 167 708 161 q 776 171 753 174 q 822 156 800 168 q 857 124 844 144 q 880 230 875 174 q 879 340 885 286 q 858 439 874 393 q 821 514 843 485 q 759 583 789 554 q 699 632 729 611 q 639 669 669 653 q 578 704 608 686 l 578 -36 m 450 169 q 423 91 449 121 q 363 46 397 61 q 451 -6 404 14 q 547 -33 499 -26 l 547 636 q 536 699 547 679 q 513 715 525 719 q 489 682 500 711 q 478 596 478 653 l 478 256 q 484 194 478 215 q 499 165 490 172 q 517 163 508 158 q 532 179 526 168 q 519 155 529 163 q 495 147 508 147 q 469 153 482 147 q 450 169 457 158 m 460 976 l 392 1043 l 460 1111 l 526 1043 l 460 976 m 619 976 l 551 1043 l 619 1111 l 686 1043 l 619 976 z "},"Ò":{"ha":1079,"x_min":-97,"x_max":1010,"o":"m 17 67 q 31 40 19 53 q 55 23 42 28 q 82 22 68 18 q 106 45 96 26 q 119 99 117 64 q 114 192 122 135 q 103 224 107 207 q 96 258 99 242 q 42 324 76 301 q -25 346 7 346 q -76 321 -57 346 q -79 244 -94 296 q -87 312 -97 276 q -51 375 -78 347 q 16 418 -24 403 q 100 426 56 433 q 179 607 129 529 q 146 627 158 613 q 129 659 133 642 q 129 692 125 676 q 147 717 133 708 q 139 697 136 710 q 154 674 142 683 q 188 665 167 665 q 236 682 208 664 q 377 784 300 751 q 533 807 454 817 q 399 761 465 804 q 286 646 333 718 q 219 478 239 574 q 222 274 199 382 q 267 158 238 208 q 336 69 296 107 q 354 114 347 85 q 361 188 361 143 l 361 511 q 353 576 361 556 q 335 604 344 597 q 310 608 324 613 q 343 638 324 622 q 444 704 378 665 q 502 739 479 722 q 542 772 525 756 q 574 804 560 788 q 604 840 588 821 q 600 879 594 864 q 616 902 606 894 q 639 910 626 910 q 656 904 651 910 q 641 906 649 907 q 629 898 633 904 q 625 880 625 892 q 636 850 625 868 q 685 815 646 831 q 774 773 724 800 q 878 701 825 746 q 971 582 932 657 q 1010 415 1010 507 q 979 233 1010 324 q 890 62 949 143 q 751 -74 831 -19 q 641 -175 672 -129 q 612 -251 610 -221 q 642 -294 614 -282 q 710 -292 671 -306 q 647 -316 676 -317 q 597 -299 618 -315 q 568 -253 576 -282 q 569 -193 560 -224 q 360 -115 457 -178 q 196 38 263 -53 q 144 1 174 13 q 88 -6 115 -10 q 41 15 61 -3 q 17 67 21 33 m 578 -36 q 717 -19 654 -43 q 785 46 769 8 q 792 113 800 83 q 756 155 783 142 q 699 147 729 168 q 731 167 708 161 q 776 171 753 174 q 822 156 800 168 q 857 124 844 144 q 880 230 875 174 q 879 340 885 286 q 858 439 874 393 q 821 514 843 485 q 759 583 789 554 q 699 632 729 611 q 639 669 669 653 q 578 704 608 686 l 578 -36 m 450 169 q 423 91 449 121 q 363 46 397 61 q 451 -6 404 14 q 547 -33 499 -26 l 547 636 q 536 699 547 679 q 513 715 525 719 q 489 682 500 711 q 478 596 478 653 l 478 256 q 484 194 478 215 q 499 165 490 172 q 517 163 508 158 q 532 179 526 168 q 519 155 529 163 q 495 147 508 147 q 469 153 482 147 q 450 169 457 158 m 485 1114 l 522 1136 l 594 986 l 579 978 l 485 1114 z "},"Ø":{"ha":1079,"x_min":-97,"x_max":1010,"o":"m 17 67 q 31 40 19 53 q 55 23 42 28 q 82 22 68 18 q 106 45 96 26 q 119 99 117 64 q 114 192 122 135 q 103 224 107 207 q 96 258 99 242 q 42 324 76 301 q -25 346 7 346 q -76 321 -57 346 q -79 244 -94 296 q -87 312 -97 276 q -51 375 -78 347 q 16 418 -24 403 q 100 426 56 433 q 179 607 129 529 q 146 627 158 613 q 129 659 133 642 q 129 692 125 676 q 147 717 133 708 q 139 697 136 710 q 154 674 142 683 q 188 665 167 665 q 236 682 208 664 q 377 784 300 751 q 533 807 454 817 q 399 761 465 804 q 286 646 333 718 q 219 478 239 574 q 222 274 199 382 q 267 158 238 208 q 336 69 296 107 q 354 114 347 85 q 361 188 361 143 l 361 511 q 353 576 361 556 q 335 604 344 597 q 310 608 324 613 q 343 638 324 622 q 444 704 378 665 q 502 739 479 722 q 542 772 525 756 q 574 804 560 788 q 604 840 588 821 q 600 879 594 864 q 616 902 606 894 q 639 910 626 910 q 656 904 651 910 q 641 906 649 907 q 629 898 633 904 q 625 880 625 892 q 636 850 625 868 q 685 815 646 831 q 774 773 724 800 q 878 701 825 746 q 971 582 932 657 q 1010 415 1010 507 q 979 233 1010 324 q 890 62 949 143 q 751 -74 831 -19 q 641 -175 672 -129 q 612 -251 610 -221 q 642 -294 614 -282 q 710 -292 671 -306 q 647 -316 676 -317 q 597 -299 618 -315 q 568 -253 576 -282 q 569 -193 560 -224 q 360 -115 457 -178 q 196 38 263 -53 q 144 1 174 13 q 88 -6 115 -10 q 41 15 61 -3 q 17 67 21 33 m 578 -36 q 717 -19 654 -43 q 785 46 769 8 q 792 113 800 83 q 756 155 783 142 q 699 147 729 168 q 731 167 708 161 q 776 171 753 174 q 822 156 800 168 q 857 124 844 144 q 880 230 875 174 q 879 340 885 286 q 858 439 874 393 q 821 514 843 485 q 759 583 789 554 q 699 632 729 611 q 639 669 669 653 q 578 704 608 686 l 578 -36 m 450 169 q 423 91 449 121 q 363 46 397 61 q 451 -6 404 14 q 547 -33 499 -26 l 547 636 q 536 699 547 679 q 513 715 525 719 q 489 682 500 711 q 478 596 478 653 l 478 256 q 484 194 478 215 q 499 165 490 172 q 517 163 508 158 q 532 179 526 168 q 519 155 529 163 q 495 147 508 147 q 469 153 482 147 q 450 169 457 158 m 492 58 q 488 28 486 39 q 494 12 490 17 q 504 7 499 7 q 513 10 510 7 q 494 5 507 3 q 476 11 482 7 q 453 -7 468 -3 q 426 -10 439 -11 q 401 -3 413 -8 q 388 8 390 1 q 411 3 397 -1 q 432 32 425 7 l 586 607 q 590 638 592 626 q 585 653 589 649 q 575 658 581 658 q 567 657 569 658 q 584 662 571 664 q 603 656 597 660 q 626 674 611 669 q 653 676 640 678 q 677 669 667 675 q 690 658 688 664 q 667 664 681 668 q 646 635 653 660 l 492 58 z "},"Õ":{"ha":1079,"x_min":-97,"x_max":1010,"o":"m 17 67 q 31 40 19 53 q 55 23 42 28 q 82 22 68 18 q 106 45 96 26 q 119 99 117 64 q 114 192 122 135 q 103 224 107 207 q 96 258 99 242 q 42 324 76 301 q -25 346 7 346 q -76 321 -57 346 q -79 244 -94 296 q -87 312 -97 276 q -51 375 -78 347 q 16 418 -24 403 q 100 426 56 433 q 179 607 129 529 q 146 627 158 613 q 129 659 133 642 q 129 692 125 676 q 147 717 133 708 q 139 697 136 710 q 154 674 142 683 q 188 665 167 665 q 236 682 208 664 q 377 784 300 751 q 533 807 454 817 q 399 761 465 804 q 286 646 333 718 q 219 478 239 574 q 222 274 199 382 q 267 158 238 208 q 336 69 296 107 q 354 114 347 85 q 361 188 361 143 l 361 511 q 353 576 361 556 q 335 604 344 597 q 310 608 324 613 q 343 638 324 622 q 444 704 378 665 q 502 739 479 722 q 542 772 525 756 q 574 804 560 788 q 604 840 588 821 q 600 879 594 864 q 616 902 606 894 q 639 910 626 910 q 656 904 651 910 q 641 906 649 907 q 629 898 633 904 q 625 880 625 892 q 636 850 625 868 q 685 815 646 831 q 774 773 724 800 q 878 701 825 746 q 971 582 932 657 q 1010 415 1010 507 q 979 233 1010 324 q 890 62 949 143 q 751 -74 831 -19 q 641 -175 672 -129 q 612 -251 610 -221 q 642 -294 614 -282 q 710 -292 671 -306 q 647 -316 676 -317 q 597 -299 618 -315 q 568 -253 576 -282 q 569 -193 560 -224 q 360 -115 457 -178 q 196 38 263 -53 q 144 1 174 13 q 88 -6 115 -10 q 41 15 61 -3 q 17 67 21 33 m 578 -36 q 717 -19 654 -43 q 785 46 769 8 q 792 113 800 83 q 756 155 783 142 q 699 147 729 168 q 731 167 708 161 q 776 171 753 174 q 822 156 800 168 q 857 124 844 144 q 880 230 875 174 q 879 340 885 286 q 858 439 874 393 q 821 514 843 485 q 759 583 789 554 q 699 632 729 611 q 639 669 669 653 q 578 704 608 686 l 578 -36 m 450 169 q 423 91 449 121 q 363 46 397 61 q 451 -6 404 14 q 547 -33 499 -26 l 547 636 q 536 699 547 679 q 513 715 525 719 q 489 682 500 711 q 478 596 478 653 l 478 256 q 484 194 478 215 q 499 165 490 172 q 517 163 508 158 q 532 179 526 168 q 519 155 529 163 q 495 147 508 147 q 469 153 482 147 q 450 169 457 158 m 475 1015 q 442 1006 451 1018 q 429 971 432 994 q 458 1040 421 1024 q 550 1026 494 1057 q 594 1011 576 1011 q 620 1019 611 1011 q 629 1040 629 1028 q 624 1060 629 1053 q 640 1039 638 1053 q 635 1011 642 1025 q 615 988 629 997 q 583 981 601 979 q 523 999 547 985 q 475 1015 499 1013 z "},"P":{"ha":949,"x_min":1,"x_max":956,"o":"m 414 613 q 442 683 414 653 q 503 743 469 713 q 562 811 536 774 q 583 904 588 849 q 700 891 650 904 q 785 856 750 878 q 841 805 819 833 q 874 746 863 776 q 899 711 885 719 q 924 705 913 703 q 942 716 935 707 q 949 732 950 725 q 935 691 956 708 q 888 672 915 674 l 888 664 l 888 478 q 860 382 888 429 q 791 301 833 335 q 695 258 749 268 q 589 272 642 247 q 531 319 550 292 l 531 207 q 494 90 531 136 q 411 24 457 44 q 488 -18 456 7 q 540 -64 521 -43 q 543 -68 543 -67 q 567 -78 556 -81 q 585 -67 578 -76 q 594 -42 592 -57 q 592 -15 596 -28 q 601 -51 604 -32 q 588 -94 597 -71 q 565 -147 578 -118 q 543 -212 551 -176 q 540 -247 540 -231 q 545 -274 540 -262 q 561 -291 550 -286 q 592 -292 572 -296 q 565 -299 579 -300 q 541 -288 551 -297 q 525 -263 531 -279 q 524 -226 519 -247 q 381 -121 450 -151 q 256 -90 311 -90 q 160 -114 200 -90 q 106 -171 121 -137 q 102 -241 90 -204 q 161 -303 114 -278 q 99 -260 122 -293 q 69 -186 75 -228 q 78 -99 64 -144 q 129 -19 93 -54 q 74 15 97 -8 q 39 71 50 38 q 38 155 24 122 q 78 201 53 188 q 128 212 103 215 q 158 189 153 208 q 125 204 147 203 q 83 192 103 206 q 53 149 63 178 q 57 78 43 121 q 97 11 69 33 q 150 -1 124 -11 q 197 59 176 10 q 217 207 217 108 l 217 238 q 199 313 217 283 q 158 357 182 343 q 106 370 133 371 q 57 356 78 369 q 26 317 36 343 q 26 253 15 290 q 19 323 8 286 q 58 388 29 360 q 129 430 88 415 q 217 433 171 444 l 217 532 q 228 585 217 560 q 199 601 211 590 q 181 624 188 611 q 176 648 175 636 q 186 667 176 660 q 181 647 178 658 q 196 628 183 635 q 228 626 208 622 q 276 651 249 629 q 357 695 314 683 q 424 704 400 707 q 392 686 408 700 q 364 647 376 672 q 343 585 351 622 q 335 494 335 547 l 335 207 q 324 110 335 151 q 293 42 313 69 q 357 38 328 44 q 397 97 381 57 q 414 207 414 138 l 414 613 m 531 426 q 569 452 546 446 q 615 439 592 458 q 559 439 579 453 q 535 399 539 425 q 543 341 531 372 q 586 292 556 310 q 649 276 617 274 q 709 302 682 279 q 753 369 736 325 q 771 478 771 413 l 771 600 q 753 711 771 671 q 709 772 736 751 q 650 797 682 792 q 589 803 618 803 q 560 756 572 783 q 540 697 549 732 q 531 613 531 661 l 531 426 m 486 963 q 539 933 528 961 q 537 867 550 904 q 489 792 524 829 q 404 733 454 754 q 243 759 318 763 q 115 728 168 756 q 36 658 63 701 q 21 563 10 614 q 58 492 31 511 q 112 476 85 474 q 158 496 139 478 q 168 535 176 514 q 165 494 178 511 q 128 472 151 478 q 77 474 104 467 q 32 504 50 481 q 8 564 14 528 q 10 641 1 600 q 41 722 18 682 q 104 790 64 761 q 164 847 143 821 q 192 893 185 874 q 197 924 200 913 q 185 935 193 935 q 217 924 208 940 q 224 897 226 908 q 317 892 271 897 q 402 882 363 886 q 472 878 442 878 q 517 889 501 878 q 535 910 532 899 q 533 931 539 921 q 515 950 528 942 q 486 963 503 958 z "},"Q":{"ha":1064,"x_min":-112,"x_max":1154,"o":"m 294 608 q 328 638 308 622 q 429 704 363 665 q 487 739 464 722 q 527 772 510 756 q 558 804 544 788 q 589 840 572 821 q 584 879 579 864 q 599 902 589 894 q 622 910 610 910 q 639 904 635 910 q 626 906 633 907 q 613 898 618 904 q 609 880 608 892 q 619 850 610 868 q 647 827 626 838 q 696 803 667 817 q 759 773 725 790 q 828 730 793 756 q 895 668 863 704 q 954 582 928 632 q 991 458 983 525 q 987 322 999 390 q 945 185 975 253 q 871 57 915 117 l 986 -58 q 1063 -114 1029 -103 q 1118 -118 1097 -125 q 1144 -92 1139 -111 q 1139 -58 1150 -74 q 1151 -97 1154 -78 q 1128 -133 1149 -117 q 1073 -162 1108 -150 q 988 -178 1038 -174 q 903 -201 938 -182 q 853 -243 869 -221 q 842 -283 838 -265 q 874 -303 846 -301 q 844 -297 858 -306 q 831 -269 831 -287 q 851 -222 831 -250 q 921 -158 871 -193 l 792 -29 q 765 -53 778 -42 q 736 -74 751 -64 q 626 -175 657 -129 q 597 -251 594 -221 q 627 -294 599 -282 q 694 -292 656 -306 q 632 -316 661 -317 q 582 -299 603 -315 q 553 -253 561 -282 q 554 -193 544 -224 q 343 -115 440 -178 q 179 38 246 -53 q 128 1 157 13 q 73 -6 100 -10 q 25 15 46 -3 q 0 67 4 33 q 26 31 6 46 q 66 22 46 15 q 98 67 86 29 q 97 192 110 106 q 87 224 92 207 q 79 258 82 242 q 25 324 60 301 q -42 346 -10 346 q -92 321 -74 346 q -94 244 -110 296 q -103 312 -112 276 q -67 375 -94 347 q 0 418 -40 403 q 85 426 40 433 q 119 524 99 479 q 163 607 139 568 q 129 627 142 613 q 113 659 117 642 q 113 692 108 676 q 131 717 117 708 q 123 697 121 710 q 138 674 125 683 q 172 665 150 665 q 221 682 193 664 q 361 784 285 751 q 517 807 438 817 q 383 761 449 804 q 269 646 317 718 q 202 478 222 574 q 206 274 182 382 q 251 158 221 208 q 321 69 281 107 q 338 114 332 85 q 344 188 344 143 l 344 511 q 337 576 344 556 q 319 604 329 597 q 294 608 308 613 m 561 -36 q 701 -19 639 -43 q 754 22 736 -1 q 777 69 772 46 q 776 112 782 92 q 756 144 769 132 q 723 159 742 157 q 683 147 704 161 q 715 167 693 161 q 760 171 736 174 q 807 156 785 168 q 840 124 829 144 q 864 230 858 174 q 863 340 869 286 q 842 439 857 393 q 804 514 826 485 q 742 583 772 554 q 683 632 713 611 q 622 669 653 653 q 561 704 592 686 l 561 -36 m 517 179 q 503 155 514 163 q 480 147 493 147 q 453 153 467 147 q 433 169 440 158 q 407 91 433 121 q 347 46 381 61 q 436 -6 389 14 q 532 -33 483 -26 l 532 636 q 521 699 532 679 q 497 715 510 719 q 474 682 485 711 q 463 596 463 653 l 463 256 q 469 194 463 215 q 484 165 475 172 q 502 163 493 158 q 517 179 511 168 z "},"R":{"ha":965,"x_min":-26,"x_max":1029,"o":"m 158 935 q 190 924 181 940 q 196 897 199 908 q 289 892 243 897 q 374 882 335 886 q 444 878 414 878 q 489 889 474 878 q 506 931 519 910 q 458 963 493 953 q 512 933 500 961 q 510 867 524 904 q 461 792 496 829 q 376 733 426 754 q 216 759 290 763 q 89 728 142 756 q 10 658 36 701 q -7 563 -17 614 q 31 492 3 511 q 85 476 58 474 q 131 496 113 478 q 142 535 149 514 q 137 494 150 511 q 100 472 124 478 q 49 474 76 467 q 4 504 22 481 q -20 564 -14 528 q -18 641 -26 600 q 13 722 -10 682 q 76 790 36 761 q 136 847 115 821 q 165 893 157 874 q 169 924 172 913 q 158 935 167 935 m 496 -226 q 353 -121 422 -151 q 228 -90 283 -90 q 133 -114 172 -90 q 78 -171 93 -137 q 74 -241 63 -204 q 133 -303 86 -278 q 71 -260 94 -293 q 42 -186 47 -228 q 51 -99 38 -144 q 101 -19 65 -54 q 46 15 69 -8 q 11 71 22 38 q 10 155 -4 122 q 50 201 25 188 q 100 212 75 215 q 131 189 125 208 q 97 204 119 203 q 56 192 75 206 q 26 149 36 178 q 29 78 17 121 q 69 11 42 33 q 123 -1 96 -11 q 170 59 150 10 q 190 207 190 108 l 190 238 q 173 313 190 283 q 131 357 156 343 q 78 370 106 371 q 29 356 50 369 q -2 317 8 343 q -1 253 -12 290 q -9 323 -19 286 q 31 388 1 360 q 102 430 60 415 q 190 433 144 444 l 190 532 q 200 585 190 564 q 173 601 185 590 q 155 624 161 611 q 149 648 149 636 q 158 667 150 660 q 153 647 150 658 q 168 628 156 635 q 201 626 181 622 q 250 651 222 629 q 289 678 268 667 q 330 695 310 689 q 367 703 350 701 q 396 704 385 706 q 365 686 381 700 q 336 647 349 672 q 315 585 324 622 q 307 494 307 547 l 307 207 q 296 110 307 151 q 265 42 285 69 q 329 38 300 43 q 369 97 353 57 q 386 207 386 138 l 386 613 q 399 660 386 639 q 433 702 413 682 q 476 742 453 722 q 517 786 499 763 q 548 838 536 810 q 557 904 560 867 q 736 856 668 904 q 832 735 804 807 q 865 692 847 704 q 897 683 882 681 q 919 697 911 685 q 922 728 926 710 q 926 697 929 713 q 911 670 922 682 q 883 652 900 658 q 850 647 867 646 q 846 574 853 611 q 803 488 835 519 q 732 433 772 457 l 897 325 q 878 310 886 321 q 865 281 871 300 q 860 231 860 263 l 860 -121 q 879 -217 860 -183 q 926 -253 899 -250 q 981 -231 953 -257 q 1029 -151 1010 -206 q 990 -246 1025 -207 q 911 -292 956 -285 q 824 -266 867 -299 q 763 -146 781 -233 q 742 -166 756 -158 q 713 -174 728 -174 q 687 -165 699 -174 q 671 -137 675 -157 q 687 -155 675 -149 q 711 -157 699 -161 q 733 -135 724 -153 q 743 -78 743 -117 l 743 247 q 731 329 743 299 q 701 373 719 360 q 662 385 683 386 q 621 372 640 383 q 578 338 597 357 q 547 293 560 319 q 532 209 522 243 q 565 161 542 175 q 616 156 589 147 q 653 200 643 164 q 635 161 653 178 q 595 141 618 144 q 549 153 572 138 q 515 208 526 168 q 519 286 504 249 q 562 358 533 324 q 626 425 590 393 q 692 489 661 457 q 722 542 713 510 q 731 610 732 575 q 719 681 731 646 q 685 744 707 717 q 633 789 664 772 q 561 803 601 806 q 532 756 544 783 q 513 697 521 732 q 504 613 504 661 l 504 207 q 467 90 504 136 q 383 24 429 44 q 460 -18 428 7 q 513 -64 493 -43 l 517 -68 q 540 -78 529 -81 q 557 -67 550 -76 q 567 -42 564 -57 q 565 -15 569 -28 q 574 -51 576 -32 q 560 -94 571 -71 q 537 -147 550 -118 q 515 -212 524 -176 q 513 -247 513 -231 q 517 -274 513 -262 q 533 -291 522 -286 q 564 -292 544 -296 q 538 -299 551 -300 q 513 -288 524 -297 q 497 -263 503 -279 q 496 -226 492 -247 z "},"S":{"ha":954,"x_min":-44,"x_max":907,"o":"m 150 826 q 145 793 139 808 q 181 780 151 778 q 269 806 211 782 q 422 892 328 831 q 456 949 431 928 q 517 958 481 971 q 476 948 493 964 q 461 906 460 932 q 486 848 463 879 q 567 792 510 817 q 663 764 622 767 q 727 769 703 761 q 758 794 751 778 q 757 824 765 810 q 767 779 779 808 q 718 722 754 750 q 781 708 757 724 q 806 663 806 692 q 776 697 801 685 q 712 699 751 710 q 622 649 672 689 q 518 529 572 610 q 634 519 581 519 q 718 525 688 518 q 772 549 758 535 q 785 578 785 564 q 772 611 785 593 q 807 573 803 594 q 803 532 811 551 q 771 486 793 508 q 831 447 804 474 q 875 381 854 424 q 901 268 896 339 q 887 135 907 197 q 828 19 867 74 q 737 -81 790 -35 q 622 -165 683 -126 q 538 -233 561 -204 q 513 -279 515 -261 q 525 -315 508 -301 q 501 -293 511 -308 q 489 -262 493 -282 q 494 -211 485 -242 q 444 -147 476 -179 q 292 -196 361 -185 q 169 -203 222 -207 q 79 -185 115 -199 q 26 -158 43 -171 q -29 -94 -11 -131 q -43 -23 -44 -64 q 3 67 -42 18 q 106 113 39 106 q 251 106 172 121 q 285 176 265 139 q 135 272 197 213 q 57 425 72 332 q 54 444 54 436 q 23 448 39 444 q -7 460 7 451 q -31 484 -21 469 q -40 519 -40 499 q -28 495 -39 506 q -1 485 -17 485 q 30 499 14 485 q 57 551 46 514 q 76 608 64 585 q 101 647 89 632 q 132 676 117 664 q 110 626 117 656 q 104 563 103 601 q 125 472 106 525 q 208 372 147 411 q 349 310 269 333 q 370 353 360 332 q 392 397 381 375 q 328 414 358 404 q 271 439 297 424 q 218 477 239 456 q 184 522 197 499 q 165 569 171 544 q 157 617 158 593 q 171 729 153 671 q 143 765 153 747 q 134 797 135 781 q 150 826 133 814 m 39 -128 q 88 -153 57 -142 q 164 -166 118 -164 q 270 -157 210 -168 q 408 -115 331 -146 q 322 -58 368 -83 q 232 -17 276 -33 q 220 -35 225 -26 q 208 -51 215 -43 q 163 -84 189 -76 q 116 -87 138 -92 q 82 -70 94 -83 q 76 -39 69 -57 q 86 -63 76 -54 q 113 -71 96 -72 q 151 -54 129 -69 q 194 -4 172 -39 q 106 13 146 11 q 44 1 67 15 q 22 -15 31 -4 q 10 -37 15 -24 q 4 -66 4 -50 q 12 -98 4 -82 q 39 -128 19 -114 m 292 97 q 442 44 368 78 q 569 -32 515 10 q 629 22 615 -3 q 629 67 643 47 q 576 101 615 86 q 474 125 536 115 q 397 141 433 132 q 324 161 360 150 q 292 97 307 125 m 801 285 q 747 331 785 314 q 660 356 710 347 q 553 372 611 365 q 439 388 496 378 q 415 342 426 364 q 393 299 404 319 q 488 282 440 288 q 583 274 536 276 q 690 241 649 269 q 738 167 731 213 q 712 63 744 121 q 599 -57 679 4 q 638 -99 619 -75 q 755 -4 711 -54 q 817 97 799 46 q 830 195 835 147 q 801 285 825 243 m 453 710 q 340 765 388 753 q 263 767 292 778 q 224 728 233 757 q 226 660 214 699 q 256 619 233 638 q 311 585 278 600 q 385 558 344 569 q 469 538 426 546 q 498 581 485 561 q 525 618 511 601 q 554 649 539 635 q 585 674 569 663 q 519 681 553 672 q 453 710 485 689 z "},"Š":{"ha":954,"x_min":-44,"x_max":907,"o":"m 150 826 q 145 793 139 808 q 181 780 151 778 q 269 806 211 782 q 422 892 328 831 q 456 949 431 928 q 517 958 481 971 q 476 948 493 964 q 461 906 460 932 q 486 848 463 879 q 567 792 510 817 q 663 764 622 767 q 727 769 703 761 q 758 794 751 778 q 757 824 765 810 q 767 779 779 808 q 718 722 754 750 q 781 708 757 724 q 806 663 806 692 q 776 697 801 685 q 712 699 751 710 q 622 649 672 689 q 518 529 572 610 q 634 519 581 519 q 718 525 688 518 q 772 549 758 535 q 785 578 785 564 q 772 611 785 593 q 807 573 803 594 q 803 532 811 551 q 771 486 793 508 q 831 447 804 474 q 875 381 854 424 q 901 268 896 339 q 887 135 907 197 q 828 19 867 74 q 737 -81 790 -35 q 622 -165 683 -126 q 538 -233 561 -204 q 513 -279 515 -261 q 525 -315 508 -301 q 501 -293 511 -308 q 489 -262 493 -282 q 494 -211 485 -242 q 444 -147 476 -179 q 292 -196 361 -185 q 169 -203 222 -207 q 79 -185 115 -199 q 26 -158 43 -171 q -29 -94 -11 -131 q -43 -23 -44 -64 q 3 67 -42 18 q 106 113 39 106 q 251 106 172 121 q 285 176 265 139 q 135 272 197 213 q 57 425 72 332 q 54 444 54 436 q 23 448 39 444 q -7 460 7 451 q -31 484 -21 469 q -40 519 -40 499 q -28 495 -39 506 q -1 485 -17 485 q 30 499 14 485 q 57 551 46 514 q 76 608 64 585 q 101 647 89 632 q 132 676 117 664 q 110 626 117 656 q 104 563 103 601 q 125 472 106 525 q 208 372 147 411 q 349 310 269 333 q 370 353 360 332 q 392 397 381 375 q 328 414 358 404 q 271 439 297 424 q 218 477 239 456 q 184 522 197 499 q 165 569 171 544 q 157 617 158 593 q 171 729 153 671 q 143 765 153 747 q 134 797 135 781 q 150 826 133 814 m 39 -128 q 88 -153 57 -142 q 164 -166 118 -164 q 270 -157 210 -168 q 408 -115 331 -146 q 322 -58 368 -83 q 232 -17 276 -33 q 220 -35 225 -26 q 208 -51 215 -43 q 163 -84 189 -76 q 116 -87 138 -92 q 82 -70 94 -83 q 76 -39 69 -57 q 86 -63 76 -54 q 113 -71 96 -72 q 151 -54 129 -69 q 194 -4 172 -39 q 106 13 146 11 q 44 1 67 15 q 22 -15 31 -4 q 10 -37 15 -24 q 4 -66 4 -50 q 12 -98 4 -82 q 39 -128 19 -114 m 292 97 q 442 44 368 78 q 569 -32 515 10 q 629 22 615 -3 q 629 67 643 47 q 576 101 615 86 q 474 125 536 115 q 397 141 433 132 q 324 161 360 150 q 292 97 307 125 m 801 285 q 747 331 785 314 q 660 356 710 347 q 553 372 611 365 q 439 388 496 378 q 415 342 426 364 q 393 299 404 319 q 488 282 440 288 q 583 274 536 276 q 690 241 649 269 q 738 167 731 213 q 712 63 744 121 q 599 -57 679 4 q 638 -99 619 -75 q 755 -4 711 -54 q 817 97 799 46 q 830 195 835 147 q 801 285 825 243 m 453 710 q 340 765 388 753 q 263 767 292 778 q 224 728 233 757 q 226 660 214 699 q 256 619 233 638 q 311 585 278 600 q 385 558 344 569 q 469 538 426 546 q 498 581 485 561 q 525 618 511 601 q 554 649 539 635 q 585 674 569 663 q 519 681 553 672 q 453 710 485 689 m 476 1025 l 560 1143 l 606 1143 l 490 972 l 467 972 l 349 1143 l 393 1143 l 476 1025 z "},"T":{"ha":785,"x_min":-117,"x_max":951,"o":"m 18 451 q -42 553 -35 493 q -6 673 -50 613 q 138 784 39 733 q 399 857 238 835 q 403 908 396 888 q 424 940 411 929 q 451 950 436 950 q 479 939 467 950 q 445 934 456 946 q 447 901 435 922 q 502 854 460 881 q 628 807 544 828 q 777 795 711 785 q 881 833 843 806 q 927 898 919 861 q 901 967 935 935 q 944 917 936 949 q 931 847 951 886 q 865 763 911 807 q 749 678 819 719 q 676 608 701 650 q 641 522 650 567 q 638 435 632 476 q 658 365 643 393 q 697 330 674 338 q 744 347 719 322 q 709 319 731 324 q 666 324 688 314 q 625 362 644 335 q 597 430 606 389 q 594 526 589 471 q 626 650 600 582 q 592 663 610 657 q 558 674 575 668 l 558 -26 q 651 -22 606 -29 q 733 3 696 -14 q 795 47 769 21 q 829 108 821 74 q 815 45 828 72 q 781 -4 801 18 q 733 -47 760 -26 q 678 -87 707 -67 q 600 -174 615 -133 q 596 -244 585 -215 q 635 -286 607 -272 q 690 -292 664 -300 q 643 -312 668 -308 q 597 -303 618 -315 q 561 -265 575 -292 q 550 -193 547 -237 q 341 -109 438 -169 q 178 38 244 -49 q 126 1 156 13 q 70 -6 97 -10 q 22 15 43 -3 q -3 67 1 33 q 24 29 3 44 q 65 22 44 14 q 96 72 85 31 q 92 204 107 113 q 88 215 89 210 q 86 226 88 221 q 38 310 75 281 q -34 344 1 340 q -92 324 -69 349 q -99 244 -115 300 q -107 313 -117 278 q -69 376 -97 349 q -1 419 -42 404 q 85 426 40 435 q 129 546 97 486 q 194 647 161 604 q 260 719 228 689 q 112 697 176 717 q 12 641 47 676 q -25 558 -24 606 q 18 451 -26 510 m 431 169 q 406 94 431 124 q 349 49 381 64 q 433 1 388 19 q 529 -25 478 -18 l 529 682 q 494 692 511 688 q 458 700 476 696 l 458 256 q 465 194 458 215 q 481 165 472 172 q 499 163 490 158 q 513 179 508 168 q 501 155 511 163 q 477 147 490 147 q 451 153 464 147 q 431 169 438 158 m 317 718 q 244 624 276 681 q 194 488 213 568 q 206 259 171 369 q 321 74 240 149 q 336 117 331 89 q 342 188 342 144 l 342 717 q 329 717 335 717 q 317 718 324 718 z "},"U":{"ha":993,"x_min":-114,"x_max":1015,"o":"m 89 226 q 41 310 78 281 q -31 344 4 340 q -90 324 -67 349 q -96 244 -112 300 q -105 312 -114 276 q -69 375 -96 347 q -1 418 -42 403 q 83 426 39 433 q 127 540 97 490 q 193 625 157 589 q 172 645 181 632 q 161 672 164 658 q 162 699 158 686 q 175 717 165 711 q 167 697 164 710 q 182 674 169 683 q 215 665 194 665 q 264 682 236 664 q 310 708 288 697 q 347 724 332 718 q 243 614 283 681 q 213 548 226 585 q 192 464 199 511 q 190 361 186 417 q 214 239 194 306 q 256 142 229 183 q 319 68 283 100 q 338 113 331 83 q 344 188 344 142 l 344 613 l 344 614 q 362 663 344 640 q 403 706 379 685 q 456 749 428 728 q 505 794 483 769 q 535 847 526 818 q 533 913 544 876 q 560 840 563 874 l 560 -26 q 697 -10 633 -29 q 796 44 760 8 l 796 639 q 785 759 796 713 q 758 831 774 806 q 723 864 742 857 q 688 866 704 871 q 659 849 671 861 q 647 822 647 836 q 677 872 647 858 q 747 876 707 886 q 825 829 786 865 q 882 731 864 793 q 908 766 890 756 q 942 776 925 776 q 975 767 960 776 q 994 744 990 758 q 967 764 982 761 q 940 756 953 767 q 920 722 928 746 q 913 657 913 697 l 913 83 q 928 -43 913 -4 q 963 -89 944 -82 q 999 -79 982 -96 q 1015 -42 1015 -62 q 990 -94 1015 -78 q 930 -105 965 -111 q 858 -69 894 -99 q 800 18 822 -39 q 742 -42 776 -14 q 667 -99 707 -71 q 615 -162 633 -122 q 597 -238 596 -203 q 620 -293 597 -274 q 693 -292 643 -312 q 643 -312 669 -308 q 596 -305 617 -317 q 563 -266 575 -293 q 553 -193 550 -239 q 342 -109 439 -168 q 179 38 246 -50 q 128 1 157 13 q 72 -6 99 -10 q 24 15 44 -3 q -1 67 3 33 q 25 29 4 44 q 67 22 46 14 q 99 72 88 31 q 94 206 110 114 q 89 226 92 213 m 432 169 q 406 91 432 121 q 346 46 379 61 q 435 0 388 17 q 531 -24 482 -17 l 531 776 q 486 713 510 747 q 461 626 463 678 l 461 613 l 461 256 q 467 194 461 215 q 483 165 474 172 q 501 163 492 158 q 515 179 510 168 q 502 155 513 163 q 478 147 492 147 q 452 153 465 147 q 432 169 439 158 m 65 751 q 8 692 31 726 q -21 622 -15 657 q -12 560 -26 588 q 43 522 3 532 q -26 558 -8 526 q -35 633 -43 590 q 0 719 -28 675 q 68 793 28 764 q 128 850 107 824 q 157 896 150 876 q 161 926 164 915 q 150 938 158 938 q 169 937 161 940 q 181 927 176 933 q 188 913 186 921 q 189 900 190 906 q 282 894 236 900 q 367 885 328 889 q 436 881 406 881 q 482 892 467 881 q 501 913 497 901 q 499 934 504 924 q 481 953 493 944 q 451 965 468 961 q 504 935 493 964 q 502 869 515 907 q 454 794 489 832 q 369 736 419 757 q 179 783 253 785 q 65 751 106 781 z "},"Ú":{"ha":993,"x_min":-114,"x_max":1015,"o":"m 89 226 q 41 310 78 281 q -31 344 4 340 q -90 324 -67 349 q -96 244 -112 300 q -105 312 -114 276 q -69 375 -96 347 q -1 418 -42 403 q 83 426 39 433 q 127 540 97 490 q 193 625 157 589 q 172 645 181 632 q 161 672 164 658 q 162 699 158 686 q 175 717 165 711 q 167 697 164 710 q 182 674 169 683 q 215 665 194 665 q 264 682 236 664 q 310 708 288 697 q 347 724 332 718 q 243 614 283 681 q 213 548 226 585 q 192 464 199 511 q 190 361 186 417 q 214 239 194 306 q 256 142 229 183 q 319 68 283 100 q 338 113 331 83 q 344 188 344 142 l 344 613 l 344 614 q 362 663 344 640 q 403 706 379 685 q 456 749 428 728 q 505 794 483 769 q 535 847 526 818 q 533 913 544 876 q 560 840 563 874 l 560 -26 q 697 -10 633 -29 q 796 44 760 8 l 796 639 q 785 759 796 713 q 758 831 774 806 q 723 864 742 857 q 688 866 704 871 q 659 849 671 861 q 647 822 647 836 q 677 872 647 858 q 747 876 707 886 q 825 829 786 865 q 882 731 864 793 q 908 766 890 756 q 942 776 925 776 q 975 767 960 776 q 994 744 990 758 q 967 764 982 761 q 940 756 953 767 q 920 722 928 746 q 913 657 913 697 l 913 83 q 928 -43 913 -4 q 963 -89 944 -82 q 999 -79 982 -96 q 1015 -42 1015 -62 q 990 -94 1015 -78 q 930 -105 965 -111 q 858 -69 894 -99 q 800 18 822 -39 q 742 -42 776 -14 q 667 -99 707 -71 q 615 -162 633 -122 q 597 -238 596 -203 q 620 -293 597 -274 q 693 -292 643 -312 q 643 -312 669 -308 q 596 -305 617 -317 q 563 -266 575 -293 q 553 -193 550 -239 q 342 -109 439 -168 q 179 38 246 -50 q 128 1 157 13 q 72 -6 99 -10 q 24 15 44 -3 q -1 67 3 33 q 25 29 4 44 q 67 22 46 14 q 99 72 88 31 q 94 206 110 114 q 89 226 92 213 m 432 169 q 406 91 432 121 q 346 46 379 61 q 435 0 388 17 q 531 -24 482 -17 l 531 776 q 486 713 510 747 q 461 626 463 678 l 461 613 l 461 256 q 467 194 461 215 q 483 165 474 172 q 501 163 492 158 q 515 179 510 168 q 502 155 513 163 q 478 147 492 147 q 452 153 465 147 q 432 169 439 158 m 65 751 q 8 692 31 726 q -21 622 -15 657 q -12 560 -26 588 q 43 522 3 532 q -26 558 -8 526 q -35 633 -43 590 q 0 719 -28 675 q 68 793 28 764 q 128 850 107 824 q 157 896 150 876 q 161 926 164 915 q 150 938 158 938 q 169 937 161 940 q 181 927 176 933 q 188 913 186 921 q 189 900 190 906 q 282 894 236 900 q 367 885 328 889 q 436 881 406 881 q 482 892 467 881 q 501 913 497 901 q 499 934 504 924 q 481 953 493 944 q 451 965 468 961 q 504 935 493 964 q 502 869 515 907 q 454 794 489 832 q 369 736 419 757 q 179 783 253 785 q 65 751 106 781 m 457 978 l 442 986 l 514 1136 l 551 1114 l 457 978 z "},"Û":{"ha":993,"x_min":-114,"x_max":1015,"o":"m 89 226 q 41 310 78 281 q -31 344 4 340 q -90 324 -67 349 q -96 244 -112 300 q -105 312 -114 276 q -69 375 -96 347 q -1 418 -42 403 q 83 426 39 433 q 127 540 97 490 q 193 625 157 589 q 172 645 181 632 q 161 672 164 658 q 162 699 158 686 q 175 717 165 711 q 167 697 164 710 q 182 674 169 683 q 215 665 194 665 q 264 682 236 664 q 310 708 288 697 q 347 724 332 718 q 243 614 283 681 q 213 548 226 585 q 192 464 199 511 q 190 361 186 417 q 214 239 194 306 q 256 142 229 183 q 319 68 283 100 q 338 113 331 83 q 344 188 344 142 l 344 613 l 344 614 q 362 663 344 640 q 403 706 379 685 q 456 749 428 728 q 505 794 483 769 q 535 847 526 818 q 533 913 544 876 q 560 840 563 874 l 560 -26 q 697 -10 633 -29 q 796 44 760 8 l 796 639 q 785 759 796 713 q 758 831 774 806 q 723 864 742 857 q 688 866 704 871 q 659 849 671 861 q 647 822 647 836 q 677 872 647 858 q 747 876 707 886 q 825 829 786 865 q 882 731 864 793 q 908 766 890 756 q 942 776 925 776 q 975 767 960 776 q 994 744 990 758 q 967 764 982 761 q 940 756 953 767 q 920 722 928 746 q 913 657 913 697 l 913 83 q 928 -43 913 -4 q 963 -89 944 -82 q 999 -79 982 -96 q 1015 -42 1015 -62 q 990 -94 1015 -78 q 930 -105 965 -111 q 858 -69 894 -99 q 800 18 822 -39 q 742 -42 776 -14 q 667 -99 707 -71 q 615 -162 633 -122 q 597 -238 596 -203 q 620 -293 597 -274 q 693 -292 643 -312 q 643 -312 669 -308 q 596 -305 617 -317 q 563 -266 575 -293 q 553 -193 550 -239 q 342 -109 439 -168 q 179 38 246 -50 q 128 1 157 13 q 72 -6 99 -10 q 24 15 44 -3 q -1 67 3 33 q 25 29 4 44 q 67 22 46 14 q 99 72 88 31 q 94 206 110 114 q 89 226 92 213 m 432 169 q 406 91 432 121 q 346 46 379 61 q 435 0 388 17 q 531 -24 482 -17 l 531 776 q 486 713 510 747 q 461 626 463 678 l 461 613 l 461 256 q 467 194 461 215 q 483 165 474 172 q 501 163 492 158 q 515 179 510 168 q 502 155 513 163 q 478 147 492 147 q 452 153 465 147 q 432 169 439 158 m 65 751 q 8 692 31 726 q -21 622 -15 657 q -12 560 -26 588 q 43 522 3 532 q -26 558 -8 526 q -35 633 -43 590 q 0 719 -28 675 q 68 793 28 764 q 128 850 107 824 q 157 896 150 876 q 161 926 164 915 q 150 938 158 938 q 169 937 161 940 q 181 927 176 933 q 188 913 186 921 q 189 900 190 906 q 282 894 236 900 q 367 885 328 889 q 436 881 406 881 q 482 892 467 881 q 501 913 497 901 q 499 934 504 924 q 481 953 493 944 q 451 965 468 961 q 504 935 493 964 q 502 869 515 907 q 454 794 489 832 q 369 736 419 757 q 179 783 253 785 q 65 751 106 781 m 413 978 l 368 978 l 486 1149 l 510 1149 l 625 978 l 579 978 l 496 1096 l 413 978 z "},"Ü":{"ha":993,"x_min":-114,"x_max":1015,"o":"m 89 226 q 41 310 78 281 q -31 344 4 340 q -90 324 -67 349 q -96 244 -112 300 q -105 312 -114 276 q -69 375 -96 347 q -1 418 -42 403 q 83 426 39 433 q 127 540 97 490 q 193 625 157 589 q 172 645 181 632 q 161 672 164 658 q 162 699 158 686 q 175 717 165 711 q 167 697 164 710 q 182 674 169 683 q 215 665 194 665 q 264 682 236 664 q 310 708 288 697 q 347 724 332 718 q 243 614 283 681 q 213 548 226 585 q 192 464 199 511 q 190 361 186 417 q 214 239 194 306 q 256 142 229 183 q 319 68 283 100 q 338 113 331 83 q 344 188 344 142 l 344 613 l 344 614 q 362 663 344 640 q 403 706 379 685 q 456 749 428 728 q 505 794 483 769 q 535 847 526 818 q 533 913 544 876 q 560 840 563 874 l 560 -26 q 697 -10 633 -29 q 796 44 760 8 l 796 639 q 785 759 796 713 q 758 831 774 806 q 723 864 742 857 q 688 866 704 871 q 659 849 671 861 q 647 822 647 836 q 677 872 647 858 q 747 876 707 886 q 825 829 786 865 q 882 731 864 793 q 908 766 890 756 q 942 776 925 776 q 975 767 960 776 q 994 744 990 758 q 967 764 982 761 q 940 756 953 767 q 920 722 928 746 q 913 657 913 697 l 913 83 q 928 -43 913 -4 q 963 -89 944 -82 q 999 -79 982 -96 q 1015 -42 1015 -62 q 990 -94 1015 -78 q 930 -105 965 -111 q 858 -69 894 -99 q 800 18 822 -39 q 742 -42 776 -14 q 667 -99 707 -71 q 615 -162 633 -122 q 597 -238 596 -203 q 620 -293 597 -274 q 693 -292 643 -312 q 643 -312 669 -308 q 596 -305 617 -317 q 563 -266 575 -293 q 553 -193 550 -239 q 342 -109 439 -168 q 179 38 246 -50 q 128 1 157 13 q 72 -6 99 -10 q 24 15 44 -3 q -1 67 3 33 q 25 29 4 44 q 67 22 46 14 q 99 72 88 31 q 94 206 110 114 q 89 226 92 213 m 432 169 q 406 91 432 121 q 346 46 379 61 q 435 0 388 17 q 531 -24 482 -17 l 531 776 q 486 713 510 747 q 461 626 463 678 l 461 613 l 461 256 q 467 194 461 215 q 483 165 474 172 q 501 163 492 158 q 515 179 510 168 q 502 155 513 163 q 478 147 492 147 q 452 153 465 147 q 432 169 439 158 m 65 751 q 8 692 31 726 q -21 622 -15 657 q -12 560 -26 588 q 43 522 3 532 q -26 558 -8 526 q -35 633 -43 590 q 0 719 -28 675 q 68 793 28 764 q 128 850 107 824 q 157 896 150 876 q 161 926 164 915 q 150 938 158 938 q 169 937 161 940 q 181 927 176 933 q 188 913 186 921 q 189 900 190 906 q 282 894 236 900 q 367 885 328 889 q 436 881 406 881 q 482 892 467 881 q 501 913 497 901 q 499 934 504 924 q 481 953 493 944 q 451 965 468 961 q 504 935 493 964 q 502 869 515 907 q 454 794 489 832 q 369 736 419 757 q 179 783 253 785 q 65 751 106 781 m 417 976 l 349 1043 l 417 1111 l 483 1043 l 417 976 m 576 976 l 508 1043 l 576 1111 l 643 1043 l 576 976 z "},"Ù":{"ha":993,"x_min":-114,"x_max":1015,"o":"m 89 226 q 41 310 78 281 q -31 344 4 340 q -90 324 -67 349 q -96 244 -112 300 q -105 312 -114 276 q -69 375 -96 347 q -1 418 -42 403 q 83 426 39 433 q 127 540 97 490 q 193 625 157 589 q 172 645 181 632 q 161 672 164 658 q 162 699 158 686 q 175 717 165 711 q 167 697 164 710 q 182 674 169 683 q 215 665 194 665 q 264 682 236 664 q 310 708 288 697 q 347 724 332 718 q 243 614 283 681 q 213 548 226 585 q 192 464 199 511 q 190 361 186 417 q 214 239 194 306 q 256 142 229 183 q 319 68 283 100 q 338 113 331 83 q 344 188 344 142 l 344 613 l 344 614 q 362 663 344 640 q 403 706 379 685 q 456 749 428 728 q 505 794 483 769 q 535 847 526 818 q 533 913 544 876 q 560 840 563 874 l 560 -26 q 697 -10 633 -29 q 796 44 760 8 l 796 639 q 785 759 796 713 q 758 831 774 806 q 723 864 742 857 q 688 866 704 871 q 659 849 671 861 q 647 822 647 836 q 677 872 647 858 q 747 876 707 886 q 825 829 786 865 q 882 731 864 793 q 908 766 890 756 q 942 776 925 776 q 975 767 960 776 q 994 744 990 758 q 967 764 982 761 q 940 756 953 767 q 920 722 928 746 q 913 657 913 697 l 913 83 q 928 -43 913 -4 q 963 -89 944 -82 q 999 -79 982 -96 q 1015 -42 1015 -62 q 990 -94 1015 -78 q 930 -105 965 -111 q 858 -69 894 -99 q 800 18 822 -39 q 742 -42 776 -14 q 667 -99 707 -71 q 615 -162 633 -122 q 597 -238 596 -203 q 620 -293 597 -274 q 693 -292 643 -312 q 643 -312 669 -308 q 596 -305 617 -317 q 563 -266 575 -293 q 553 -193 550 -239 q 342 -109 439 -168 q 179 38 246 -50 q 128 1 157 13 q 72 -6 99 -10 q 24 15 44 -3 q -1 67 3 33 q 25 29 4 44 q 67 22 46 14 q 99 72 88 31 q 94 206 110 114 q 89 226 92 213 m 432 169 q 406 91 432 121 q 346 46 379 61 q 435 0 388 17 q 531 -24 482 -17 l 531 776 q 486 713 510 747 q 461 626 463 678 l 461 613 l 461 256 q 467 194 461 215 q 483 165 474 172 q 501 163 492 158 q 515 179 510 168 q 502 155 513 163 q 478 147 492 147 q 452 153 465 147 q 432 169 439 158 m 65 751 q 8 692 31 726 q -21 622 -15 657 q -12 560 -26 588 q 43 522 3 532 q -26 558 -8 526 q -35 633 -43 590 q 0 719 -28 675 q 68 793 28 764 q 128 850 107 824 q 157 896 150 876 q 161 926 164 915 q 150 938 158 938 q 169 937 161 940 q 181 927 176 933 q 188 913 186 921 q 189 900 190 906 q 282 894 236 900 q 367 885 328 889 q 436 881 406 881 q 482 892 467 881 q 501 913 497 901 q 499 934 504 924 q 481 953 493 944 q 451 965 468 961 q 504 935 493 964 q 502 869 515 907 q 454 794 489 832 q 369 736 419 757 q 179 783 253 785 q 65 751 106 781 m 442 1114 l 479 1136 l 551 986 l 536 978 l 442 1114 z "},"V":{"ha":946,"x_min":-22,"x_max":951,"o":"m 597 822 q 627 872 597 858 q 697 876 657 886 q 775 829 736 865 q 832 731 814 793 q 859 766 842 756 q 894 776 876 776 q 926 767 911 776 q 946 744 942 758 q 917 764 932 761 q 891 756 903 767 q 872 722 879 746 q 864 657 864 697 l 864 125 q 876 65 864 86 q 902 41 888 44 q 929 50 917 38 q 944 90 942 63 q 940 51 951 74 q 900 1 929 28 q 826 -54 871 -25 q 721 -112 781 -83 q 628 -175 661 -140 q 586 -237 596 -210 q 587 -282 576 -265 q 624 -292 597 -299 q 594 -299 610 -300 q 567 -288 579 -297 q 550 -263 556 -279 q 549 -226 544 -247 q 390 -121 467 -151 q 251 -90 314 -90 q 146 -114 189 -90 q 85 -171 103 -137 q 81 -241 68 -204 q 147 -303 94 -278 q 78 -261 104 -293 q 47 -187 53 -229 q 55 -100 40 -144 q 110 -21 69 -56 q 52 12 78 -11 q 15 71 26 35 q 15 155 0 122 q 54 201 29 188 q 104 212 79 215 q 135 189 129 208 q 101 204 124 203 q 60 192 79 206 q 31 149 40 178 q 33 78 21 121 q 73 11 46 33 q 127 -1 100 -11 q 174 59 154 10 q 194 207 194 108 l 194 238 q 177 313 194 283 q 135 357 160 343 q 82 370 110 371 q 33 356 54 369 q 2 317 13 343 q 3 253 -8 290 q -5 323 -15 286 q 35 388 6 360 q 106 430 64 415 q 194 433 149 444 l 194 532 q 204 585 194 564 q 176 601 189 590 q 158 624 164 611 q 152 648 151 636 q 163 667 153 660 q 157 647 154 658 q 172 628 160 635 q 206 626 185 622 q 254 651 226 629 q 293 678 272 667 q 334 695 314 689 q 372 703 354 701 q 400 704 389 706 q 369 686 385 700 q 340 647 353 672 q 319 585 328 622 q 311 494 311 547 l 311 207 q 300 109 311 150 q 269 40 289 68 q 338 42 301 44 q 375 101 360 61 q 390 207 390 140 l 390 613 q 403 660 390 639 q 437 702 417 682 q 480 742 457 722 q 522 786 503 763 q 552 838 540 810 q 561 904 564 867 q 569 830 576 860 q 549 770 563 800 q 521 704 535 740 q 507 613 507 668 l 507 207 q 475 97 507 140 q 400 31 443 54 q 486 -5 449 17 q 549 -47 524 -26 q 599 -100 578 -72 q 672 -51 639 -79 q 724 5 700 -28 q 747 78 747 38 l 747 639 q 736 759 747 713 q 709 831 725 806 q 674 864 693 857 q 638 866 654 871 q 610 849 621 861 q 597 822 599 836 m 8 504 q -16 564 -10 528 q -14 641 -22 600 q 17 722 -6 682 q 81 790 40 761 q 140 847 119 821 q 169 893 161 874 q 173 924 176 913 q 161 935 169 935 q 194 924 185 940 q 200 897 203 908 q 293 892 247 897 q 378 882 339 886 q 448 878 418 878 q 493 889 478 878 q 510 931 524 910 q 463 963 497 953 q 515 933 504 961 q 513 867 526 904 q 465 792 500 829 q 381 733 431 754 q 219 759 294 763 q 92 728 144 756 q 13 658 39 701 q -3 563 -14 614 q 35 492 7 511 q 90 476 63 474 q 135 496 117 478 q 144 535 153 514 q 141 494 154 511 q 104 472 128 478 q 53 474 81 467 q 8 504 26 481 z "},"W":{"ha":1103,"x_min":-25,"x_max":1103,"o":"m 158 935 q 191 924 182 940 q 197 897 200 908 q 290 892 244 897 q 376 882 336 886 q 445 878 415 878 q 490 889 475 878 q 509 910 506 899 q 507 931 513 921 q 489 950 501 942 q 460 963 476 958 q 513 933 501 961 q 510 867 524 904 q 463 792 497 829 q 378 733 428 754 q 217 759 292 763 q 89 728 142 756 q 10 658 36 701 q -6 563 -17 614 q 31 492 4 511 q 85 476 58 474 q 131 496 113 478 q 142 535 150 514 q 138 494 151 511 q 101 472 125 478 q 51 474 78 467 q 6 504 24 481 q -19 564 -12 528 q -17 641 -25 600 q 15 722 -8 682 q 78 790 38 761 q 138 847 117 821 q 166 893 158 874 q 170 924 174 913 q 158 935 167 935 m 924 -221 q 901 -172 921 -204 q 847 -112 882 -139 q 760 -79 811 -86 q 644 -106 710 -72 q 638 -109 642 -108 q 632 -112 635 -110 q 551 -175 579 -140 q 513 -237 522 -210 q 513 -282 504 -265 q 546 -292 522 -299 q 519 -299 533 -300 q 495 -288 506 -297 q 480 -263 485 -279 q 479 -226 475 -247 q 339 -121 407 -151 q 216 -90 271 -90 q 122 -114 161 -90 q 68 -171 83 -137 q 65 -241 53 -204 q 124 -303 76 -278 q 62 -260 85 -293 q 33 -185 39 -228 q 42 -97 28 -142 q 94 -17 57 -51 q 44 17 67 -6 q 13 71 22 39 q 12 155 -3 122 q 51 201 26 188 q 101 212 76 215 q 132 189 126 208 q 99 204 121 203 q 56 192 76 206 q 26 149 36 178 q 31 78 17 121 q 65 17 42 39 q 111 -3 88 -6 q 128 9 119 4 q 149 19 138 14 q 179 87 168 42 q 190 207 190 132 l 190 238 q 173 313 190 283 q 131 357 156 343 q 79 370 107 371 q 31 356 51 369 q -1 317 10 343 q 0 253 -11 290 q -8 323 -18 286 q 32 388 3 360 q 103 430 61 415 q 190 433 144 444 l 190 532 q 200 585 190 558 q 173 601 185 590 q 155 624 161 611 q 149 648 149 636 q 160 667 150 660 q 154 647 151 658 q 169 628 157 635 q 203 626 182 622 q 251 651 224 629 q 290 678 269 667 q 331 695 311 689 q 367 703 350 701 q 396 704 385 706 q 365 686 381 700 q 336 647 349 672 q 315 585 324 622 q 307 494 307 547 l 307 207 q 297 110 307 151 q 267 42 286 69 q 328 36 301 42 q 369 94 351 53 q 388 207 388 136 l 388 613 q 415 683 388 653 q 476 743 443 713 q 535 811 510 774 q 557 904 561 849 q 566 830 572 860 q 546 770 560 800 q 518 704 532 740 q 504 613 504 668 l 504 207 q 493 140 504 169 q 465 86 482 110 q 424 47 447 63 q 376 21 401 31 q 440 -15 413 6 q 486 -54 467 -35 q 524 -100 508 -76 q 585 -57 558 -82 q 627 -1 608 -35 q 646 79 646 32 l 646 547 q 636 636 646 603 q 589 689 626 669 q 642 730 619 697 q 678 799 664 763 q 704 890 693 840 q 732 799 715 840 q 768 730 747 763 q 821 689 789 697 q 772 636 782 669 q 763 547 763 603 l 763 31 q 831 17 793 28 q 904 -18 868 6 l 904 639 q 893 759 904 713 q 866 831 882 806 q 831 864 850 857 q 796 866 813 871 q 767 849 779 861 q 756 822 756 836 q 784 872 754 858 q 854 876 814 886 q 933 829 894 865 q 990 731 972 793 q 1016 766 999 756 q 1051 776 1033 776 q 1083 767 1068 776 q 1103 744 1099 758 q 1074 764 1089 761 q 1048 756 1060 767 q 1028 722 1036 746 q 1021 657 1021 697 l 1021 -24 l 1021 -28 q 1022 -53 1021 -40 q 1025 -76 1022 -67 q 1033 -92 1028 -86 q 1047 -94 1038 -97 q 1069 -69 1067 -89 q 1060 -36 1071 -50 q 1076 -53 1069 -40 q 1078 -84 1082 -65 q 1057 -126 1074 -103 q 1007 -172 1040 -149 q 958 -218 974 -196 q 940 -258 943 -240 q 944 -285 938 -275 q 960 -293 950 -296 q 938 -294 947 -299 q 922 -280 928 -290 q 915 -253 915 -269 q 924 -221 915 -237 z "},"X":{"ha":815,"x_min":-87,"x_max":874,"o":"m 214 783 q 224 832 211 813 q 253 860 236 851 q 290 868 271 869 q 322 854 310 867 q 284 860 300 864 q 261 839 268 856 q 258 793 254 822 q 283 724 263 764 l 429 428 l 554 707 q 549 713 551 710 q 543 718 546 715 q 522 733 532 731 q 508 731 513 736 q 504 713 503 726 q 517 681 506 700 q 497 731 497 699 q 512 796 497 764 q 554 851 526 828 q 618 875 582 875 q 598 843 597 867 q 615 792 599 819 q 663 738 632 764 q 732 699 693 711 q 797 705 771 686 q 831 751 822 724 q 829 805 839 779 q 788 832 819 831 q 828 815 813 832 q 844 772 843 797 q 830 718 846 746 q 778 672 814 690 q 724 655 751 658 q 672 655 697 651 q 623 667 646 658 q 582 688 600 676 l 457 408 l 518 408 q 628 419 588 408 q 689 444 669 429 q 710 474 708 458 q 701 503 711 490 q 674 522 692 515 q 639 522 657 528 q 694 522 671 533 q 726 485 717 510 q 728 428 735 461 q 696 365 722 396 q 656 306 668 335 q 641 258 643 278 q 647 231 639 239 q 671 233 656 222 q 656 222 664 224 q 639 227 647 221 q 624 249 631 233 q 615 292 617 265 l 496 292 l 671 -62 q 739 -151 703 -126 q 804 -165 775 -175 q 850 -115 833 -156 q 858 -10 867 -75 q 872 -87 874 -49 q 853 -158 869 -126 q 808 -211 836 -190 q 744 -233 779 -232 q 667 -212 708 -233 q 585 -136 626 -190 q 574 -167 585 -153 q 549 -190 564 -182 q 518 -194 535 -197 q 488 -174 501 -192 q 513 -183 497 -182 q 540 -174 529 -183 q 551 -141 550 -164 q 532 -78 551 -118 l 378 233 l 235 -86 q 240 -92 238 -89 q 246 -97 243 -94 q 281 -110 269 -122 q 272 -60 293 -99 q 292 -110 292 -78 q 276 -176 292 -143 q 233 -231 261 -208 q 171 -254 206 -254 q 191 -222 192 -246 q 174 -171 190 -199 q 126 -117 157 -143 q 56 -78 94 -90 q -9 -84 17 -65 q -43 -131 -35 -103 q -42 -184 -51 -158 q 0 -211 -32 -210 q -40 -194 -25 -211 q -56 -151 -56 -176 q -42 -98 -57 -125 q 10 -51 -26 -71 q 64 -34 36 -37 q 117 -34 92 -31 q 166 -47 143 -37 q 207 -67 189 -56 l 358 272 l 349 292 l 260 292 q 149 281 190 292 q 89 256 108 271 q 68 226 69 242 q 76 197 67 210 q 103 178 86 185 q 139 178 121 172 q 84 178 107 167 q 51 214 61 189 q 48 271 42 239 q 82 333 54 303 q 122 392 108 364 q 136 441 135 421 q 129 469 138 461 q 107 467 121 476 q 140 472 119 485 q 163 408 160 460 l 292 408 l 174 647 q 102 764 136 722 q 39 823 68 806 q -13 838 10 840 q -51 822 -36 835 q -71 792 -65 810 q -69 758 -76 774 q -64 823 -87 794 q 5 861 -40 851 q 108 854 50 871 q 214 783 165 838 z "},"Y":{"ha":1003,"x_min":-32,"x_max":1043,"o":"m 768 -433 q 683 -522 707 -483 q 660 -585 660 -560 q 678 -622 660 -610 q 718 -629 696 -633 q 684 -637 699 -637 q 659 -628 669 -636 q 641 -606 649 -619 q 629 -578 633 -593 q 618 -493 618 -542 q 583 -424 608 -460 q 523 -353 563 -392 q 417 -278 483 -315 q 281 -233 350 -240 q 155 -244 211 -226 q 64 -301 99 -261 q 32 -397 29 -342 q 62 -494 35 -454 q 127 -556 89 -533 q 210 -581 165 -578 q 292 -565 254 -583 q 347 -510 329 -547 q 362 -434 364 -472 q 339 -365 360 -396 q 282 -332 318 -335 q 329 -340 308 -326 q 363 -376 350 -353 q 379 -432 376 -400 q 372 -494 382 -464 q 336 -552 361 -525 q 268 -594 311 -579 q 184 -603 225 -610 q 109 -573 143 -596 q 52 -514 75 -550 q 20 -435 29 -478 q 20 -346 11 -392 q 61 -256 29 -300 q 192 -163 108 -190 q 376 -149 276 -136 q 581 -215 475 -161 q 781 -365 688 -269 q 808 -345 792 -354 q 839 -329 824 -336 q 874 -315 856 -322 q 794 -204 832 -244 q 728 -143 756 -164 q 667 -110 694 -118 q 701 -99 686 -110 q 725 -69 714 -89 q 736 -8 736 -49 l 736 74 q 723 67 729 71 q 710 61 717 64 q 618 -1 650 33 q 576 -64 586 -36 q 577 -108 567 -92 q 613 -118 588 -125 q 584 -125 599 -126 q 558 -115 569 -124 q 540 -90 546 -106 q 538 -53 533 -74 q 379 53 456 22 q 241 83 303 83 q 135 60 179 83 q 74 3 92 36 q 70 -67 57 -31 q 136 -129 83 -104 q 68 -87 94 -119 q 35 -13 42 -56 q 44 74 29 29 q 100 153 60 118 q 41 185 67 163 q 6 244 15 208 q 4 328 -10 296 q 43 375 18 361 q 93 385 68 389 q 125 363 118 382 q 90 378 113 376 q 49 365 68 379 q 19 323 29 351 q 22 251 10 294 q 62 185 35 207 q 116 173 89 163 q 163 233 143 183 q 183 381 183 282 l 183 532 q 193 585 183 558 q 166 601 178 590 q 148 624 154 611 q 142 648 142 636 q 151 667 143 660 q 147 647 144 658 q 163 628 150 635 q 195 626 175 622 q 243 651 215 629 q 323 695 281 683 q 389 704 365 707 q 358 686 374 700 q 329 647 342 672 q 308 585 317 622 q 300 494 300 547 l 300 381 q 289 283 300 324 q 258 214 278 242 q 294 217 276 217 q 326 215 311 217 q 365 274 349 235 q 381 381 381 314 l 381 613 q 408 683 381 653 q 469 743 436 713 q 528 811 501 774 q 550 904 554 849 q 559 830 565 860 q 539 770 553 800 q 511 704 525 740 q 497 613 497 668 l 497 381 q 465 271 497 314 q 390 204 433 228 q 476 169 439 190 q 538 126 513 147 q 588 74 567 101 q 661 122 628 94 q 713 178 689 146 q 736 251 736 211 l 736 657 q 728 722 736 697 q 709 756 721 746 q 683 764 697 767 q 654 744 668 761 q 674 767 658 758 q 706 776 689 776 q 741 766 724 776 q 768 731 758 756 q 824 829 785 793 q 903 876 864 865 q 973 872 943 886 q 1003 822 1003 858 q 990 849 1001 836 q 963 866 979 861 q 926 864 946 871 q 891 831 907 857 q 864 759 875 806 q 853 639 853 713 l 853 299 q 865 240 853 260 q 891 216 876 219 q 919 225 906 213 q 933 264 932 238 q 923 212 944 243 q 853 144 901 181 l 853 22 q 882 -149 853 -83 q 947 -253 911 -215 q 1043 -318 989 -297 q 965 -326 1008 -315 q 879 -360 929 -336 q 768 -433 829 -385 m 151 935 q 183 924 174 940 q 190 897 193 908 q 283 892 238 897 q 368 882 329 886 q 438 878 407 878 q 483 889 468 878 q 502 910 499 899 q 500 931 506 921 q 481 950 494 942 q 451 963 468 958 q 505 933 493 961 q 503 867 517 904 q 455 792 489 829 q 371 733 421 754 q 210 759 285 763 q 82 728 135 756 q 3 658 29 701 q -14 563 -24 614 q 24 492 -4 511 q 78 476 51 474 q 124 496 106 478 q 135 535 142 514 q 131 494 144 511 q 93 472 117 478 q 42 474 69 467 q -3 504 15 481 q -26 564 -21 528 q -24 641 -32 600 q 7 722 -15 682 q 69 790 29 761 q 130 847 108 821 q 158 893 151 874 q 163 924 165 913 q 151 935 160 935 z "},"Ý":{"ha":1003,"x_min":-32,"x_max":1043,"o":"m 768 -433 q 683 -522 707 -483 q 660 -585 660 -560 q 678 -622 660 -610 q 718 -629 696 -633 q 684 -637 699 -637 q 659 -628 669 -636 q 641 -606 649 -619 q 629 -578 633 -593 q 618 -493 618 -542 q 583 -424 608 -460 q 523 -353 563 -392 q 417 -278 483 -315 q 281 -233 350 -240 q 155 -244 211 -226 q 64 -301 99 -261 q 32 -397 29 -342 q 62 -494 35 -454 q 127 -556 89 -533 q 210 -581 165 -578 q 292 -565 254 -583 q 347 -510 329 -547 q 362 -434 364 -472 q 339 -365 360 -396 q 282 -332 318 -335 q 329 -340 308 -326 q 363 -376 350 -353 q 379 -432 376 -400 q 372 -494 382 -464 q 336 -552 361 -525 q 268 -594 311 -579 q 184 -603 225 -610 q 109 -573 143 -596 q 52 -514 75 -550 q 20 -435 29 -478 q 20 -346 11 -392 q 61 -256 29 -300 q 192 -163 108 -190 q 376 -149 276 -136 q 581 -215 475 -161 q 781 -365 688 -269 q 808 -345 792 -354 q 839 -329 824 -336 q 874 -315 856 -322 q 794 -204 832 -244 q 728 -143 756 -164 q 667 -110 694 -118 q 701 -99 686 -110 q 725 -69 714 -89 q 736 -8 736 -49 l 736 74 q 723 67 729 71 q 710 61 717 64 q 618 -1 650 33 q 576 -64 586 -36 q 577 -108 567 -92 q 613 -118 588 -125 q 584 -125 599 -126 q 558 -115 569 -124 q 540 -90 546 -106 q 538 -53 533 -74 q 379 53 456 22 q 241 83 303 83 q 135 60 179 83 q 74 3 92 36 q 70 -67 57 -31 q 136 -129 83 -104 q 68 -87 94 -119 q 35 -13 42 -56 q 44 74 29 29 q 100 153 60 118 q 41 185 67 163 q 6 244 15 208 q 4 328 -10 296 q 43 375 18 361 q 93 385 68 389 q 125 363 118 382 q 90 378 113 376 q 49 365 68 379 q 19 323 29 351 q 22 251 10 294 q 62 185 35 207 q 116 173 89 163 q 163 233 143 183 q 183 381 183 282 l 183 532 q 193 585 183 558 q 166 601 178 590 q 148 624 154 611 q 142 648 142 636 q 151 667 143 660 q 147 647 144 658 q 163 628 150 635 q 195 626 175 622 q 243 651 215 629 q 323 695 281 683 q 389 704 365 707 q 358 686 374 700 q 329 647 342 672 q 308 585 317 622 q 300 494 300 547 l 300 381 q 289 283 300 324 q 258 214 278 242 q 294 217 276 217 q 326 215 311 217 q 365 274 349 235 q 381 381 381 314 l 381 613 q 408 683 381 653 q 469 743 436 713 q 528 811 501 774 q 550 904 554 849 q 559 830 565 860 q 539 770 553 800 q 511 704 525 740 q 497 613 497 668 l 497 381 q 465 271 497 314 q 390 204 433 228 q 476 169 439 190 q 538 126 513 147 q 588 74 567 101 q 661 122 628 94 q 713 178 689 146 q 736 251 736 211 l 736 657 q 728 722 736 697 q 709 756 721 746 q 683 764 697 767 q 654 744 668 761 q 674 767 658 758 q 706 776 689 776 q 741 766 724 776 q 768 731 758 756 q 824 829 785 793 q 903 876 864 865 q 973 872 943 886 q 1003 822 1003 858 q 990 849 1001 836 q 963 866 979 861 q 926 864 946 871 q 891 831 907 857 q 864 759 875 806 q 853 639 853 713 l 853 299 q 865 240 853 260 q 891 216 876 219 q 919 225 906 213 q 933 264 932 238 q 923 212 944 243 q 853 144 901 181 l 853 22 q 882 -149 853 -83 q 947 -253 911 -215 q 1043 -318 989 -297 q 965 -326 1008 -315 q 879 -360 929 -336 q 768 -433 829 -385 m 151 935 q 183 924 174 940 q 190 897 193 908 q 283 892 238 897 q 368 882 329 886 q 438 878 407 878 q 483 889 468 878 q 502 910 499 899 q 500 931 506 921 q 481 950 494 942 q 451 963 468 958 q 505 933 493 961 q 503 867 517 904 q 455 792 489 829 q 371 733 421 754 q 210 759 285 763 q 82 728 135 756 q 3 658 29 701 q -14 563 -24 614 q 24 492 -4 511 q 78 476 51 474 q 124 496 106 478 q 135 535 142 514 q 131 494 144 511 q 93 472 117 478 q 42 474 69 467 q -3 504 15 481 q -26 564 -21 528 q -24 641 -32 600 q 7 722 -15 682 q 69 790 29 761 q 130 847 108 821 q 158 893 151 874 q 163 924 165 913 q 151 935 160 935 m 461 978 l 446 986 l 518 1136 l 556 1114 l 461 978 z "},"Ÿ":{"ha":1003,"x_min":-32,"x_max":1043,"o":"m 768 -433 q 683 -522 707 -483 q 660 -585 660 -560 q 678 -622 660 -610 q 718 -629 696 -633 q 684 -637 699 -637 q 659 -628 669 -636 q 641 -606 649 -619 q 629 -578 633 -593 q 618 -493 618 -542 q 583 -424 608 -460 q 523 -353 563 -392 q 417 -278 483 -315 q 281 -233 350 -240 q 155 -244 211 -226 q 64 -301 99 -261 q 32 -397 29 -342 q 62 -494 35 -454 q 127 -556 89 -533 q 210 -581 165 -578 q 292 -565 254 -583 q 347 -510 329 -547 q 362 -434 364 -472 q 339 -365 360 -396 q 282 -332 318 -335 q 329 -340 308 -326 q 363 -376 350 -353 q 379 -432 376 -400 q 372 -494 382 -464 q 336 -552 361 -525 q 268 -594 311 -579 q 184 -603 225 -610 q 109 -573 143 -596 q 52 -514 75 -550 q 20 -435 29 -478 q 20 -346 11 -392 q 61 -256 29 -300 q 192 -163 108 -190 q 376 -149 276 -136 q 581 -215 475 -161 q 781 -365 688 -269 q 808 -345 792 -354 q 839 -329 824 -336 q 874 -315 856 -322 q 794 -204 832 -244 q 728 -143 756 -164 q 667 -110 694 -118 q 701 -99 686 -110 q 725 -69 714 -89 q 736 -8 736 -49 l 736 74 q 723 67 729 71 q 710 61 717 64 q 618 -1 650 33 q 576 -64 586 -36 q 577 -108 567 -92 q 613 -118 588 -125 q 584 -125 599 -126 q 558 -115 569 -124 q 540 -90 546 -106 q 538 -53 533 -74 q 379 53 456 22 q 241 83 303 83 q 135 60 179 83 q 74 3 92 36 q 70 -67 57 -31 q 136 -129 83 -104 q 68 -87 94 -119 q 35 -13 42 -56 q 44 74 29 29 q 100 153 60 118 q 41 185 67 163 q 6 244 15 208 q 4 328 -10 296 q 43 375 18 361 q 93 385 68 389 q 125 363 118 382 q 90 378 113 376 q 49 365 68 379 q 19 323 29 351 q 22 251 10 294 q 62 185 35 207 q 116 173 89 163 q 163 233 143 183 q 183 381 183 282 l 183 532 q 193 585 183 558 q 166 601 178 590 q 148 624 154 611 q 142 648 142 636 q 151 667 143 660 q 147 647 144 658 q 163 628 150 635 q 195 626 175 622 q 243 651 215 629 q 323 695 281 683 q 389 704 365 707 q 358 686 374 700 q 329 647 342 672 q 308 585 317 622 q 300 494 300 547 l 300 381 q 289 283 300 324 q 258 214 278 242 q 294 217 276 217 q 326 215 311 217 q 365 274 349 235 q 381 381 381 314 l 381 613 q 408 683 381 653 q 469 743 436 713 q 528 811 501 774 q 550 904 554 849 q 559 830 565 860 q 539 770 553 800 q 511 704 525 740 q 497 613 497 668 l 497 381 q 465 271 497 314 q 390 204 433 228 q 476 169 439 190 q 538 126 513 147 q 588 74 567 101 q 661 122 628 94 q 713 178 689 146 q 736 251 736 211 l 736 657 q 728 722 736 697 q 709 756 721 746 q 683 764 697 767 q 654 744 668 761 q 674 767 658 758 q 706 776 689 776 q 741 766 724 776 q 768 731 758 756 q 824 829 785 793 q 903 876 864 865 q 973 872 943 886 q 1003 822 1003 858 q 990 849 1001 836 q 963 866 979 861 q 926 864 946 871 q 891 831 907 857 q 864 759 875 806 q 853 639 853 713 l 853 299 q 865 240 853 260 q 891 216 876 219 q 919 225 906 213 q 933 264 932 238 q 923 212 944 243 q 853 144 901 181 l 853 22 q 882 -149 853 -83 q 947 -253 911 -215 q 1043 -318 989 -297 q 965 -326 1008 -315 q 879 -360 929 -336 q 768 -433 829 -385 m 151 935 q 183 924 174 940 q 190 897 193 908 q 283 892 238 897 q 368 882 329 886 q 438 878 407 878 q 483 889 468 878 q 502 910 499 899 q 500 931 506 921 q 481 950 494 942 q 451 963 468 958 q 505 933 493 961 q 503 867 517 904 q 455 792 489 829 q 371 733 421 754 q 210 759 285 763 q 82 728 135 756 q 3 658 29 701 q -14 563 -24 614 q 24 492 -4 511 q 78 476 51 474 q 124 496 106 478 q 135 535 142 514 q 131 494 144 511 q 93 472 117 478 q 42 474 69 467 q -3 504 15 481 q -26 564 -21 528 q -24 641 -32 600 q 7 722 -15 682 q 69 790 29 761 q 130 847 108 821 q 158 893 151 874 q 163 924 165 913 q 151 935 160 935 m 422 976 l 354 1043 l 422 1111 l 489 1043 l 422 976 m 582 976 l 514 1043 l 582 1111 l 649 1043 l 582 976 z "},"Z":{"ha":829,"x_min":-4,"x_max":822,"o":"m 747 832 q 725 761 743 786 q 682 715 707 736 q 629 666 657 693 q 579 589 601 639 l 521 463 l 546 463 q 656 473 615 463 q 717 498 697 483 q 738 528 736 513 q 729 557 739 544 q 702 576 719 569 q 667 576 685 582 q 722 576 699 588 q 754 540 744 564 q 757 483 764 515 q 724 419 750 450 q 683 360 696 389 q 669 313 671 332 q 676 285 668 293 q 700 288 685 276 q 667 281 686 268 q 644 346 647 293 l 468 346 l 371 133 q 340 85 358 106 q 301 51 322 65 q 472 22 394 54 q 497 -34 471 -6 q 562 -75 522 -62 q 650 -75 601 -87 q 744 -10 699 -62 q 784 62 775 25 q 788 131 793 99 q 764 187 782 163 q 722 223 746 211 q 672 230 699 235 q 621 199 644 225 q 670 235 639 226 q 733 232 701 244 q 789 185 764 219 q 818 90 814 150 q 795 -19 822 31 q 731 -108 768 -69 q 653 -174 693 -147 q 593 -212 614 -200 q 562 -241 572 -225 q 551 -269 551 -257 q 560 -289 551 -282 q 589 -292 569 -296 q 557 -301 571 -303 q 534 -288 543 -299 q 523 -262 525 -278 q 526 -231 521 -246 q 421 -138 476 -172 q 310 -90 365 -104 q 205 -81 256 -76 q 114 -101 154 -85 q 53 -144 72 -118 q 33 -200 33 -171 q 53 -256 33 -229 q 113 -303 74 -283 q 54 -272 79 -294 q 19 -217 33 -253 q 14 -121 6 -182 q 57 -35 21 -71 q 146 22 93 0 q 90 47 111 29 q 65 88 68 64 q 95 56 74 67 q 145 53 117 46 q 205 91 174 61 q 264 182 236 121 l 339 346 l 289 346 q 178 335 219 346 q 118 310 138 325 q 97 280 99 296 q 106 251 96 264 q 133 233 115 239 q 168 232 150 226 q 113 232 136 221 q 80 268 89 243 q 77 326 71 293 q 111 389 83 358 q 150 448 138 419 q 165 496 163 476 q 158 524 167 515 q 135 521 150 532 q 168 526 149 539 q 190 463 188 514 l 393 463 l 453 593 q 409 609 428 594 q 380 644 390 624 q 372 683 369 664 q 390 713 374 703 q 379 685 378 703 q 395 655 381 667 q 436 644 410 643 q 500 672 463 644 q 560 703 525 693 q 632 728 596 714 q 699 765 668 742 q 747 832 731 788 m 117 511 q 74 495 97 496 q 33 511 51 494 q 5 563 14 528 q 3 651 -4 597 q 25 719 7 688 q 65 776 43 750 q 108 826 86 803 q 144 868 131 849 q 159 904 158 888 q 140 935 160 921 q 160 929 153 935 q 171 917 168 924 q 176 897 175 908 q 275 901 221 903 q 382 892 321 900 q 515 861 443 883 q 598 849 563 847 q 655 861 633 850 q 685 890 676 872 q 689 924 694 907 q 663 955 683 942 q 607 971 643 968 q 669 958 647 975 q 698 915 692 942 q 696 854 704 888 q 666 791 688 821 q 610 740 644 761 q 532 717 576 719 q 450 766 507 749 q 326 785 393 783 q 194 774 260 788 q 86 729 129 760 q 41 680 57 708 q 20 622 25 651 q 20 565 15 592 q 38 520 25 538 q 72 499 51 503 q 117 511 92 494 z "},"Ž":{"ha":829,"x_min":-4,"x_max":822,"o":"m 747 832 q 725 761 743 786 q 682 715 707 736 q 629 666 657 693 q 579 589 601 639 l 521 463 l 546 463 q 656 473 615 463 q 717 498 697 483 q 738 528 736 513 q 729 557 739 544 q 702 576 719 569 q 667 576 685 582 q 722 576 699 588 q 754 540 744 564 q 757 483 764 515 q 724 419 750 450 q 683 360 696 389 q 669 313 671 332 q 676 285 668 293 q 700 288 685 276 q 667 281 686 268 q 644 346 647 293 l 468 346 l 371 133 q 340 85 358 106 q 301 51 322 65 q 472 22 394 54 q 497 -34 471 -6 q 562 -75 522 -62 q 650 -75 601 -87 q 744 -10 699 -62 q 784 62 775 25 q 788 131 793 99 q 764 187 782 163 q 722 223 746 211 q 672 230 699 235 q 621 199 644 225 q 670 235 639 226 q 733 232 701 244 q 789 185 764 219 q 818 90 814 150 q 795 -19 822 31 q 731 -108 768 -69 q 653 -174 693 -147 q 593 -212 614 -200 q 562 -241 572 -225 q 551 -269 551 -257 q 560 -289 551 -282 q 589 -292 569 -296 q 557 -301 571 -303 q 534 -288 543 -299 q 523 -262 525 -278 q 526 -231 521 -246 q 421 -138 476 -172 q 310 -90 365 -104 q 205 -81 256 -76 q 114 -101 154 -85 q 53 -144 72 -118 q 33 -200 33 -171 q 53 -256 33 -229 q 113 -303 74 -283 q 54 -272 79 -294 q 19 -217 33 -253 q 14 -121 6 -182 q 57 -35 21 -71 q 146 22 93 0 q 90 47 111 29 q 65 88 68 64 q 95 56 74 67 q 145 53 117 46 q 205 91 174 61 q 264 182 236 121 l 339 346 l 289 346 q 178 335 219 346 q 118 310 138 325 q 97 280 99 296 q 106 251 96 264 q 133 233 115 239 q 168 232 150 226 q 113 232 136 221 q 80 268 89 243 q 77 326 71 293 q 111 389 83 358 q 150 448 138 419 q 165 496 163 476 q 158 524 167 515 q 135 521 150 532 q 168 526 149 539 q 190 463 188 514 l 393 463 l 453 593 q 409 609 428 594 q 380 644 390 624 q 372 683 369 664 q 390 713 374 703 q 379 685 378 703 q 395 655 381 667 q 436 644 410 643 q 500 672 463 644 q 560 703 525 693 q 632 728 596 714 q 699 765 668 742 q 747 832 731 788 m 117 511 q 74 495 97 496 q 33 511 51 494 q 5 563 14 528 q 3 651 -4 597 q 25 719 7 688 q 65 776 43 750 q 108 826 86 803 q 144 868 131 849 q 159 904 158 888 q 140 935 160 921 q 160 929 153 935 q 171 917 168 924 q 176 897 175 908 q 275 901 221 903 q 382 892 321 900 q 515 861 443 883 q 598 849 563 847 q 655 861 633 850 q 685 890 676 872 q 689 924 694 907 q 663 955 683 942 q 607 971 643 968 q 669 958 647 975 q 698 915 692 942 q 696 854 704 888 q 666 791 688 821 q 610 740 644 761 q 532 717 576 719 q 450 766 507 749 q 326 785 393 783 q 194 774 260 788 q 86 729 129 760 q 41 680 57 708 q 20 622 25 651 q 20 565 15 592 q 38 520 25 538 q 72 499 51 503 q 117 511 92 494 m 414 1025 l 497 1143 l 543 1143 l 428 972 l 404 972 l 286 1143 l 331 1143 l 414 1025 z "},"a":{"ha":408,"x_min":-50,"x_max":428,"o":"m 0 408 q -31 424 -19 413 q -46 450 -42 436 q -47 478 -50 464 q -36 500 -44 492 q -41 474 -42 488 q -31 452 -40 461 q -5 440 -22 443 q 40 444 13 438 q 92 466 68 451 q 136 496 117 481 q 178 533 158 513 q 197 491 181 513 q 235 452 214 469 q 281 426 257 435 q 319 421 304 417 q 276 396 296 404 l 276 142 q 334 172 303 153 q 388 222 365 190 q 407 269 407 249 q 398 299 407 289 q 376 310 389 310 q 354 297 363 310 q 371 315 358 310 q 397 317 383 321 q 419 300 410 314 q 426 260 428 286 q 414 215 425 233 q 385 180 403 197 q 344 143 367 163 q 296 97 321 124 q 262 51 271 69 q 255 22 253 32 q 267 10 257 11 q 288 17 276 8 q 251 3 272 -3 q 213 26 231 8 q 182 69 194 44 q 172 115 169 94 l 172 174 q 145 140 161 158 q 106 97 129 121 q 75 51 81 69 q 74 22 69 32 q 92 10 79 11 q 115 17 104 8 q 73 5 100 -1 q 18 53 46 11 q -26 99 -8 93 q -44 106 -43 106 q -37 108 -44 106 q -22 118 -31 110 q -7 143 -14 126 q 0 189 0 160 l 0 408 m 104 146 q 136 174 121 156 q 158 221 151 192 q 163 270 165 250 q 153 301 161 290 q 136 310 146 311 q 118 297 126 310 q 141 317 125 314 q 172 307 157 321 l 172 390 q 122 417 140 401 q 104 433 111 424 l 104 146 z "},"á":{"ha":408,"x_min":-50,"x_max":428,"o":"m 0 408 q -31 424 -19 413 q -46 450 -42 436 q -47 478 -50 464 q -36 500 -44 492 q -41 474 -42 488 q -31 452 -40 461 q -5 440 -22 443 q 40 444 13 438 q 92 466 68 451 q 136 496 117 481 q 178 533 158 513 q 197 491 181 513 q 235 452 214 469 q 281 426 257 435 q 319 421 304 417 q 276 396 296 404 l 276 142 q 334 172 303 153 q 388 222 365 190 q 407 269 407 249 q 398 299 407 289 q 376 310 389 310 q 354 297 363 310 q 371 315 358 310 q 397 317 383 321 q 419 300 410 314 q 426 260 428 286 q 414 215 425 233 q 385 180 403 197 q 344 143 367 163 q 296 97 321 124 q 262 51 271 69 q 255 22 253 32 q 267 10 257 11 q 288 17 276 8 q 251 3 272 -3 q 213 26 231 8 q 182 69 194 44 q 172 115 169 94 l 172 174 q 145 140 161 158 q 106 97 129 121 q 75 51 81 69 q 74 22 69 32 q 92 10 79 11 q 115 17 104 8 q 73 5 100 -1 q 18 53 46 11 q -26 99 -8 93 q -44 106 -43 106 q -37 108 -44 106 q -22 118 -31 110 q -7 143 -14 126 q 0 189 0 160 l 0 408 m 104 146 q 136 174 121 156 q 158 221 151 192 q 163 270 165 250 q 153 301 161 290 q 136 310 146 311 q 118 297 126 310 q 141 317 125 314 q 172 307 157 321 l 172 390 q 122 417 140 401 q 104 433 111 424 l 104 146 m 164 700 l 149 708 l 221 858 l 258 836 l 164 700 z "},"â":{"ha":408,"x_min":-50,"x_max":428,"o":"m 0 408 q -31 424 -19 413 q -46 450 -42 436 q -47 478 -50 464 q -36 500 -44 492 q -41 474 -42 488 q -31 452 -40 461 q -5 440 -22 443 q 40 444 13 438 q 92 466 68 451 q 136 496 117 481 q 178 533 158 513 q 197 491 181 513 q 235 452 214 469 q 281 426 257 435 q 319 421 304 417 q 276 396 296 404 l 276 142 q 334 172 303 153 q 388 222 365 190 q 407 269 407 249 q 398 299 407 289 q 376 310 389 310 q 354 297 363 310 q 371 315 358 310 q 397 317 383 321 q 419 300 410 314 q 426 260 428 286 q 414 215 425 233 q 385 180 403 197 q 344 143 367 163 q 296 97 321 124 q 262 51 271 69 q 255 22 253 32 q 267 10 257 11 q 288 17 276 8 q 251 3 272 -3 q 213 26 231 8 q 182 69 194 44 q 172 115 169 94 l 172 174 q 145 140 161 158 q 106 97 129 121 q 75 51 81 69 q 74 22 69 32 q 92 10 79 11 q 115 17 104 8 q 73 5 100 -1 q 18 53 46 11 q -26 99 -8 93 q -44 106 -43 106 q -37 108 -44 106 q -22 118 -31 110 q -7 143 -14 126 q 0 189 0 160 l 0 408 m 104 146 q 136 174 121 156 q 158 221 151 192 q 163 270 165 250 q 153 301 161 290 q 136 310 146 311 q 118 297 126 310 q 141 317 125 314 q 172 307 157 321 l 172 390 q 122 417 140 401 q 104 433 111 424 l 104 146 m 119 700 l 75 700 l 193 871 l 217 871 l 332 700 l 286 700 l 203 818 l 119 700 z "},"´":{"ha":110,"x_min":0,"x_max":110,"o":"m 15 700 l 0 708 l 72 858 l 110 836 l 15 700 z "},"ä":{"ha":408,"x_min":-50,"x_max":428,"o":"m 0 408 q -31 424 -19 413 q -46 450 -42 436 q -47 478 -50 464 q -36 500 -44 492 q -41 474 -42 488 q -31 452 -40 461 q -5 440 -22 443 q 40 444 13 438 q 92 466 68 451 q 136 496 117 481 q 178 533 158 513 q 197 491 181 513 q 235 452 214 469 q 281 426 257 435 q 319 421 304 417 q 276 396 296 404 l 276 142 q 334 172 303 153 q 388 222 365 190 q 407 269 407 249 q 398 299 407 289 q 376 310 389 310 q 354 297 363 310 q 371 315 358 310 q 397 317 383 321 q 419 300 410 314 q 426 260 428 286 q 414 215 425 233 q 385 180 403 197 q 344 143 367 163 q 296 97 321 124 q 262 51 271 69 q 255 22 253 32 q 267 10 257 11 q 288 17 276 8 q 251 3 272 -3 q 213 26 231 8 q 182 69 194 44 q 172 115 169 94 l 172 174 q 145 140 161 158 q 106 97 129 121 q 75 51 81 69 q 74 22 69 32 q 92 10 79 11 q 115 17 104 8 q 73 5 100 -1 q 18 53 46 11 q -26 99 -8 93 q -44 106 -43 106 q -37 108 -44 106 q -22 118 -31 110 q -7 143 -14 126 q 0 189 0 160 l 0 408 m 104 146 q 136 174 121 156 q 158 221 151 192 q 163 270 165 250 q 153 301 161 290 q 136 310 146 311 q 118 297 126 310 q 141 317 125 314 q 172 307 157 321 l 172 390 q 122 417 140 401 q 104 433 111 424 l 104 146 m 125 699 l 57 765 l 125 833 l 192 765 l 125 699 m 285 699 l 217 765 l 285 833 l 351 765 l 285 699 z "},"æ":{"ha":551,"x_min":-50,"x_max":576,"o":"m 0 408 q -31 424 -19 413 q -46 450 -42 436 q -47 478 -50 464 q -36 500 -44 492 q -41 474 -42 488 q -31 452 -40 461 q -5 440 -22 443 q 40 444 13 438 q 92 466 68 451 q 136 496 117 481 q 178 533 158 513 q 202 486 181 506 q 249 458 224 467 q 288 482 269 469 q 319 506 306 494 q 349 533 335 519 q 368 491 351 513 q 407 452 385 469 q 452 425 429 435 q 492 419 475 415 q 455 388 479 404 q 404 355 431 372 q 353 319 378 338 q 317 282 329 301 q 292 215 296 247 q 297 164 289 183 q 344 129 315 135 q 406 133 374 124 q 468 162 438 142 q 519 206 499 182 q 550 259 546 236 q 546 294 554 282 q 523 308 538 307 q 499 297 508 310 q 520 318 506 314 q 547 315 535 322 q 568 290 560 307 q 571 250 576 274 q 520 171 560 201 q 428 107 481 140 q 378 61 388 81 q 374 28 368 42 q 401 0 379 13 q 331 14 365 1 q 268 46 301 25 q 211 107 235 67 q 140 76 168 97 q 88 19 92 40 q 115 17 83 -1 q 74 1 99 0 q 22 47 50 3 q -4 81 7 69 q -25 97 -15 92 q -44 104 -36 103 q -22 118 -32 107 q -7 143 -14 126 q 0 188 0 160 l 0 408 m 276 274 q 313 324 290 301 q 358 361 335 347 q 377 372 368 367 q 393 383 386 378 q 345 390 367 382 q 308 408 324 399 q 276 433 290 419 l 276 274 m 104 126 q 117 111 111 119 q 125 92 122 103 q 172 118 149 107 l 172 258 l 172 407 q 170 408 171 407 q 168 408 169 408 q 141 414 153 410 q 121 422 129 418 q 104 433 111 428 l 104 126 z "},"à":{"ha":408,"x_min":-50,"x_max":428,"o":"m 0 408 q -31 424 -19 413 q -46 450 -42 436 q -47 478 -50 464 q -36 500 -44 492 q -41 474 -42 488 q -31 452 -40 461 q -5 440 -22 443 q 40 444 13 438 q 92 466 68 451 q 136 496 117 481 q 178 533 158 513 q 197 491 181 513 q 235 452 214 469 q 281 426 257 435 q 319 421 304 417 q 276 396 296 404 l 276 142 q 334 172 303 153 q 388 222 365 190 q 407 269 407 249 q 398 299 407 289 q 376 310 389 310 q 354 297 363 310 q 371 315 358 310 q 397 317 383 321 q 419 300 410 314 q 426 260 428 286 q 414 215 425 233 q 385 180 403 197 q 344 143 367 163 q 296 97 321 124 q 262 51 271 69 q 255 22 253 32 q 267 10 257 11 q 288 17 276 8 q 251 3 272 -3 q 213 26 231 8 q 182 69 194 44 q 172 115 169 94 l 172 174 q 145 140 161 158 q 106 97 129 121 q 75 51 81 69 q 74 22 69 32 q 92 10 79 11 q 115 17 104 8 q 73 5 100 -1 q 18 53 46 11 q -26 99 -8 93 q -44 106 -43 106 q -37 108 -44 106 q -22 118 -31 110 q -7 143 -14 126 q 0 189 0 160 l 0 408 m 104 146 q 136 174 121 156 q 158 221 151 192 q 163 270 165 250 q 153 301 161 290 q 136 310 146 311 q 118 297 126 310 q 141 317 125 314 q 172 307 157 321 l 172 390 q 122 417 140 401 q 104 433 111 424 l 104 146 m 149 836 l 186 858 l 258 708 l 243 700 l 149 836 z "},"&":{"ha":615,"x_min":-67,"x_max":693,"o":"m 607 217 q 551 213 574 207 q 514 229 529 218 q 486 260 497 242 q 468 247 478 254 q 448 233 460 240 q 421 214 436 225 l 438 185 q 481 126 454 158 q 539 78 507 94 q 606 73 571 61 q 674 146 640 85 q 613 50 651 85 q 527 14 574 15 q 429 46 481 13 q 331 153 378 79 q 253 99 294 128 q 167 43 211 71 q 160 13 167 26 q 144 -8 154 0 q 123 -18 135 -17 q 101 -11 111 -19 q 138 9 131 -12 q 138 58 146 31 q 107 113 129 86 q 54 149 85 140 q -4 174 22 157 q -47 208 -31 190 q -65 244 -62 226 q -47 275 -67 263 q -52 251 -56 263 q -36 233 -49 239 q -3 228 -24 226 q 44 249 18 231 q 117 297 79 272 q 213 361 156 322 q 188 404 197 386 q 171 435 178 422 q 158 459 164 449 q 146 481 151 469 q 122 507 136 499 q 93 514 107 515 q 69 503 79 513 q 57 476 58 493 q 62 508 54 494 q 80 528 69 521 q 101 540 90 536 q 115 542 111 543 q 113 560 113 551 q 119 575 114 568 q 138 590 125 582 q 172 607 150 597 q 222 628 194 617 q 276 651 249 639 q 327 672 303 663 q 368 689 351 682 q 392 706 385 696 q 400 725 400 717 q 394 740 400 733 q 379 744 388 746 q 403 739 396 747 q 411 719 410 731 q 409 695 413 707 q 400 682 406 683 q 444 645 422 669 q 470 589 465 621 q 455 519 475 557 q 372 440 435 481 l 315 403 q 367 310 344 350 q 410 233 390 269 l 561 340 q 560 317 556 328 q 575 298 563 307 q 615 285 588 289 q 659 290 643 281 q 680 313 675 299 q 678 342 685 326 q 656 367 672 357 q 685 340 678 360 q 686 295 693 319 q 659 249 679 271 q 607 217 639 226 m 249 613 q 233 593 238 601 q 231 569 228 585 q 247 528 233 554 q 288 454 261 501 q 296 438 292 446 q 304 422 300 431 q 328 439 315 431 q 354 457 340 447 q 375 485 368 468 q 383 520 382 499 q 368 569 383 542 q 338 613 354 599 q 305 631 321 626 q 274 629 289 635 q 249 613 260 624 m 321 169 q 317 175 318 172 q 314 181 317 178 q 261 274 283 233 q 224 342 239 314 l 111 269 q 163 234 139 258 q 207 183 188 210 q 249 118 229 153 l 321 169 z "},"å":{"ha":408,"x_min":-50,"x_max":428,"o":"m 0 408 q -31 424 -19 413 q -46 450 -42 436 q -47 478 -50 464 q -36 500 -44 492 q -41 474 -42 488 q -31 452 -40 461 q -5 440 -22 443 q 40 444 13 438 q 92 466 68 451 q 136 496 117 481 q 178 533 158 513 q 197 491 181 513 q 235 452 214 469 q 281 426 257 435 q 319 421 304 417 q 276 396 296 404 l 276 142 q 334 172 303 153 q 388 222 365 190 q 407 269 407 249 q 398 299 407 289 q 376 310 389 310 q 354 297 363 310 q 371 315 358 310 q 397 317 383 321 q 419 300 410 314 q 426 260 428 286 q 414 215 425 233 q 385 180 403 197 q 344 143 367 163 q 296 97 321 124 q 262 51 271 69 q 255 22 253 32 q 267 10 257 11 q 288 17 276 8 q 251 3 272 -3 q 213 26 231 8 q 182 69 194 44 q 172 115 169 94 l 172 174 q 145 140 161 158 q 106 97 129 121 q 75 51 81 69 q 74 22 69 32 q 92 10 79 11 q 115 17 104 8 q 73 5 100 -1 q 18 53 46 11 q -26 99 -8 93 q -44 106 -43 106 q -37 108 -44 106 q -22 118 -31 110 q -7 143 -14 126 q 0 189 0 160 l 0 408 m 104 146 q 136 174 121 156 q 158 221 151 192 q 163 270 165 250 q 153 301 161 290 q 136 310 146 311 q 118 297 126 310 q 141 317 125 314 q 172 307 157 321 l 172 390 q 122 417 140 401 q 104 433 111 424 l 104 146 m 204 693 q 143 718 168 693 q 118 778 118 743 q 143 839 118 814 q 204 864 168 864 q 264 839 239 864 q 289 778 289 814 q 264 718 289 743 q 204 693 239 693 m 204 831 q 167 815 182 831 q 151 778 151 800 q 167 742 151 757 q 204 726 182 726 q 240 742 225 726 q 256 778 256 757 q 240 815 256 800 q 204 831 225 831 z "},"^":{"ha":311,"x_min":0,"x_max":311,"o":"m 54 393 l 0 393 l 143 643 l 171 643 l 311 393 l 256 393 l 154 571 l 54 393 z "},"~":{"ha":506,"x_min":-10,"x_max":506,"o":"m 111 340 q 29 319 53 347 q 0 235 6 290 q 10 341 -10 299 q 69 401 29 383 q 166 411 110 419 q 288 367 222 403 q 393 331 351 329 q 455 353 435 333 q 476 401 475 372 q 463 447 478 431 q 501 397 496 429 q 490 332 506 364 q 442 278 475 300 q 367 260 410 256 q 289 276 324 264 q 224 301 254 288 q 167 326 194 315 q 111 340 140 338 z "},"*":{"ha":308,"x_min":0,"x_max":308,"o":"m 253 469 q 163 535 228 499 q 169 499 165 514 q 175 474 172 483 q 197 428 186 443 l 154 383 l 113 428 q 147 535 138 468 q 140 531 144 533 q 128 525 135 528 q 87 499 104 514 q 56 469 69 485 l 0 496 l 29 550 q 81 543 53 543 q 142 550 103 543 q 113 576 126 565 q 89 596 100 588 q 51 615 74 606 l 60 675 l 121 665 q 128 621 121 646 q 138 593 132 608 q 154 558 144 578 q 178 615 169 589 q 188 665 188 642 l 249 675 l 257 615 q 218 596 235 608 q 167 550 196 579 q 202 545 186 547 q 231 543 218 543 q 281 550 263 543 l 308 496 l 253 469 l 253 469 z "},"@":{"ha":803,"x_min":-1,"x_max":803,"o":"m 563 18 q 521 -2 533 10 q 510 -24 508 -14 q 523 -37 511 -33 q 553 -33 535 -40 q 522 -44 542 -44 q 483 -30 501 -43 q 450 9 464 -17 q 436 74 436 35 l 436 131 q 410 97 425 115 q 371 54 394 79 q 340 8 346 26 q 339 -22 333 -11 q 357 -33 344 -32 q 381 -25 369 -33 q 338 -38 365 -44 q 283 10 310 -32 q 238 56 256 50 q 219 63 221 63 q 226 65 219 63 q 242 75 233 67 q 257 100 250 83 q 264 146 264 117 l 264 365 q 233 381 244 369 q 218 407 222 393 q 217 435 214 421 q 228 457 219 449 q 224 431 222 444 q 234 409 225 418 q 260 397 243 400 q 306 401 278 394 q 356 424 332 408 q 400 454 381 439 q 442 490 422 471 q 461 448 444 469 q 500 409 478 426 q 545 383 522 392 q 583 378 568 374 q 562 363 572 369 q 542 353 551 357 l 542 165 l 542 143 q 548 63 542 90 q 588 53 554 36 q 633 83 606 63 q 685 140 660 103 q 725 235 710 178 q 735 378 740 293 q 702 478 731 433 q 630 551 674 522 q 530 594 586 581 q 415 606 474 608 q 299 581 357 603 q 194 515 242 558 q 90 374 124 451 q 52 219 56 297 q 75 66 49 140 q 151 -65 101 -8 q 274 -146 201 -122 q 422 -165 346 -169 q 568 -132 497 -161 q 685 -56 639 -103 q 750 27 731 -8 q 772 85 769 63 q 767 119 775 108 q 750 128 758 129 q 777 124 767 131 q 793 108 788 118 q 803 83 799 97 q 747 -22 786 28 q 652 -110 707 -72 q 531 -169 597 -147 q 397 -192 465 -192 q 259 -169 328 -193 q 131 -92 190 -146 q 40 28 71 -37 q 4 160 10 93 q 14 294 -1 228 q 61 417 29 360 q 139 520 93 475 q 240 592 185 565 q 413 634 324 629 q 577 610 501 639 q 704 522 653 582 q 763 369 756 461 q 750 215 769 278 q 699 111 731 151 q 629 49 667 71 q 563 18 592 28 m 436 347 q 408 360 421 353 q 388 375 396 368 q 369 390 378 382 l 369 103 q 401 131 385 114 q 424 178 417 149 q 428 227 431 207 q 418 258 425 247 q 401 267 411 268 q 383 254 392 267 q 405 274 389 271 q 436 264 421 278 l 436 347 z "},"ã":{"ha":408,"x_min":-50,"x_max":428,"o":"m 0 408 q -31 424 -19 413 q -46 450 -42 436 q -47 478 -50 464 q -36 500 -44 492 q -41 474 -42 488 q -31 452 -40 461 q -5 440 -22 443 q 40 444 13 438 q 92 466 68 451 q 136 496 117 481 q 178 533 158 513 q 197 491 181 513 q 235 452 214 469 q 281 426 257 435 q 319 421 304 417 q 276 396 296 404 l 276 142 q 334 172 303 153 q 388 222 365 190 q 407 269 407 249 q 398 299 407 289 q 376 310 389 310 q 354 297 363 310 q 371 315 358 310 q 397 317 383 321 q 419 300 410 314 q 426 260 428 286 q 414 215 425 233 q 385 180 403 197 q 344 143 367 163 q 296 97 321 124 q 262 51 271 69 q 255 22 253 32 q 267 10 257 11 q 288 17 276 8 q 251 3 272 -3 q 213 26 231 8 q 182 69 194 44 q 172 115 169 94 l 172 174 q 145 140 161 158 q 106 97 129 121 q 75 51 81 69 q 74 22 69 32 q 92 10 79 11 q 115 17 104 8 q 73 5 100 -1 q 18 53 46 11 q -26 99 -8 93 q -44 106 -43 106 q -37 108 -44 106 q -22 118 -31 110 q -7 143 -14 126 q 0 189 0 160 l 0 408 m 104 146 q 136 174 121 156 q 158 221 151 192 q 163 270 165 250 q 153 301 161 290 q 136 310 146 311 q 118 297 126 310 q 141 317 125 314 q 172 307 157 321 l 172 390 q 122 417 140 401 q 104 433 111 424 l 104 146 m 139 738 q 106 728 115 740 q 93 693 96 717 q 122 763 85 746 q 214 749 158 779 q 258 733 240 733 q 284 742 275 733 q 293 763 293 750 q 288 782 293 775 q 303 761 301 775 q 299 733 306 747 q 279 710 293 719 q 247 703 265 701 q 187 721 211 707 q 139 738 163 735 z "},"b":{"ha":369,"x_min":-190,"x_max":331,"o":"m 0 632 q -22 767 0 715 q -74 840 -43 818 q -136 858 -104 863 q -190 825 -168 853 q -144 864 -174 850 q -76 869 -114 878 q 4 826 -39 861 q 90 722 47 792 q 106 743 94 736 q 131 750 118 750 q 153 742 143 750 q 167 721 164 735 q 151 735 161 731 q 130 733 140 740 q 112 705 119 726 q 104 642 104 683 l 104 475 q 133 495 119 485 q 157 514 147 506 q 176 533 168 524 q 196 491 179 513 q 235 452 213 469 q 280 426 257 435 q 319 421 303 417 q 276 396 296 404 l 276 124 q 331 78 324 108 q 302 101 324 93 q 252 110 281 110 q 193 103 224 111 q 139 76 163 94 q 87 20 90 40 q 115 17 83 0 q 74 1 99 0 q 22 47 50 3 q -4 81 7 69 q -25 99 -15 93 q -44 106 -36 104 q -22 119 -32 110 q -7 144 -14 128 q 0 189 0 161 l 0 632 m 104 126 q 117 111 111 119 q 125 92 122 103 q 149 107 138 100 q 172 118 161 114 l 172 390 q 122 417 140 401 q 104 433 111 424 l 104 126 z "},"\\":{"ha":303,"x_min":0,"x_max":303,"o":"m 44 635 q 24 664 38 660 q 0 658 10 668 q 13 669 1 664 q 37 676 24 675 q 65 674 50 678 q 88 656 79 669 q 106 662 93 660 q 124 657 119 664 q 115 658 121 658 q 106 653 110 658 q 100 638 101 649 q 104 607 99 626 l 258 32 q 279 3 265 7 q 303 8 293 -1 q 289 -3 300 1 q 265 -10 278 -8 q 237 -7 251 -11 q 214 11 222 -3 q 196 5 208 7 q 178 10 183 3 q 186 7 181 7 q 196 12 192 7 q 202 28 200 17 q 199 58 204 39 l 44 635 l 44 635 z "},"|":{"ha":183,"x_min":-8,"x_max":183,"o":"m -8 -153 q 29 -152 10 -161 q 49 -112 49 -143 l 49 590 q 42 626 49 614 q 26 643 35 639 q 10 646 18 647 q 0 640 3 644 q 8 647 1 644 q 24 651 15 650 q 40 651 32 653 q 53 649 49 650 q 81 676 61 667 q 121 689 100 686 q 160 688 142 692 q 183 679 178 685 q 146 679 165 688 q 126 640 126 671 l 126 -62 q 133 -99 126 -87 q 149 -115 140 -111 q 165 -118 157 -119 q 176 -114 174 -117 q 152 -124 172 -122 q 122 -122 132 -125 q 95 -150 114 -140 q 55 -162 76 -160 q 15 -162 33 -165 q -8 -153 -3 -160 z "},"{":{"ha":251,"x_min":0,"x_max":251,"o":"m 251 614 q 183 582 207 606 q 163 529 163 558 q 165 495 163 514 q 172 454 167 476 q 183 376 183 407 q 165 314 183 344 q 113 260 144 281 q 36 229 89 244 q 84 212 64 221 q 118 194 104 203 q 168 140 151 171 q 185 82 185 108 q 174 10 185 57 q 165 -33 167 -14 q 163 -69 163 -53 q 183 -125 163 -100 q 251 -157 206 -149 l 251 -178 l 235 -178 q 101 -124 156 -178 q 65 -56 72 -92 q 45 -65 56 -62 q 26 -67 35 -68 q 11 -61 17 -67 q 6 -47 6 -56 q 12 -57 6 -51 q 27 -60 18 -62 q 47 -43 36 -58 q 68 8 57 -28 q 72 28 69 18 q 76 50 74 39 q 88 122 88 92 q 65 183 88 154 q 0 215 44 207 l 0 243 q 65 276 43 250 q 88 339 88 303 q 85 372 88 354 q 78 408 82 389 l 74 425 q 51 492 63 472 q 29 515 39 511 q 13 514 19 519 q 6 504 6 508 q 11 517 6 513 q 26 524 17 522 q 47 522 36 525 q 67 511 57 518 q 82 550 71 532 q 126 599 99 579 q 185 626 156 618 q 251 635 210 632 l 251 614 l 251 614 z "},"}":{"ha":251,"x_min":0,"x_max":251,"o":"m 0 635 q 67 626 42 632 q 125 599 96 618 q 169 550 153 579 q 185 511 181 532 q 205 522 194 518 q 225 524 215 525 q 240 517 235 522 q 246 504 246 513 q 239 514 246 508 q 222 515 232 519 q 201 492 213 511 q 178 425 189 472 l 174 408 q 167 372 169 389 q 164 339 164 354 q 186 276 164 303 q 251 243 208 250 l 251 215 q 186 183 207 207 q 164 122 164 154 q 175 50 164 92 q 180 28 178 39 q 183 8 182 18 q 204 -43 193 -28 q 224 -60 215 -58 q 240 -57 233 -62 q 246 -47 246 -51 q 240 -61 246 -56 q 226 -67 235 -67 q 206 -65 217 -68 q 186 -56 196 -62 q 150 -124 179 -92 q 17 -178 96 -178 l 0 -178 l 0 -157 q 68 -125 46 -149 q 89 -69 89 -100 q 87 -33 89 -53 q 78 10 85 -14 q 67 82 67 57 q 83 140 67 108 q 133 194 100 171 q 167 212 147 203 q 215 229 188 221 q 139 260 163 244 q 86 314 107 281 q 68 376 68 344 q 79 454 68 407 q 87 495 85 476 q 89 529 89 514 q 68 582 89 558 q 0 614 44 606 l 0 635 z "},"[":{"ha":186,"x_min":0,"x_max":186,"o":"m 85 654 l 85 -125 l 186 -125 l 186 -147 l 0 -147 l 0 676 l 186 676 l 186 654 l 85 654 z "},"]":{"ha":186,"x_min":0,"x_max":186,"o":"m 0 654 l 0 676 l 186 676 l 186 -147 l 0 -147 l 0 -125 l 101 -125 l 101 654 l 0 654 z "},"˘":{"ha":171,"x_min":0,"x_max":171,"o":"m 86 731 q 121 747 106 731 q 138 782 136 763 l 171 782 q 146 722 171 747 q 86 697 121 697 q 25 722 50 697 q 0 782 0 747 l 33 782 q 49 747 35 763 q 86 731 64 731 z "},"¦":{"ha":183,"x_min":-8,"x_max":183,"o":"m 49 590 q 42 626 49 614 q 26 643 35 639 q 10 646 18 647 q 0 640 3 644 q 8 647 1 644 q 24 651 15 650 q 40 651 32 653 q 53 649 49 650 q 81 676 61 667 q 121 689 100 686 q 160 688 142 692 q 183 679 178 685 q 146 679 165 688 q 126 640 126 671 l 126 -62 q 132 -97 126 -85 q 146 -114 138 -108 q 162 -119 154 -119 q 174 -115 169 -118 q 149 -124 167 -122 q 122 -122 131 -125 q 95 -150 114 -140 q 55 -162 76 -160 q 15 -162 33 -165 q -8 -153 -3 -160 q 29 -152 10 -161 q 49 -112 49 -143 l 49 590 z "},"•":{"ha":171,"x_min":0,"x_max":171,"o":"m 25 374 q 86 399 50 399 q 146 374 121 399 q 171 314 171 349 q 146 253 171 278 q 86 228 121 228 q 25 253 50 228 q 0 314 0 278 q 25 374 0 349 z "},"c":{"ha":383,"x_min":-50,"x_max":404,"o":"m 0 408 q -31 424 -19 413 q -46 450 -42 436 q -47 478 -50 464 q -36 500 -44 492 q -41 474 -42 488 q -31 452 -40 461 q -5 440 -22 443 q 40 444 13 438 q 92 466 68 451 q 136 496 117 481 q 178 533 158 513 q 197 491 181 513 q 236 452 214 469 q 281 426 258 435 q 319 421 304 417 q 235 384 274 386 q 167 393 196 382 q 104 433 132 406 l 104 258 q 132 154 104 183 q 199 126 160 125 q 279 151 238 128 q 347 206 321 175 q 378 259 374 236 q 374 295 382 282 q 351 309 365 308 q 326 297 336 310 q 349 318 335 314 q 376 315 363 322 q 397 290 389 307 q 399 250 404 274 q 348 171 388 201 q 256 107 308 140 q 206 61 215 81 q 201 28 196 42 q 229 1 207 13 q 114 35 164 7 q 72 65 93 47 q 35 110 51 83 q 10 174 19 138 q 0 258 0 210 l 0 408 l 0 408 z "},"ˇ":{"ha":257,"x_min":0,"x_max":257,"o":"m 128 747 l 211 865 l 257 865 l 142 694 l 118 694 l 0 865 l 44 865 l 128 747 z "},"ç":{"ha":383,"x_min":-50,"x_max":404,"o":"m 0 408 q -31 424 -19 413 q -46 450 -42 436 q -47 478 -50 464 q -36 500 -44 492 q -41 474 -42 488 q -31 452 -40 461 q -5 440 -22 443 q 40 444 13 438 q 92 466 68 451 q 136 496 117 481 q 178 533 158 513 q 197 491 181 513 q 236 452 214 469 q 281 426 258 435 q 319 421 304 417 q 235 384 274 386 q 167 393 196 382 q 104 433 132 406 l 104 258 q 132 154 104 183 q 199 126 160 125 q 279 151 238 128 q 347 206 321 175 q 378 259 374 236 q 374 295 382 282 q 351 309 365 308 q 326 297 336 310 q 349 318 335 314 q 376 315 363 322 q 397 290 389 307 q 399 250 404 274 q 348 171 388 201 q 256 107 308 140 q 206 61 215 81 q 201 28 196 42 q 229 1 207 13 q 114 35 164 7 q 72 65 93 47 q 35 110 51 83 q 10 174 19 138 q 0 258 0 210 l 0 408 l 0 408 m 207 72 q 206 65 206 72 q 206 49 206 58 l 206 25 q 236 -7 224 11 q 250 -44 246 -22 q 242 -94 254 -67 q 203 -133 229 -122 q 149 -138 176 -143 q 101 -115 122 -133 q 79 -67 81 -96 q 105 -104 85 -92 q 147 -117 125 -117 q 186 -104 168 -117 q 207 -67 204 -92 q 203 -26 210 -42 q 188 0 197 -10 q 163 17 176 11 l 164 72 l 186 72 q 201 72 194 72 q 207 72 207 71 z "},"¸":{"ha":172,"x_min":0,"x_max":175,"o":"m 128 11 q 126 4 126 11 q 126 -12 126 -3 l 126 -36 q 157 -68 144 -50 q 171 -106 167 -83 q 163 -156 175 -128 q 124 -194 150 -183 q 70 -199 97 -204 q 22 -176 43 -194 q 0 -128 1 -157 q 26 -165 6 -153 q 67 -178 46 -178 q 107 -165 89 -178 q 128 -128 125 -153 q 124 -87 131 -103 q 108 -61 118 -71 q 83 -44 97 -50 l 85 11 l 107 11 q 122 10 115 11 q 128 11 128 10 z "}}}
